<svg xmlns="http://www.w3.org/2000/svg" viewBox="0 0 214.12 252.96"><defs><style>.cls-1{fill:#8cc63f;}.cls-2{fill:#fff;}</style></defs><g id="Layer_2" data-name="Layer 2"><g id="Layer_1-2" data-name="Layer 1"><path class="cls-1" d="M214.11,128a140.37,140.37,0,0,1-5.74,38.25,274.39,274.39,0,0,1-19.68,50.07,100.68,100.68,0,0,1-16.75,23.85c-5.83,6.05-12.56,10.59-21,12.22-6.7,1.29-13.19.33-19.55-1.86a52.93,52.93,0,0,1-7.24-3.17,52.2,52.2,0,0,0-16.64-5.82c-1.49-.22-1.54-.38-1-1.92,2.58-6.8,5-13.65,7-20.64a127.14,127.14,0,0,0,5.21-38.53,90.31,90.31,0,0,0-9.32-38.07c-.28-.58-.57-1.15-.85-1.72a4.61,4.61,0,0,1,.83-5.52,79.07,79.07,0,0,0,7.34-9.47,86.91,86.91,0,0,0,12.94-33.24,128.34,128.34,0,0,0,1.9-22.65c0-.8,0-1.6,0-2.4.27-4.77,2.62-7.49,7.32-8.42a44.08,44.08,0,0,1,9.77-.87c24.32.64,43,11.26,55.94,31.85a61.51,61.51,0,0,1,9.11,29.69C213.92,122.41,214.14,125.19,214.11,128Z"/><path class="cls-1" d="M32.11,227.21c-.57-.25-.74-.81-1-1.28-8.29-14.33-15.85-29-21.56-44.6A154.71,154.71,0,0,1,.78,145.11a138.58,138.58,0,0,1-.05-28.94,7.52,7.52,0,0,1,.15-1c.29-1.24.63-1.43,1.83-1a6.27,6.27,0,0,1,2.6,2,104.63,104.63,0,0,0,47.06,33.41c3.54,1.26,7.16,2.25,10.79,3.18.54.14,1.09.27,1.61.46,3.35,1.16,4.43,3,3.66,6.42a103.61,103.61,0,0,1-9.09,24.4c-6.84,13.6-15.15,26.29-23.9,38.71Q34,224.94,32.52,227C32.43,227.09,32.25,227.13,32.11,227.21Z"/><path class="cls-2" d="M40.75,65.63c-.43,2.89-1.09,5.5-1.4,8.18A41,41,0,0,0,41,91.33c2.89,9,7.54,16.92,15.1,22.84,4.73,3.71,10,6.31,16.11,6.76,8.83.64,15.6-2.9,20.07-10.46,4-6.7,5-14.09,4.11-21.74S92.26,74,88.19,67.43a34.26,34.26,0,0,1-2-3.56c14.43,5.49,28.72,5.89,42.83-.61.79.55.46,1.23.43,1.81a57.17,57.17,0,0,1-8.53,27.15c-8.56,14.27-20.36,24.9-35.89,31.17-8.94,3.61-18.3,4.25-27.8,3.82-15.87-.71-30.77-5.33-45.27-11.45-1.92-.8-3.81-1.65-5.7-2.5-3.77-1.7-4.35-3-3.16-7A59.74,59.74,0,0,1,27.55,72.73,83,83,0,0,1,39,66.27C39.51,66.05,40,65.89,40.75,65.63Z"/><path class="cls-2" d="M33.18,228.16c26.88-9.6,46.53-26.74,57.78-53a5.47,5.47,0,0,1,1.26,2.72,228.62,228.62,0,0,1,7.72,32.33Q102,222,104,233.8a13.75,13.75,0,0,1-.15,5.23,4.82,4.82,0,0,1-3.07,3.68A22.71,22.71,0,0,1,96.18,244,17,17,0,0,0,90,246.48c-6.33,4.06-13.17,6.45-20.79,6.21a36.35,36.35,0,0,1-19.83-6.95A58.28,58.28,0,0,1,33.18,228.16Z"/><path class="cls-2" d="M108.78,2.28A4.21,4.21,0,0,1,111,3c4.82,2.14,9.66,4.23,14.41,6.51a4.31,4.31,0,0,0,4.8-.25c4.35-2.84,8.84-5.44,13.29-8.12A5.94,5.94,0,0,1,145.91,0a51.61,51.61,0,0,1-.59,6.89c-.35,3.74-.72,7.48-1.26,11.19a4.37,4.37,0,0,0,1.79,4.5c4.09,3.32,8,6.83,12,10.28a4.62,4.62,0,0,1,1.7,1.88L147.44,37.3c-2.19.47-4.36,1-6.57,1.34a2.91,2.91,0,0,0-2.52,2.13c-2.2,5.4-4.48,10.76-6.74,16.13-.18.44-.39.87-.6,1.31-.87-.21-1-1-1.34-1.58-2.84-4.91-5.67-9.81-8.45-14.76a3,3,0,0,0-2.75-1.82c-5.5-.36-11-.87-16.48-1.35a4.36,4.36,0,0,1-2.54-.49c.23-.84.92-1.29,1.44-1.86,3.64-4,7.24-8.11,11-12a3.68,3.68,0,0,0,1-3.85c-1.38-5.58-2.67-11.18-4-16.77C108.75,3.24,108.48,2.79,108.78,2.28Z"/></g></g></svg>