<svg xmlns="http://www.w3.org/2000/svg" viewBox="0 0 633.07 253.03"><defs><style>.cls-1{fill:#8cc63f;}.cls-2{fill:#fff;}</style></defs><g id="Layer_2" data-name="Layer 2"><g id="Layer_1-2" data-name="Layer 1"><path class="cls-1" d="M106,241.34c1.4-3.88,2.71-7.47,4-11.07a155.74,155.74,0,0,0,7.82-31.3c2.66-20,.44-39.33-8.88-57.53-1.55-3-1.38-4.11.9-6.69,10.41-11.8,16.68-25.59,19.62-41a117.12,117.12,0,0,0,2-23.34,25.51,25.51,0,0,1,.32-4.53,7.69,7.69,0,0,1,5.83-6.58,29.42,29.42,0,0,1,6.38-1c16.46-1.06,31.35,3.28,44.39,13.4a63.41,63.41,0,0,1,24.6,41.38,103.84,103.84,0,0,1,.61,24.85c-1.51,19.23-7.44,37.33-14.46,55.13-4.28,10.86-8.93,21.54-15.17,31.45-4.36,6.92-9.23,13.44-15.42,18.86-5.58,4.89-11.88,8.31-19.35,9.32a37.48,37.48,0,0,1-17.22-1.95,47.85,47.85,0,0,1-7.27-3.07A54,54,0,0,0,106,241.34Z"/><path class="cls-1" d="M32,227.39c-4.46-7.59-8.6-15.24-12.46-23-6.81-13.79-12.45-28-15.9-43A135.3,135.3,0,0,1,.1,125.65c.13-3.51.57-7,.82-10.51.09-1.16.57-1.3,1.56-.92a6.88,6.88,0,0,1,3,2.3,104.39,104.39,0,0,0,29.3,25.14A100.39,100.39,0,0,0,62.71,152.8a14.58,14.58,0,0,1,3.61,1.25,4.13,4.13,0,0,1,2.33,3.88,17.93,17.93,0,0,1-.88,4.93A129.2,129.2,0,0,1,55.6,191.45a379.27,379.27,0,0,1-22.6,35A1.77,1.77,0,0,1,32,227.39Z"/><path class="cls-2" d="M40.71,66c-.36,2.07-.83,4.16-1.09,6.28-2,17,3.67,30.94,16.55,42a28.21,28.21,0,0,0,14.2,6.54c8.3,1.28,15.15-1.29,20.36-7.9,3.57-4.54,5.06-9.91,5.69-15.54,1-9.08-1.37-17.41-5.58-25.33-1.44-2.73-3.09-5.34-5.12-8.42,7.53,2.83,14.7,4.53,22.22,4.5a54.56,54.56,0,0,0,21.54-4.88A44.15,44.15,0,0,1,127.78,76c-4.09,15-12.7,27.07-24.64,36.83a62.32,62.32,0,0,1-27.06,13.28,78.2,78.2,0,0,1-22,1c-17.13-1.33-33-7-48.52-14.07-3-1.38-3.62-2.77-2.62-6.21A59.66,59.66,0,0,1,21.5,77.45a76.21,76.21,0,0,1,18-11.31A1.26,1.26,0,0,1,40.71,66Z"/><path class="cls-2" d="M33.46,228.15C60,218.67,79.69,201.55,91.11,175a46.65,46.65,0,0,1,2.39,6.89,255.75,255.75,0,0,1,7.18,32.48c1,6,1.94,12,3.17,17.92a20.59,20.59,0,0,1,.22,6A5,5,0,0,1,100.3,243a34.61,34.61,0,0,1-3.47.89A19,19,0,0,0,90,246.59a36.77,36.77,0,0,1-16.26,6,33.58,33.58,0,0,1-19.87-4.09c-8.54-4.57-14.94-11.38-20.13-19.43A4.35,4.35,0,0,1,33.46,228.15Z"/><path class="cls-2" d="M160,34.74l-11.43,2.41c-2.5.52-5,1.08-7.51,1.52a3.26,3.26,0,0,0-2.69,2.3c-2.09,5.18-4.28,10.33-6.46,15.47-.26.64-.32,1.42-1.18,1.94q-2.81-4.87-5.58-9.71c-1.28-2.22-2.63-4.39-3.79-6.67a3.38,3.38,0,0,0-3.19-2c-6-.39-12-.94-17.93-1.44a5.39,5.39,0,0,1-.75-.2,5.31,5.31,0,0,1,1.44-1.92c3.7-4.09,7.39-8.2,11.14-12.24a3.21,3.21,0,0,0,.92-3.4c-1.39-5.41-2.61-10.86-3.89-16.3-.16-.69-.28-1.38-.42-2.06.85-.34,1.35.18,1.89.42,5.11,2.28,10.23,4.51,15.28,6.91a3.81,3.81,0,0,0,4.17-.3c4.59-2.9,9.27-5.67,13.92-8.48A5.19,5.19,0,0,1,146,0c0,3-.55,6-.82,9q-.47,5.13-1.19,10.23A2.87,2.87,0,0,0,145.23,22c4.33,3.67,8.62,7.39,12.92,11.09C158.62,33.53,159.09,34,160,34.74Z"/><path class="cls-2" d="M374.3,47.57c-1.08,1.51-.67,2.92-.67,4.24,0,10,0,19.93,0,29.89a30.87,30.87,0,0,1-.1,3.73c-.45,3.74-2.72,5.68-6.41,5.6a6.16,6.16,0,0,1-6.37-5.8c-.09-1,0-1.93,0-2.9q0-25.95,0-51.9V28.36c0-2.32.37-4.53,2.71-5.62a7.5,7.5,0,0,1,7.53.42,17.68,17.68,0,0,1,4.1,4.09q13.64,17,27.33,34c1.18,1.46,2.41,2.88,4.29,5.12V61.4q0-15.57,0-31.14a11.16,11.16,0,0,1,.52-4.5c1.2-2.87,3.68-4.7,6.31-4.5A7.56,7.56,0,0,1,419.84,27a19.3,19.3,0,0,1,.11,3.32q0,26.15,0,52.31c0,.55,0,1.1,0,1.66-.21,5.75-5.11,8.52-10.2,5.73a17.54,17.54,0,0,1-5.06-4.84Q391.16,68.1,377.6,51C376.67,49.86,375.94,48.49,374.3,47.57Z"/><path class="cls-2" d="M436.31,56.47c0-8.86,0-17.72,0-26.58,0-4.87,2.14-7.38,6.9-7.43,8.86-.08,17.74-.56,26.57.22,16.53,1.46,28.25,13.41,29.71,30,.72,8.21-.59,16-4.88,23.16C488.83,85.46,480.21,90.6,469,91c-8.58.28-17.17.11-25.75,0-5.05,0-6.92-2-6.94-7.14C436.29,74.74,436.31,65.6,436.31,56.47Zm13,0V76c.12,2.92.12,3,3.09,3,4.42.05,8.85.13,13.26,0,9.88-.34,16.84-5.71,19.61-14.93a26.71,26.71,0,0,0,.95-10.66c-1.2-11.1-9-18.43-20.08-18.79-4.69-.15-9.4.07-14.09-.09-2.29-.08-2.79.9-2.77,2.93C449.32,43.78,449.27,50.14,449.27,56.49Z"/><path class="cls-2" d="M618.71,64.69c3.76,4.59,7.27,8.85,10.75,13.14a25.81,25.81,0,0,1,2.72,3.65,6.37,6.37,0,0,1-1.17,8,6.94,6.94,0,0,1-8.45.63,12.91,12.91,0,0,1-3.33-3.65c-4-5.68-8-11.28-11.84-17a5.42,5.42,0,0,0-5.45-2.76,84.26,84.26,0,0,1-9.13,0c-2.1-.09-2.95.58-2.89,2.8.13,5,.15,10,0,14.94S586.19,92,581.52,91a5.61,5.61,0,0,1-4.71-5.08,25.43,25.43,0,0,1-.06-2.9q0-26.57,0-53.12c0-6.08,1.77-7.82,7.93-7.83q12.24,0,24.49,0c18,0,25.69,17.29,21.18,30A20.36,20.36,0,0,1,621,63.33Zm-18-9.52V55.1c3,0,6.1.21,9.12-.05A10.17,10.17,0,0,0,619,44.14c-.25-5.77-3.92-9.63-9.66-9.79s-11.34,0-17-.1c-1.8,0-2.42.66-2.4,2.43q.1,8.09,0,16.17c0,1.83.77,2.4,2.5,2.35C595.2,55.11,598,55.17,600.73,55.17Z"/><path class="cls-2" d="M512.83,56.62c0-8.86,0-17.72,0-26.58,0-5.62,1.82-7.45,7.47-7.47,11.36,0,22.71-.06,34.07,0,4.54,0,7,2.45,7,6.41s-2.5,6.31-6.65,6.36c-7.61.08-15.23,0-22.85,0-5.82,0-5.9,0-5.79,6,0,2.85-1.26,6.46.71,8.34,1.77,1.7,5.28.47,8,.51,5.27.08,10.53,0,15.79,0,4.45.06,7,2.46,7.08,6.39s-2.51,6.58-6.87,6.65c-7.06.12-14.13,0-21.19,0-3.53,0-3.54,0-3.57,3.68,0,2.77.1,5.54,0,8.31-.1,2,.69,2.62,2.65,2.61,8.31-.08,16.62,0,24.93,0a16.75,16.75,0,0,1,4.94.46,6.71,6.71,0,0,1,4.86,6.89,6.11,6.11,0,0,1-6.08,5.7c-5.39.17-10.8.07-16.2.07-7.06,0-14.13,0-21.19,0-5.08,0-7.09-2-7.11-7C512.8,74.9,512.83,65.76,512.83,56.62Z"/><path class="cls-2" d="M283.93,61.21c-2.58,2.83-4.94,5.54-7.45,8.11a5.82,5.82,0,0,0-1.63,4.5c.07,3.59,0,7.19,0,10.79.06,5.36-4.63,7.52-8.87,6.33a5.47,5.47,0,0,1-4.18-5.07c-.09-1,0-1.94,0-2.91V30.26c0-.83,0-1.66,0-2.49.27-3.61,2.54-5.75,6.21-5.88s6.2,1.81,6.73,5.33a24.27,24.27,0,0,1,.12,3.72c0,6.91,0,13.82,0,20.86,2.08.13,2.8-1.41,3.76-2.39q11.78-12,23.46-24.08a20.87,20.87,0,0,1,2.08-2,6.33,6.33,0,0,1,8.95.66c2.54,2.64,2.67,5.5.2,8.5-5,6.11-10.83,11.45-16.29,17.15-3.75,3.92-3.18,3-.28,6.51,5.95,7.29,12,14.51,18,21.75.61.75,1.25,1.48,1.84,2.25,2.95,3.84,2.82,7.44-.35,9.82-3.48,2.62-7.34,2.11-10.19-1.48-6.37-8-12.67-16.08-19-24.11C286.17,63.3,285.53,62,283.93,61.21Z"/><path class="cls-1" d="M274.59,129.47l-6.09,29.94a24.84,24.84,0,0,0-.7,3.66c-.12,2.75-1.19,2.76-3.63,2.29-1.66-.32-2.24-1-1.82-2.84,2.94-13.08,5.83-26.16,8.52-39.29.5-2.41,1.91-2.62,3.73-3,2.19-.48,2.88.76,3.62,2.42q5.88,13.27,11.91,26.47c.61,1.35,1,2.86,2.23,4,1.36-1.67,2-3.68,2.81-5.55q5.61-12.48,11.12-25c.64-1.46,1.23-2.63,3.25-2.48,2.84.22,3.19.33,3.77,3.27q3.81,19.11,7.59,38.23c.57,2.91-1,4.46-4,4.07-1.58-.21-1.4-1.53-1.59-2.52-1.47-7.74-2.88-15.49-4.33-23.23-.6-3.22-1.23-6.43-1.85-9.7-1.68.26-1.78,1.57-2.19,2.47-3.86,8.42-7.66,16.86-11.47,25.3-.62,1.36-1,2.8-3.06,2.81s-3.24-.47-4.12-2.51c-3.45-8-7.09-15.91-10.7-23.83A13.64,13.64,0,0,0,274.59,129.47Z"/><path class="cls-2" d="M343.5,56.93c0,9.26.05,18.51,0,27.77,0,4.51-2.67,6.81-7.16,6.49-3.34-.24-5.32-2-5.78-5.38a24.36,24.36,0,0,1-.11-3.31q0-25.9,0-51.81a25.42,25.42,0,0,1,.07-2.9c.45-3.69,3.05-5.86,6.83-5.76s6.12,2.38,6.15,6.3C343.55,37.86,343.5,47.4,343.5,56.93Z"/><path class="cls-1" d="M598.53,129.78v27.71c0,2.07-.06,4.15,0,6.22s-1.32,2-2.74,2c-1.58.07-2.69-.16-2.59-2.17.16-3,.21-6.09.2-9.13,0-9.68-.13-19.37-.17-29,0-2.59,2.33-5.12,4.68-5.13,1.15,0,1.58,1,2.16,1.73q7.89,9.92,15.75,19.83c2.5,3.14,5,6.27,7.53,9.38.86,1,1.79,2,2.79,3.14,1.53-1.27,1-2.75,1-4-.06-9-.22-18-.28-27,0-2.83.32-2.92,3.06-3,2.55-.09,2.51,1.39,2.51,3.2,0,12.45,0,24.9,0,37.35a4.38,4.38,0,0,1-3.79,4.54c-1.52.32-1.87-.94-2.5-1.74-5.34-6.88-10.61-13.82-16-20.69-3.56-4.56-7.25-9-10.87-13.53Z"/><path class="cls-1" d="M521,144c0-6.18,1.14-11.09,4.19-15.44,5.1-7.28,12.26-10.25,20.9-9.16,8.41,1.05,14.16,5.94,17.19,13.83a26.89,26.89,0,0,1,.51,18.3c-3.25,10.07-12.26,16.33-22.4,15.58a22.06,22.06,0,0,1-20-19.08C521.08,146.37,521,144.71,521,144Zm6-.72a19.87,19.87,0,0,0,2.62,10.82c3,5.08,7.33,8.31,13.47,8.24s10.53-3.1,13.36-8.38c3.91-7.3,3.49-14.73-.24-21.87-2.75-5.27-7.24-8.21-13.47-8.08-6,.12-10.19,3.13-13,8.18A20.69,20.69,0,0,0,526.93,143.26Z"/><path class="cls-2" d="M260.39,194.81H632.81c.25,1.56-.73,1.49-1.52,1.53-1.1,0-2.21,0-3.32,0q-181.36,0-362.72,0c-1.65,0-3.46.51-4.95-.54Z"/><path class="cls-1" d="M438.09,161.56a29.18,29.18,0,0,0,9.84-1.26c2.77-.87,5-2.41,5.45-5.61s-1-5.38-3.47-7c-1.51-1-3.13-1.76-4.7-2.63a62.46,62.46,0,0,1-6.16-3.42c-7.77-5.52-6.74-16.14,1.93-20.15,4.82-2.23,9.93-2.19,15.08-1.64,2.31.24,1.95,2,1.94,3.43,0,1.76-1.4,1.36-2.44,1.24a26.34,26.34,0,0,0-9.49.38,9.44,9.44,0,0,0-3.74,1.7c-3.25,2.58-3.47,6.47-.48,9.33a21.92,21.92,0,0,0,5.61,3.52,40.34,40.34,0,0,1,7.52,4.38c6,4.88,6.13,13.69-.07,18.3s-13.42,4.69-20.7,3.75c-2-.26-1.43-2.11-1.5-3.36-.08-1.44,1.07-1.33,2.07-1.24Z"/><path class="cls-1" d="M401.91,124.24a23.17,23.17,0,0,0-7,.67c-3,.81-5.45,2.15-6.07,5.48s1.32,5.51,3.95,7.07c3.09,1.82,6.37,3.34,9.42,5.22,3.43,2.11,5.81,5,6,9.32.28,5.31-2.07,9.1-6.59,11.51-5.71,3.05-11.92,3.15-18.19,2.48-2.35-.25-1.85-2.07-1.79-3.47.07-1.74,1.46-1.29,2.5-1.18a35.07,35.07,0,0,0,10.72-.51,12.73,12.73,0,0,0,4.25-1.57A6.4,6.4,0,0,0,400.42,149c-1.77-1.83-4.08-2.82-6.31-3.91a33.24,33.24,0,0,1-7.46-4.43,11,11,0,0,1-.58-16.5c5.6-5.27,12.57-5.07,19.54-4.12,1.85.25,1.35,2.22,1.37,3.46,0,1.4-1.23,1.14-2.19,1Z"/><path class="cls-2" d="M563.08,252.39c-4-6.53-6.31-13.16-10.46-19.71-1.4,5.2-1.55,9.73-2.3,14.15-.21,1.23-.35,2.46-.53,3.69-.14.92-.54,1.55-1.6,1.48s-1.22-.95-1.12-1.79c.24-2.06.54-4.11.84-6.16,1-6.68,1.93-13.35,3.62-20.24,3.72,7.37,7.45,14.74,11.48,22.73l11.34-22.81.71.19q1.88,13.08,3.73,26.14c.12.83.28,1.74-.89,1.93s-1.74-.44-1.9-1.61c-.5-3.84-1-7.67-1.59-11.51a17.12,17.12,0,0,0-1.62-5.82C569.67,239.27,566.55,245.49,563.08,252.39Z"/><path class="cls-2" d="M445.84,251.92c-6.67,0-6.67,0-6.67-6.26,0-6.48.06-13,0-19.44,0-2.06.51-3.05,2.77-2.94,3.43.17,6.89-.15,10.31.46,7,1.24,11.14,6.62,11.15,14.25,0,6.94-4.26,12.94-11.18,13.67C450,251.89,447.78,251.83,445.84,251.92Zm-3.75-14.38c0,3,.06,6.09,0,9.13-.05,1.79.66,2.51,2.43,2.4,2.49-.16,5-.09,7.46-.37a9.07,9.07,0,0,0,6.77-4.32,11.66,11.66,0,0,0-8.3-18c-2.05-.26-4.15-.13-6.22-.24-1.64-.1-2.16.7-2.13,2.24C442.13,231.45,442.09,234.49,442.09,237.54Z"/><path class="cls-1" d="M354.33,143.29c0,6.63-.09,13.27,0,19.9,0,2.06-.64,2.64-2.6,2.58-3-.08-3.29-.09-3.25-2.34.21-13.55.15-27.1,0-40.65,0-2.25.36-2.35,3.21-2.42,2,0,2.69.58,2.66,2.61-.1,6.77,0,13.55,0,20.32Z"/><path class="cls-1" d="M493.09,143c0,6.63,0,13.26,0,19.9,0,2.82,0,2.82-2.65,2.85-3,0-3.14,0-3.14-2.82q0-19.9,0-39.82c0-2.6.14-2.68,2.9-2.7s2.93.15,2.93,2.68q0,10,0,19.9Z"/><path class="cls-2" d="M334.13,252.12c-7.37,0-12.9-3.82-14.83-10.28a14.52,14.52,0,0,1,6.21-16.61c5.65-3.64,14.06-3.06,18.95,1.31.41.37.79.77,1.17,1.17a1.16,1.16,0,0,1,.09,1.8c-.62.59-1.32,1-2.15.23a16.17,16.17,0,0,0-2.21-1.85,12.55,12.55,0,0,0-13-.76,11.35,11.35,0,0,0-6.6,10.25c-.23,4.54,1.57,8.15,5.59,10.33a13.27,13.27,0,0,0,13.81-.22,9.58,9.58,0,0,0,2-1.51c.82-.83,1.61-1,2.5-.19,1.13,1.05.19,1.69-.51,2.32A14.85,14.85,0,0,1,334.13,252.12Z"/><path class="cls-2" d="M273.71,223.62l12.9,27.63c-1.81,1.17-2.81.59-3.53-.9-.9-1.86-1.9-3.68-2.69-5.59-.67-1.62-1.68-2.45-3.46-2.28a5.77,5.77,0,0,1-1.66,0c-6-1.12-10.1.8-11.65,7.06a4.71,4.71,0,0,1-1.31,2.05,1.77,1.77,0,0,1-2,.17c-.88-.41-.45-1.15-.16-1.75q6.26-13.24,12.54-26.49Zm-.57,5.66c-1.56,3.95-3.56,6.76-4.39,10.2h9.17Z"/><path class="cls-2" d="M392.63,223.77c.92.3,1,1.38,1.42,2.19q5.47,11.64,10.85,23.31c.36.77,1.43,1.82.1,2.48-1.12.56-2.09-.1-2.63-1.3-.86-1.88-1.85-3.71-2.66-5.62-.66-1.56-1.58-2.45-3.42-2.37-2.62.12-5.26.09-7.88,0a3.06,3.06,0,0,0-3.17,2.12c-.82,1.9-1.78,3.74-2.65,5.62a2.52,2.52,0,0,1-1.69,1.67c-1.14.27-1.9-.43-1.59-1.57a7.13,7.13,0,0,1,.51-1.13l11.55-24.36C391.6,224.35,391.73,223.75,392.63,223.77Zm.09,6.25c-2.4,2.95-3.49,6.11-4.89,9.46a48,48,0,0,0,9.37.06Z"/><path class="cls-2" d="M497.34,237.62c0-3.87.09-7.75,0-11.62-.07-2,.76-2.65,2.68-2.61,3.87.1,7.75,0,11.62,0,1.19,0,2.32.05,2.19,1.69-.11,1.47-1.27,1.17-2.19,1.18-2.9,0-5.81,0-8.71,0-.81,0-2-.2-2.22.68a18.29,18.29,0,0,0-.06,7.37c.14.81,1,.8,1.71.82,1.66,0,3.32,0,5,.08a1.15,1.15,0,0,1,1.24,1.3,1.18,1.18,0,0,1-1.26,1.3c-1.52,0-3,.13-4.56,0-1.84-.1-2.44.74-2.37,2.47.08,2.07.09,4.15,0,6.23-.08,1.75.56,2.51,2.37,2.46,2.9-.09,5.81,0,8.72,0,1.15,0,2.34,0,2.2,1.68-.13,1.42-1.28,1.23-2.21,1.23-3.87,0-7.75-.07-11.62.05-2.13.06-2.54-1-2.5-2.79C497.39,245.37,497.34,241.49,497.34,237.62Z"/><path class="cls-2" d="M611.42,224c2.38-1.15,3.41-.06,4.35,1.51,1.77,3,3.64,5.86,5.59,9,2.23-1.47,2.9-3.82,4.2-5.67.88-1.25,1.63-2.58,2.39-3.9s2-1.81,3.88-.89c-2.14,3.56-4.14,7.14-6.41,10.55a12.56,12.56,0,0,0-2.26,8.17c.17,2.48,0,5,0,7.48,0,.88-.23,1.65-1.32,1.74-1.35.11-1.62-.75-1.62-1.83,0-2.64-.14-5.27,0-7.89a11.35,11.35,0,0,0-2.07-7.39C615.83,231.3,613.7,227.63,611.42,224Z"/></g></g></svg>