<svg xmlns="http://www.w3.org/2000/svg" viewBox="0 0 213.87 253.28"><defs><style>.cls-1{fill:#8cc540;}.cls-2{fill:#fff;}</style></defs><g id="Layer_2" data-name="Layer 2"><g id="Layer_1-2" data-name="Layer 1"><path class="cls-1" d="M213.87,127.5A138.83,138.83,0,0,1,208,167.27a279.34,279.34,0,0,1-18.39,47.31,104.45,104.45,0,0,1-17.68,25.77c-5.47,5.72-11.78,10.14-19.63,12-7.26,1.75-14.32.8-21.27-1.65a99,99,0,0,1-9.89-4.51,46.53,46.53,0,0,0-14.32-4.47c-1-.14-.83-.62-.56-1.3A213.56,213.56,0,0,0,115,213.52a121,121,0,0,0,3.66-34,89.3,89.3,0,0,0-9.77-37.67c-1.53-2.95-1.38-4.24.8-6.7,10.3-11.65,16.57-25.26,19.56-40.44a121.69,121.69,0,0,0,2.19-24.39,21.25,21.25,0,0,1,.4-4.64,7.48,7.48,0,0,1,5.47-5.91A29.54,29.54,0,0,1,144,58.65,61.33,61.33,0,0,1,169.67,62q30,10.92,40.71,41.12a63.29,63.29,0,0,1,3.24,17.47C213.76,123,213.82,125.46,213.87,127.5Z"/><path class="cls-1" d="M32.06,228c-3.12-5.33-6.05-10.59-8.85-15.92A232.46,232.46,0,0,1,7.13,174.63a147.14,147.14,0,0,1-6.7-33.09,134,134,0,0,1,.49-26.41c.12-1,.47-1,1.22-.73a6,6,0,0,1,2.92,2A104.35,104.35,0,0,0,63.39,153.3c4.71,1.13,5.93,3.15,4.78,7.81a120.59,120.59,0,0,1-11.66,28.73,348.09,348.09,0,0,1-22.07,34.73C33.66,225.67,32.89,226.78,32.06,228Z"/><path class="cls-2" d="M40.81,65.79c-.46,2.2-1,4.24-1.27,6.32a44.7,44.7,0,0,0,5.2,28.66c4.15,7.63,9.69,13.85,17.6,17.69,6.14,3,12.51,4.07,19.09,1.56,7.26-2.77,11.34-8.39,13.5-15.59,3-10.13,1.65-19.87-2.78-29.31a82.19,82.19,0,0,0-6.64-11.35c14.78,6,29.27,6.39,43.78-.38a41.77,41.77,0,0,1-.89,9.47c-2.69,13.18-9.23,24.29-18.48,33.87a68.39,68.39,0,0,1-29,18.35,59.39,59.39,0,0,1-15.32,2.43c-14,.64-27.53-2-40.74-6.5-6.49-2.2-12.82-4.82-19.07-7.63C2.62,112,1.94,110.57,2.9,107.2A59.44,59.44,0,0,1,26.4,73.84,80.78,80.78,0,0,1,40.81,65.79Z"/><path class="cls-2" d="M91.07,175.12c1.24,3.48,2.25,6.75,3.17,10a285.74,285.74,0,0,1,6.69,31.94q1.25,7.74,2.75,15.43a17.58,17.58,0,0,1,.16,6.43,5,5,0,0,1-3.37,4.12c-2,.73-4,1-6,1.51a12.59,12.59,0,0,0-3.69,1.64,38.92,38.92,0,0,1-15.49,6.32,33.31,33.31,0,0,1-21.6-3.93c-8.5-4.59-14.88-11.41-20.07-19.45-.55-.84,0-.87.58-1.07A110.38,110.38,0,0,0,56.7,216.88c15.09-9.94,26.06-23.33,33.46-39.74Z"/><path class="cls-2" d="M145.94,0c-.33,3.12-.63,6.08-.95,9-.41,3.81-.83,7.62-1.29,11.42-.08.67.31.93.69,1.26l14.32,12.35a2.34,2.34,0,0,1,.88,1c-2.73.58-5.43,1.16-8.13,1.72-3.9.82-7.8,1.65-11.71,2.42-.73.14-1,.57-1.2,1.14q-3.7,8.88-7.43,17.75c-.1.24-.21.48-.4.91-.64-1.11-1.2-2.06-1.75-3-2.75-4.81-5.53-9.61-8.24-14.44a2,2,0,0,0-1.87-1.14c-6.41-.49-12.81-1-19.21-1.57-.15,0-.3,0-.66-.11,1.65-1.83,3.2-3.56,4.76-5.28q4.43-4.89,8.85-9.75a1.53,1.53,0,0,0,.42-1.59c-1.53-6.35-3-12.72-4.51-19.08,0-.19-.07-.38-.13-.73L118.81,7c2.65,1.19,5.32,2.36,8,3.6a1.79,1.79,0,0,0,2-.15q8.11-5,16.26-9.88C145.24.36,145.52.23,145.94,0Z"/></g></g></svg>