<svg xmlns="http://www.w3.org/2000/svg" viewBox="0 0 1920 290.98">
  <defs>
    <style>
      .cls-1 {
        fill: #1d75bb;
      }

      .cls-2 {
        fill: #39b54a;
      }
    </style>
  </defs>
  <g id="Layer_2" data-name="Layer 2">
    <g id="Layer_1-2" data-name="Layer 1">
      <rect class="cls-1" y="161.67" width="1920" height="129.31"/>
      <g>
        <ellipse class="cls-2" cx="1684.31" cy="53.46" rx="42.79" ry="53.95" transform="translate(30.54 377.17) rotate(-12.89)"/>
        <path class="cls-2" d="M1790.76,34.92s-5.5,34.94-14.67,54.27-39.61,55.89-39.61,55.89A261.19,261.19,0,0,0,1779.19,182c24.44,16.56,61.39,31.1,61.39,31.1s-30.43,7.72-59.84,1.94-60.63-25.81-60.63-25.81,5.91,27.25,12.29,45.84,20.18,53.35,20.18,53.35-41.45-31.93-61.16-65.74-22.9-71.33-22.9-71.33-31.43-13-51.53-32.5-37-49.18-37-49.18,78,51.64,117.79,43.42C1745.81,102.54,1790.76,34.92,1790.76,34.92Z"/>
        <path class="cls-2" d="M1790.76,34.92s-2.86,29.25-13.44,51.78-40.84,58.38-40.84,58.38"/>
      </g>
    </g>
  </g>
</svg>
