<svg xmlns="http://www.w3.org/2000/svg" viewBox="0 0 1920 361.46">
  <defs>
    <style>
      .cls-1 {
        fill: #1d75bb;
      }

      .cls-2 {
        fill: aqua;
      }

      .cls-3 {
        fill: #39b54a;
      }

      .cls-4 {
        fill: #f0f;
      }

      .cls-5 {
        fill: #d9e021;
      }
    </style>
  </defs>
  <g id="Layer_2" data-name="Layer 2">
    <g id="Layer_1-2" data-name="Layer 1">
      <rect class="cls-1" y="232.14" width="1920" height="129.31"/>
      <g>
        <ellipse class="cls-2" cx="1674.06" cy="131.88" rx="17.09" ry="21.55" transform="translate(12.78 376.86) rotate(-12.89)"/>
        <path class="cls-2" d="M1716.58,124.48s-2.19,14-5.86,21.68-15.82,22.32-15.82,22.32A104.35,104.35,0,0,0,1712,183.23c9.77,6.61,24.52,12.42,24.52,12.42s-12.15,3.09-23.9.78-24.22-10.31-24.22-10.31,2.36,10.88,4.91,18.31,8.06,21.31,8.06,21.31-16.56-12.76-24.43-26.26-9.14-28.49-9.14-28.49-12.56-5.2-20.59-13-14.78-19.65-14.78-19.65,31.17,20.63,47,17.34C1698.63,151.49,1716.58,124.48,1716.58,124.48Z"/>
        <path class="cls-2" d="M1716.58,124.48s-1.14,11.68-5.37,20.68-16.31,23.32-16.31,23.32"/>
      </g>
      <g>
        <ellipse class="cls-3" cx="1565.38" cy="53.46" rx="42.79" ry="53.95" transform="translate(27.54 350.63) rotate(-12.89)"/>
        <path class="cls-3" d="M1671.82,34.92s-5.5,34.94-14.66,54.27-39.61,55.89-39.61,55.89A261.19,261.19,0,0,0,1660.26,182c24.44,16.56,61.38,31.1,61.38,31.1s-30.43,7.72-59.83,1.94-60.64-25.81-60.64-25.81,5.92,27.25,12.3,45.84,20.17,53.35,20.17,53.35-41.45-31.93-61.15-65.74-22.9-71.33-22.9-71.33-31.44-13-51.53-32.5-37-49.18-37-49.18,78,51.64,117.78,43.42C1626.87,102.54,1671.82,34.92,1671.82,34.92Z"/>
        <path class="cls-3" d="M1671.82,34.92S1669,64.17,1658.38,86.7s-40.83,58.38-40.83,58.38"/>
      </g>
      <g>
        <ellipse class="cls-4" cx="1814.96" cy="115.02" rx="23.45" ry="29.57" transform="translate(20.09 407.87) rotate(-12.89)"/>
        <path class="cls-4" d="M1873.3,104.86s-3,19.15-8,29.75-21.71,30.62-21.71,30.62A143.32,143.32,0,0,0,1867,185.47c13.39,9.07,33.64,17,33.64,17s-16.67,4.23-32.79,1.07-33.23-14.15-33.23-14.15,3.24,14.93,6.74,25.12,11,29.24,11,29.24-22.71-17.5-33.51-36-12.55-39.09-12.55-39.09-17.22-7.14-28.24-17.81-20.28-27-20.28-27,42.77,28.3,64.55,23.79C1848.66,141.92,1873.3,104.86,1873.3,104.86Z"/>
        <path class="cls-4" d="M1873.3,104.86s-1.57,16-7.37,28.38-22.38,32-22.38,32"/>
      </g>
      <g>
        <ellipse class="cls-5" cx="1743.32" cy="168.14" rx="26.48" ry="33.39" transform="translate(6.44 393.23) rotate(-12.89)"/>
        <path class="cls-5" d="M1809.2,156.66s-3.4,21.62-9.08,33.59-24.51,34.59-24.51,34.59A161.5,161.5,0,0,0,1802,247.7c15.13,10.25,38,19.24,38,19.24s-18.84,4.78-37,1.21-37.53-16-37.53-16,3.66,16.87,7.61,28.37,12.49,33,12.49,33-25.66-19.77-37.85-40.7-14.18-44.14-14.18-44.14-19.45-8.06-31.89-20.12-22.91-30.44-22.91-30.44,48.3,32,72.9,26.87C1781.38,198.52,1809.2,156.66,1809.2,156.66Z"/>
        <path class="cls-5" d="M1809.2,156.66s-1.77,18.1-8.32,32.05-25.27,36.13-25.27,36.13"/>
      </g>
    </g>
  </g>
</svg>
