<?xml version="1.0" encoding="utf-8"?>
<!-- Generator: Adobe Illustrator 24.3.0, SVG Export Plug-In . SVG Version: 6.00 Build 0)  -->
<svg version="1.1" id="Layer_1" xmlns="http://www.w3.org/2000/svg" xmlns:xlink="http://www.w3.org/1999/xlink" x="0px" y="0px"
	 viewBox="0 0 1920 1080" style="enable-background:new 0 0 1920 1080;" xml:space="preserve">
<style type="text/css">
	.st0{fill:#39B54A;}
	.st1{fill:#1D75BB;}
	.st2{fill:#00FFFF;}
	.st3{fill:#FF00FF;}
	.st4{fill:#D9E021;}
</style>
<path class="st0" d="M-585.1,871.1c-26.7-7.2-46.2-29.4-54.7-58.2c-8.9,12.3-16,26.9-20.3,43.1c-15.5,57.8,9.1,114.5,54.9,126.8
	c45.8,12.3,95.5-24.6,111-82.3c6.5-24.1,5.9-48-0.2-68.6C-517.2,863.3-552.2,879.9-585.1,871.1z"/>
<g>
	<rect x="0" y="0" class="st1" width="1920" height="1049.8"/>
</g>
<g>
	<path class="st0" d="M-498.9,581.5c0,0-20.7-72.4-53.4-70.3c-32.7,2.2-94.3,85.7-11.9,188.2c-15.3-80.3-2-113.8,18-122.8
		c13.6-3.9,17.4,4.9,17.4,4.9H-498.9z"/>
</g>
<path class="st0" d="M-557.9,502.4c7.1-0.5,13.6,2.6,19.5,7.6c7.6-12,13.4-25.8,16.9-41c13.3-58.3-13.3-114.1-59.5-124.7
	c-46.2-10.6-94.5,28.1-107.9,86.4c-13.3,58.3,13.3,114.1,59.5,124.7c7.7,1.8,15.4,2.1,23.1,1.3C-596.8,524-573.9,503.4-557.9,502.4z
	"/>
<g>
	<path class="st0" d="M-664.8,581.5c0,0-20.7-72.4-53.4-70.3c-32.7,2.2-94.3,85.7-11.9,188.2c-15.3-80.3-2-113.8,18-122.8
		c13.6-3.9,17.4,4.9,17.4,4.9H-664.8z"/>
</g>
<g>
	
		<ellipse transform="matrix(0.9748 -0.2231 0.2231 0.9748 -159.2802 395.3717)" class="st2" cx="1670" cy="902.5" rx="17.1" ry="21.6"/>
	<path class="st2" d="M1712.5,895.1c0,0-2.2,14-5.9,21.7c-3.7,7.7-15.8,22.3-15.8,22.3s7.3,8.1,17.1,14.7
		c9.8,6.6,24.5,12.4,24.5,12.4s-12.2,3.1-23.9,0.8c-11.7-2.3-24.2-10.3-24.2-10.3s2.4,10.9,4.9,18.3c2.5,7.4,8.1,21.3,8.1,21.3
		s-16.6-12.8-24.4-26.3c-7.9-13.5-9.1-28.5-9.1-28.5s-12.6-5.2-20.6-13c-8-7.8-14.8-19.6-14.8-19.6s31.2,20.6,47,17.3
		C1694.5,922.1,1712.5,895.1,1712.5,895.1z"/>
	<path class="st2" d="M1712.5,895.1c0,0-1.1,11.7-5.4,20.7c-4.2,9-16.3,23.3-16.3,23.3"/>
</g>
<g>
	
		<ellipse transform="matrix(0.9748 -0.2231 0.2231 0.9748 -144.5211 369.1432)" class="st0" cx="1561.3" cy="824.1" rx="42.8" ry="53.9"/>
	<path class="st0" d="M1667.7,805.6c0,0-5.5,34.9-14.7,54.3c-9.2,19.3-39.6,55.9-39.6,55.9s18.3,20.4,42.7,36.9
		c24.4,16.6,61.4,31.1,61.4,31.1s-30.4,7.7-59.8,1.9s-60.6-25.8-60.6-25.8s5.9,27.3,12.3,45.8c6.4,18.6,20.2,53.4,20.2,53.4
		s-41.5-31.9-61.2-65.7c-19.7-33.8-22.9-71.3-22.9-71.3s-31.4-13-51.5-32.5s-37-49.2-37-49.2s78,51.6,117.8,43.4
		C1622.8,873.2,1667.7,805.6,1667.7,805.6z"/>
	<path class="st0" d="M1667.7,805.6c0,0-2.9,29.2-13.4,51.8c-10.6,22.5-40.8,58.4-40.8,58.4"/>
</g>
<g>
	
		<ellipse transform="matrix(0.9748 -0.2231 0.2231 0.9748 -151.9659 426.3861)" class="st3" cx="1810.9" cy="885.7" rx="23.4" ry="29.6"/>
	<path class="st3" d="M1869.2,875.5c0,0-3,19.1-8,29.7c-5,10.6-21.7,30.6-21.7,30.6s10,11.2,23.4,20.2c13.4,9.1,33.6,17,33.6,17
		s-16.7,4.2-32.8,1.1c-16.1-3.2-33.2-14.1-33.2-14.1s3.2,14.9,6.7,25.1s11.1,29.2,11.1,29.2s-22.7-17.5-33.5-36
		c-10.8-18.5-12.5-39.1-12.5-39.1s-17.2-7.1-28.2-17.8c-11-10.7-20.3-26.9-20.3-26.9s42.8,28.3,64.5,23.8
		C1844.6,912.6,1869.2,875.5,1869.2,875.5z"/>
	<path class="st3" d="M1869.2,875.5c0,0-1.6,16-7.4,28.4c-5.8,12.4-22.4,32-22.4,32"/>
</g>
<g>
	
		<ellipse transform="matrix(0.9748 -0.2231 0.2231 0.9748 -165.6231 411.738)" class="st4" cx="1739.2" cy="938.8" rx="26.5" ry="33.4"/>
	<path class="st4" d="M1805.1,927.3c0,0-3.4,21.6-9.1,33.6s-24.5,34.6-24.5,34.6s11.3,12.6,26.4,22.9c15.1,10.2,38,19.2,38,19.2
		s-18.8,4.8-37,1.2c-18.2-3.6-37.5-16-37.5-16s3.7,16.9,7.6,28.4c3.9,11.5,12.5,33,12.5,33s-25.7-19.8-37.9-40.7
		c-12.2-20.9-14.2-44.1-14.2-44.1s-19.5-8.1-31.9-20.1s-22.9-30.4-22.9-30.4s48.3,32,72.9,26.9
		C1777.3,969.2,1805.1,927.3,1805.1,927.3z"/>
	<path class="st4" d="M1805.1,927.3c0,0-1.8,18.1-8.3,32.1c-6.6,13.9-25.3,36.1-25.3,36.1"/>
</g>
</svg>
