<?xml version="1.0" encoding="utf-8"?>
<!-- Generator: Adobe Illustrator 24.3.0, SVG Export Plug-In . SVG Version: 6.00 Build 0)  -->
<svg version="1.1" id="Layer_1" xmlns="http://www.w3.org/2000/svg" xmlns:xlink="http://www.w3.org/1999/xlink" x="0px" y="0px"
	 viewBox="0 0 101 101" style="enable-background:new 0 0 101 101;" xml:space="preserve">
<style type="text/css">
	.st0{display:none;}
	.st1{display:inline;}
	.st2{fill:#0000FF;}
	.st3{fill:#0071BC;}
</style>
<image style="display:none;overflow:visible;" width="220" height="230" xlink:href="A8BA719A.jpg"  transform="matrix(1.2576 0 0 1.2202 -43.0952 -40.3231)">
</image>
<g class="st0">
	<g class="st1">
		<path class="st2" d="M100.4,93.2c1.9,0,1.9-3,0-3C98.5,90.2,98.5,93.2,100.4,93.2L100.4,93.2z"/>
	</g>
</g>
<g>
	<path class="st3" d="M58.3,69.3l-30.7-2.6L33,83.9c8.2,1.9,17.8,1.7,27.4-1c0.3-0.1,0.6-0.2,0.9-0.3c0.3-0.1,0.7-0.2,1-0.3
		c0.3-0.1,0.7-0.2,1-0.3c0.3-0.1,0.6-0.2,0.9-0.3c9.5-3.3,17.5-8.5,23.2-14.7l-5.3-17.1L58.3,69.3z"/>
	<path class="st3" d="M43.5,20.5L-0.2,56l13.6,1.1l24.3-19.9c1.2-1,2.8-1.1,4.1-0.4l0,0c2.3,1.3,2.6,4.5,0.6,6.1L24.1,58l31.9,2.7
		l43.7-35.5L43.5,20.5z"/>
	<g>
		<polygon class="st3" points="14,59 0.1,57.9 1.4,61.8 15.2,63 		"/>
		<polygon class="st3" points="56.3,62.6 22,59.7 23.2,63.6 57.5,66.5 101.2,31 100,27.1 		"/>
	</g>
	<path class="st3" d="M40.9,38.4c-0.7-0.4-1.5-0.3-2.1,0.2L15.1,58l1.2,3.9l24.8-20.4C42.2,40.7,42.1,39,40.9,38.4z"/>
	
		<rect x="16.8" y="57.2" transform="matrix(0.9556 -0.2948 0.2948 0.9556 -17.7677 8.4313)" class="st3" width="4.5" height="11.9"/>
	<polygon class="st3" points="35.9,97.2 30.7,100.7 24.5,100.5 17.3,69.9 24.4,67.8 	"/>
</g>
</svg>
