<?xml version="1.0" encoding="utf-8"?>
<!-- Generator: Adobe Illustrator 24.3.0, SVG Export Plug-In . SVG Version: 6.00 Build 0)  -->
<svg version="1.1" id="Layer_1" xmlns="http://www.w3.org/2000/svg" xmlns:xlink="http://www.w3.org/1999/xlink" x="0px" y="0px"
	 viewBox="0 0 101 101" style="enable-background:new 0 0 101 101;" xml:space="preserve">
<style type="text/css">
	.st0{display:none;}
	.st1{display:inline;}
	.st2{fill:#0000FF;}
	.st3{fill:#0071BC;}
	.st4{opacity:0.7;fill:#0071BC;}
	.st5{fill:#8CC63F;}
	.st6{opacity:5.000000e-02;fill:#1D75BB;}
	.st7{fill:#1D75BB;}
	.st8{fill:url(#SVGID_1_);}
	.st9{fill:url(#SVGID_2_);}
	.st10{fill:url(#SVGID_3_);}
	.st11{fill:url(#SVGID_4_);}
	.st12{fill:url(#SVGID_5_);}
	.st13{fill:url(#SVGID_6_);}
	.st14{fill:url(#SVGID_7_);}
	.st15{fill:url(#SVGID_8_);}
	.st16{fill:url(#SVGID_9_);}
	.st17{fill:url(#SVGID_10_);}
	.st18{fill:url(#SVGID_11_);}
	.st19{fill:url(#SVGID_12_);}
	.st20{fill:url(#SVGID_13_);}
</style>
<image style="display:none;overflow:visible;" width="320" height="320" xlink:href="A8BA719C.jpg"  transform="matrix(0.2797 0 0 0.2797 4.5021 4.58)">
</image>
<image style="display:none;overflow:visible;" width="210" height="240" xlink:href="A8BA719D.jpg"  transform="matrix(0.7433 0 0 0.7489 -27.5484 -10.5149)">
</image>
<image style="display:none;overflow:visible;" width="220" height="230" xlink:href="A8BA719B.jpg"  transform="matrix(1.2576 0 0 1.2202 -43.0952 -40.3231)">
</image>
<image style="display:none;overflow:visible;opacity:0.54;" width="2551" height="2550" xlink:href="F:\Downloads\Kinder_Mission_Foundation_Web-03.jpg"  transform="matrix(0.1104 0 0 0.1104 -21.2287 -97.7534)">
</image>
<g class="st0">
	<g class="st1">
		<path class="st2" d="M100.4,93.2c1.9,0,1.9-3,0-3C98.5,90.2,98.5,93.2,100.4,93.2L100.4,93.2z"/>
	</g>
</g>
<path class="st3" d="M-33.2-77.9c0-14.4-11.7-26-26-26c-7.6,0-14.5,3.3-19.3,8.5c-4.8-5.2-11.6-8.5-19.3-8.5c-14.4,0-26,11.7-26,26
	c0,10.8,6.5,20,15.9,24l0,0c0,0,0,0,0,0c1.1,0.5,2.3,0.9,3.4,1.2c5.9,2.3,18,8.6,26,22.5c8-13.9,20.1-20.1,26-22.5
	c1.2-0.3,2.3-0.7,3.4-1.2c0,0,0,0,0,0l0,0C-39.8-57.9-33.2-67.1-33.2-77.9z M-62-64.8h-11.9v11.9h-9.2v-11.9h-11.9V-74h11.9v-11.9
	h9.2V-74H-62V-64.8z"/>
<path class="st4" d="M561.3-347.6c0-16.8-13.7-30.5-30.5-30.5c-8.9,0-17,3.9-22.6,10c-5.6-6.1-13.6-10-22.6-10
	c-16.8,0-30.5,13.7-30.5,30.5c0,12.6,7.7,23.4,18.6,28.1l0,0c0,0,0,0,0,0c1.3,0.6,2.6,1,4,1.4c6.9,2.7,21.1,10,30.4,26.3
	c9.4-16.3,23.6-23.6,30.4-26.3c1.4-0.4,2.7-0.8,4-1.4c0,0,0,0,0,0l0,0C553.6-324.2,561.3-335,561.3-347.6z M508.2-326.3l-0.9,0.2
	c0.3-0.3,0.6-0.6,0.9-0.9c0.3,0.3,0.6,0.6,0.9,0.9L508.2-326.3z"/>
<path class="st4" d="M-314.6,172.4c0-16.8-13.7-30.5-30.5-30.5c-8.9,0-17,3.9-22.6,10c-5.6-6.1-13.6-10-22.6-10
	c-16.8,0-30.5,13.7-30.5,30.5c0,12.6,7.7,23.4,18.6,28.1l0,0c0,0,0,0,0,0c1.3,0.6,2.6,1,4,1.4c6.9,2.7,21.1,10,30.4,26.3
	c9.4-16.3,23.6-23.6,30.4-26.3c1.4-0.4,2.7-0.8,4-1.4c0,0,0,0,0,0l0,0C-322.3,195.9-314.6,185.1-314.6,172.4z"/>
<g>
	<path class="st3" d="M562-244.9c-0.3-0.3-0.5-0.5-0.7-0.8c-0.2,0.3-0.5,0.5-0.7,0.8l0.7-0.1L562-244.9z"/>
	<path class="st3" d="M614.3-264.8c0-16.8-13.7-30.5-30.5-30.5c-8.9,0-17,3.9-22.6,10c-5.6-6.1-13.6-10-22.6-10
		c-16.8,0-30.5,13.7-30.5,30.5c0,12.6,7.7,23.4,18.6,28.1l0,0c0,0,0,0,0,0c1.3,0.6,2.6,1,4,1.4c6.9,2.7,21.1,10,30.4,26.3
		c9.4-16.3,23.6-23.6,30.4-26.3c1.4-0.4,2.7-0.8,4-1.4c0,0,0,0,0,0l0,0C606.7-241.3,614.3-252.1,614.3-264.8z M589.6-239.4
		L589.6-239.4C589.6-239.4,589.6-239.4,589.6-239.4c-1.1,0.5-2.2,0.8-3.3,1.1c-5.7,2.2-17.3,8.2-25,21.6
		c-7.7-13.4-19.4-19.4-25-21.6c-1.1-0.3-2.2-0.7-3.3-1.1c0,0,0,0,0,0l0,0c-9-3.8-15.3-12.7-15.3-23.1c0-13.8,11.2-25.1,25.1-25.1
		c7.4,0,14,3.2,18.6,8.2c4.6-5,11.2-8.2,18.6-8.2c13.8,0,25.1,11.2,25.1,25.1C604.9-252.1,598.6-243.2,589.6-239.4z"/>
</g>
<g>
	<path class="st5" d="M-153.4-51.4c2.3-6.6-1.2-13.8-7.8-16.1c-3.5-1.2-7.2-0.8-10.2,0.8c-1.4-3.2-4-5.8-7.5-7
		c-6.6-2.3-13.8,1.2-16.1,7.8c-1.7,5-0.2,10.2,3.5,13.6l0,0c0,0,0,0,0,0c0.4,0.4,0.9,0.8,1.4,1.1c2.3,2,6.9,6.8,8.4,14.5
		c5.9-5.1,12.5-6.1,15.5-6.2c0.6,0,1.2,0,1.8,0c0,0,0,0,0,0l0,0C-159.6-43.2-155.2-46.4-153.4-51.4z M-166.6-44.8L-166.6-44.8
		C-166.6-44.8-166.6-44.8-166.6-44.8c-0.5,0-1,0-1.5,0c-2.5,0.1-7.9,0.9-12.8,5.1c-1.2-6.3-5-10.3-6.9-11.9
		c-0.4-0.3-0.8-0.6-1.1-0.9c0,0,0,0,0,0l0,0c-3-2.7-4.3-7.1-2.9-11.1c1.9-5.4,7.8-8.3,13.3-6.4c2.9,1,5.1,3.1,6.2,5.7
		c2.5-1.4,5.5-1.7,8.4-0.7c5.4,1.9,8.3,7.8,6.4,13.3C-158.9-47.7-162.6-45.1-166.6-44.8z"/>
</g>
<g>
	<path class="st3" d="M-361.5,77.7c-0.3-0.3-0.5-0.5-0.7-0.8c-0.2,0.3-0.5,0.5-0.7,0.8l0.7-0.1L-361.5,77.7z"/>
	<path class="st3" d="M-309.1,57.8c0-16.8-13.7-30.5-30.5-30.5c-8.9,0-17,3.9-22.6,10c-5.6-6.1-13.6-10-22.6-10
		c-16.8,0-30.5,13.7-30.5,30.5c0,12.6,7.7,23.4,18.6,28.1l0,0c0,0,0,0,0,0c1.3,0.6,2.6,1,4,1.4c6.9,2.7,21.1,10,30.4,26.3
		c9.4-16.3,23.6-23.6,30.4-26.3c1.4-0.4,2.7-0.8,4-1.4c0,0,0,0,0,0l0,0C-316.8,81.3-309.1,70.4-309.1,57.8z M-333.9,83.2
		L-333.9,83.2C-333.9,83.2-333.9,83.2-333.9,83.2c-1.1,0.5-2.2,0.8-3.3,1.1c-5.7,2.2-17.3,8.2-25,21.6c-7.7-13.4-19.4-19.4-25-21.6
		c-1.1-0.3-2.2-0.7-3.3-1.1c0,0,0,0,0,0l0,0c-9-3.8-15.3-12.7-15.3-23.1c0-13.8,11.2-25.1,25.1-25.1c7.4,0,14,3.2,18.6,8.2
		c4.6-5,11.2-8.2,18.6-8.2c13.8,0,25.1,11.2,25.1,25.1C-318.6,70.4-324.9,79.3-333.9,83.2z"/>
</g>
<path class="st3" d="M-282.5-61.5c0,0,4.3,31.5,8.1,37.1S-256-9.7-256-9.7l-0.2-4.8c0,0-14.1-10.3-15.9-17.6s3.1-9.7,3.1-9.7
	s16.6,14.3,20.9,18.6c22.5,20.5,15.5,34.8,8.5,52.4c-0.8-8-7.7-10.6-18.2-15.2c-42.6-24-31.5-82.3-31.5-82.3L-282.5-61.5z"/>
<polygon class="st3" points="600.6,-358.2 588.7,-358.2 588.7,-370.1 579.5,-370.1 579.5,-358.2 567.5,-358.2 567.5,-348.9 
	579.5,-348.9 579.5,-337 588.7,-337 588.7,-348.9 600.6,-348.9 "/>
<g>
	<path class="st3" d="M502.2-154.1c-6.3-1-2.5,15.6,2.8,19.2c15.1,9.9,13,15.9-0.8,11.2c-1.1-0.3-2.2-0.7-3.3-1.1c0,0,0,0,0,0l0,0
		c-9-3.8-15.3-12.7-15.3-23.1c0-4,0.9-7.7,2.6-11.1c-1.7-4.1-2.6-8.5-2.7-13.1c-5.7,5.5-9.3,13.3-9.3,21.9
		c0,12.6,7.7,23.4,18.6,28.1l0,0c0,0,0,0,0,0c1.3,0.6,2.6,1,4,1.4c6.9,2.7,21.1,10,30.4,26.3c4.5-7.8,3.6-7.8,9-11.9
		c-0.6-0.9,0.4-12-10.2-23.4C520.7-137.7,508.8-152.5,502.2-154.1z"/>
</g>
<g>
	<path class="st5" d="M163,30.1L150.4,29l2.2,7c3.4,0.8,7.3,0.7,11.3-0.4c0.1,0,0.3-0.1,0.4-0.1c0.1,0,0.3-0.1,0.4-0.1
		c0.1,0,0.3-0.1,0.4-0.1c0.1,0,0.3-0.1,0.4-0.1c3.9-1.3,7.2-3.5,9.5-6l-2.2-7L163,30.1z"/>
	<path class="st5" d="M156.9,10.1L139,24.6l5.6,0.5l10-8.2c0.5-0.4,1.2-0.5,1.7-0.2l0,0c0.9,0.5,1.1,1.8,0.2,2.5l-7.5,6.2l13.1,1.1
		L180,12L156.9,10.1z"/>
	<g>
		<polygon class="st5" points="144.8,25.9 139.1,25.4 139.6,27 145.3,27.5 		"/>
		<polygon class="st5" points="162.1,27.3 148.1,26.2 148.6,27.8 162.6,29 180.6,14.4 180.1,12.8 		"/>
	</g>
	<path class="st5" d="M155.8,17.4c-0.3-0.2-0.6-0.1-0.9,0.1l-9.7,8l0.5,1.6l10.2-8.4C156.4,18.3,156.3,17.7,155.8,17.4z"/>
	<rect x="146" y="25.1" transform="matrix(0.9556 -0.2948 0.2948 0.9556 -1.6009 44.5223)" class="st5" width="1.8" height="4.9"/>
	<polygon class="st5" points="153.8,41.5 151.6,43 149.1,42.9 146.2,30.4 149.1,29.5 	"/>
</g>
<g>
	
		<ellipse transform="matrix(0.1587 -0.9873 0.9873 0.1587 -109.2518 -22.7838)" class="st3" cx="-68" cy="52.7" rx="13.3" ry="9.7"/>
	<path class="st3" d="M-92,48.1c0,0,1.2,8.7,3.3,13.5c2.1,4.8,8.9,13.9,8.9,13.9s-4.1,5.1-9.6,9.2c-5.5,4.1-13.9,7.7-13.9,7.7
		s6.9,1.9,13.5,0.5s13.7-6.4,13.7-6.4s-1.3,6.8-2.8,11.4c-1.4,4.6-4.6,13.2-4.6,13.2s9.4-7.9,13.8-16.3c4.5-8.4,5.2-17.7,5.2-17.7
		s7.1-3.2,11.6-8.1c4.5-4.8,8.4-12.2,8.4-12.2S-62.1,69.6-71,67.5C-81.9,64.9-92,48.1-92,48.1z"/>
	<path class="st3" d="M-92,48.1c0,0,0.6,7.3,3,12.9c2.4,5.6,9.2,14.5,9.2,14.5"/>
</g>
<g>
	
		<ellipse transform="matrix(0.1587 -0.9873 0.9873 0.1587 173.9423 297.1474)" class="st5" cx="261.3" cy="46.5" rx="14.6" ry="10.6"/>
	<path class="st5" d="M235,41.5c0,0,1.4,9.5,3.6,14.7s9.8,15.2,9.8,15.2s-4.5,5.5-10.6,10c-6,4.5-15.2,8.4-15.2,8.4
		s7.5,2.1,14.8,0.5c7.3-1.6,15-7,15-7s-1.5,7.4-3,12.5c-1.6,5-5,14.5-5,14.5s10.3-8.7,15.1-17.9c4.9-9.2,5.7-19.4,5.7-19.4
		s7.8-3.5,12.7-8.8s9.2-13.4,9.2-13.4s-19.3,14-29.1,11.8C246.1,59.8,235,41.5,235,41.5z"/>
	<path class="st5" d="M235,41.5c0,0,0.7,7.9,3.3,14.1s10.1,15.9,10.1,15.9"/>
</g>
<g>
	
		<ellipse transform="matrix(0.1587 -0.9873 0.9873 0.1587 -8.1604 280.7378)" class="st3" cx="160.6" cy="145.2" rx="14.6" ry="10.6"/>
	<path class="st3" d="M134.3,140.1c0,0,1.4,9.5,3.6,14.7c2.3,5.3,9.8,15.2,9.8,15.2s-4.5,5.5-10.6,10s-15.2,8.4-15.2,8.4
		s7.5,2.1,14.8,0.5c7.3-1.6,15-7,15-7s-1.5,7.4-3,12.5c-1.6,5-5,14.5-5,14.5s10.3-8.7,15.1-17.9c4.9-9.2,5.7-19.4,5.7-19.4
		s7.8-3.5,12.7-8.8c5-5.3,9.2-13.4,9.2-13.4s-19.3,14-29.1,11.8C145.4,158.5,134.3,140.1,134.3,140.1z"/>
	<path class="st3" d="M134.3,140.1c0,0,0.7,7.9,3.3,14.1c2.6,6.1,10.1,15.9,10.1,15.9"/>
</g>
<g>
	
		<ellipse transform="matrix(0.9876 -0.1571 0.1571 0.9876 -22.7071 -17.7551)" class="st3" cx="-123.7" cy="134.8" rx="11.8" ry="14.9"/>
	<path class="st3" d="M-94.1,131.7c0,0-2.2,9.5-5,14.6s-11.9,14.6-11.9,14.6s4.6,5.9,11,10.9c6.4,5,16.3,9.7,16.3,9.7
		s-8.5,1.6-16.5-0.6s-16.2-8.2-16.2-8.2s1.1,7.6,2.5,12.8c1.4,5.2,4.6,15,4.6,15s-10.8-9.5-15.6-19.2c-4.8-9.7-5-20-5-20
		s-8.4-4.2-13.6-9.9c-5.2-5.7-9.3-14.2-9.3-14.2s20.5,15.6,31.5,14.1C-107.7,149.4-94.1,131.7-94.1,131.7z"/>
	<path class="st3" d="M-94.1,131.7c0,0-1.3,8-4.7,14c-3.3,6-12.3,15.3-12.3,15.3"/>
</g>
<g>
	
		<ellipse transform="matrix(0.9876 -0.1571 0.1571 0.9876 -20.4386 -33.9548)" class="st3" cx="-225" cy="112.3" rx="11.8" ry="14.9"/>
	<path class="st3" d="M-195.5,109.2c0,0-2.2,9.5-5,14.6c-2.9,5.1-11.9,14.6-11.9,14.6s4.6,5.9,11,10.9s16.3,9.7,16.3,9.7
		s-8.5,1.6-16.5-0.6c-8-2.1-16.2-8.2-16.2-8.2s1.1,7.6,2.5,12.8c1.4,5.2,4.6,15,4.6,15s-10.8-9.5-15.6-19.2c-4.8-9.7-5-20-5-20
		s-8.4-4.2-13.6-9.9c-5.2-5.7-9.3-14.2-9.3-14.2s20.5,15.6,31.5,14.1C-209.1,126.9-195.5,109.2-195.5,109.2z"/>
	<path class="st3" d="M-195.5,109.2c0,0-1.3,8-4.7,14c-3.3,6-12.3,15.3-12.3,15.3"/>
</g>
<g>
	<path class="st3" d="M19.1-108.9c0,0,1,10.1,4.7,17.9s14.1,20.2,14.1,20.2"/>
	<g>
		
			<ellipse transform="matrix(0.2231 -0.9748 0.9748 0.2231 143.3019 -25.0568)" class="st3" cx="55.9" cy="-102.4" rx="18.7" ry="14.8"/>
		<path class="st3" d="M51.3-81.8c-16.6-3.7-32.2-27.1-32.2-27.1s1.9,12.1,5.1,18.8c3.2,6.7,13.7,19.4,13.7,19.4s-6.3,7.1-14.8,12.8
			C14.6-52.2,1.8-47.1,1.8-47.1s10.5,2.7,20.7,0.7s21-8.9,21-8.9s-2,9.4-4.3,15.9s-7,18.5-7,18.5s14.4-11.1,21.2-22.8
			c6.8-11.7,7.9-24.7,7.9-24.7S72.3-73,79.2-79.8c7-6.7,12.8-17,12.8-17S65-78.9,51.3-81.8z M56-68.2l-4.7-0.6l-0.6,4.7l-3.6-0.4
			l0.6-4.7l-4.7-0.6l0.4-3.6l4.7,0.6l0.6-4.7l3.6,0.4l-0.6,4.7l4.7,0.6L56-68.2z"/>
	</g>
</g>
<polygon class="st3" points="142.3,-59.8 131.1,-59.8 131.1,-71 122.5,-71 122.5,-59.8 111.3,-59.8 111.3,-51.3 122.5,-51.3 
	122.5,-40 131.1,-40 131.1,-51.3 142.3,-51.3 "/>
<path class="st5" d="M-192.9,23.4l2.6,4.7l-0.1,0c-2.6,1.5-3.6,4.8-2.1,7.5l3.3,5.8c1.5,2.6,4.8,3.6,7.5,2.1l0.1,0l2.6,4.7
	c1.5,2.6,4.8,3.6,7.5,2.1l13.8-7.8c2.6-1.5,3.6-4.8,2.1-7.5l-14-24.8c-1.5-2.6-4.8-3.6-7.5-2.1l-13.8,7.8
	C-193.5,17.4-194.4,20.7-192.9,23.4z M-182.9,41.4c-1.5,0.8-3.3,0.3-4.1-1.2l-3.3-5.8c-0.8-1.5-0.3-3.3,1.2-4.1l0.1,0L-182.9,41.4
	L-182.9,41.4z M-175.9,10.3c1.5-0.8,3.3-0.3,4.1,1.2l14,24.8c0.8,1.5,0.3,3.3-1.2,4.1l-13.8,7.8c-1.5,0.8-3.3,0.3-4.1-1.2l-2.6-4.7
	l-8.7-15.4l-2.6-4.7c-0.8-1.5-0.3-3.3,1.2-4.1L-175.9,10.3z"/>
<g>
	<path class="st5" d="M309.4,35.1c2-4.3,0.1-9.4-4.2-11.3c-4.3-2-9.4-0.1-11.3,4.2c-0.9,2-1,4.3-0.3,6.2c0.2,0.9,0.5,2.1,0.3,3.2
		c-0.1,0.4-0.2,0.9-1.2,3.2c-0.3,0.7,0,1.6,0.7,1.9l5.5,2.5c0.7,0.3,1.6,0,1.9-0.7c1.1-2.3,1.3-2.6,1.6-3c0.7-0.8,1.8-1.3,2.6-1.8
		C306.8,38.7,308.5,37.2,309.4,35.1z"/>
	<path class="st5" d="M297.6,47.7l-5.5-2.5c-0.5-0.2-0.7-0.8-0.5-1.3l0,0c0.2-0.5,0.8-0.7,1.3-0.5l5.5,2.5c0.5,0.2,0.7,0.8,0.5,1.3
		v0C298.7,47.7,298.1,47.9,297.6,47.7z"/>
	<path class="st5" d="M296,50.2l-4.7-2.1c-0.5-0.2-0.7-0.8-0.5-1.3v0c0.2-0.5,0.8-0.7,1.3-0.5l4.7,2.1c0.5,0.2,0.7,0.8,0.5,1.3l0,0
		C297.1,50.2,296.5,50.4,296,50.2z"/>
	<path class="st5" d="M309.7,16.2l-2.1,4.7c-0.2,0.5-0.8,0.7-1.3,0.5l0,0c-0.5-0.2-0.7-0.8-0.5-1.3l2.1-4.7c0.2-0.5,0.8-0.7,1.3-0.5
		v0C309.7,15.1,309.9,15.7,309.7,16.2z"/>
	<path class="st5" d="M319.1,26l-4.8,1.8c-0.5,0.2-1.1-0.1-1.3-0.6v0c-0.2-0.5,0.1-1.1,0.6-1.3l4.8-1.8c0.5-0.2,1.1,0.1,1.3,0.6v0
		C319.9,25.2,319.7,25.8,319.1,26z"/>
	<path class="st5" d="M295.8,19.3l-1.8-4.8c-0.2-0.5,0.1-1.1,0.6-1.3l0,0c0.5-0.2,1.1,0.1,1.3,0.6l1.8,4.8c0.2,0.5-0.1,1.1-0.6,1.3
		v0C296.5,20.1,296,19.9,295.8,19.3z"/>
	<path class="st5" d="M317.3,38.7l-4.7-2.1c-0.5-0.2-0.7-0.8-0.5-1.3v0c0.2-0.5,0.8-0.7,1.3-0.5l4.7,2.1c0.5,0.2,0.7,0.8,0.5,1.3
		l0,0C318.4,38.7,317.8,38.9,317.3,38.7z"/>
	<path class="st5" d="M290.8,26.7l-4.7-2.1c-0.5-0.2-0.7-0.8-0.5-1.3v0c0.2-0.5,0.8-0.7,1.3-0.5l4.7,2.1c0.5,0.2,0.7,0.8,0.5,1.3v0
		C291.9,26.7,291.3,26.9,290.8,26.7z"/>
</g>
<path class="st5" d="M86.1,25.9l10.8-4.8l-15.4-9.4L67.7,34.1l12.6-5.6c-1.7,7.3-4.7,14.8-9.1,21.9c-15.3,25-41.6,36.8-58.7,26.3
	c-3.8-2.4-6.9-5.6-9.1-9.6c0.8,11.1,5.4,20.5,13.6,25.6c17.1,10.5,43.3-1.3,58.7-26.3C84.1,52.8,87.5,38.2,86.1,25.9z"/>
<path class="st6" d="M-517.9,672.7c-29.5,0-57.1,1.3-80.4,3.5c0.1-0.3,0.1-0.6,0.1-0.9c0-9.1-47.8-16.4-106.8-16.4
	c-59,0-106.8,7.4-106.8,16.4s47.8,16.4,106.8,16.4c13.6,0,26.7-0.4,38.7-1.1c-2.8,1.8-4.2,3.6-4.2,5.5c0,13,68.3,23.5,152.6,23.5
	s152.6-10.5,152.6-23.5C-365.3,683.2-433.6,672.7-517.9,672.7z"/>
<g>
	<path class="st7" d="M38.9,37.2c0,0-1.2,8.2-0.6,13.1c0.6,4.9,4.5,15,4.5,15s-5.1,3.5-11.2,5.8c-6.1,2.3-14.7,3.4-14.7,3.4
		s5.8,3.6,12.2,4c6.4,0.5,14.2-2.2,14.2-2.2s-3,5.8-5.5,9.6S30,96.8,30,96.8S40.7,92,46.9,85.6c6.3-6.5,9.4-14.8,9.4-14.8
		s7.3-1.1,12.7-4.3c5.4-3.2,10.8-8.9,10.8-8.9s-19.5,7-27.1,2.8C43.7,55.1,38.9,37.2,38.9,37.2z"/>
	<g>
		<g>
			<path class="st7" d="M63.9,37.6l-5.7-5.9l-1.9,4.4c1.3,1.8,3.3,3.4,5.7,4.6c0.1,0,0.2,0.1,0.2,0.1c0.1,0,0.2,0.1,0.3,0.1
				c0.1,0,0.2,0.1,0.3,0.1c0.1,0,0.2,0.1,0.2,0.1c2.5,1,5,1.3,7.2,1.1l1.9-4.4L63.9,37.6z"/>
			<path class="st7" d="M69.4,25.2l-15-0.5l2.6,2.6l8.4,0.2c0.4,0,0.8,0.3,0.9,0.6l0,0c0.2,0.7-0.3,1.4-1,1.3L59,29.4l6,6.1l15,0.5
				L69.4,25.2z"/>
		</g>
		<g>
			<polygon class="st7" points="56.8,27.8 54.2,25.2 53.7,26.2 56.3,28.8 			"/>
			<polygon class="st7" points="64.7,35.9 58.2,29.3 57.8,30.3 64.2,36.9 79.2,37.4 79.7,36.4 			"/>
		</g>
		<path class="st7" d="M65.8,28.3c-0.1-0.2-0.3-0.3-0.5-0.3l-8.1-0.2l-0.4,1l8.6,0.2C65.7,29,65.9,28.7,65.8,28.3z"/>
		
			<rect x="56.5" y="27.9" transform="matrix(0.9155 0.4023 -0.4023 0.9155 16.7042 -20.4638)" class="st7" width="1.2" height="3.2"/>
		<polygon class="st7" points="54.5,39.3 52.9,39.1 51.6,38 55.5,30.6 57.3,31.4 		"/>
	</g>
	<path class="st7" d="M69.4,43.4c-2.1,0.2-4.5-0.2-6.8-1.1c-0.1,0-0.2-0.1-0.2-0.1c-0.1,0-0.2-0.1-0.3-0.1c-0.1,0-0.2-0.1-0.3-0.1
		c-0.1,0-0.2-0.1-0.2-0.1c-2.2-1.1-4-2.5-5.4-4.1c-1.8,1.3-3.4,3.1-4.6,5.4c-3.3,6.2-2.4,13.3,2,15.8c4.4,2.6,10.6-0.3,13.9-6.5
		C69.1,49.4,69.7,46.2,69.4,43.4z"/>
</g>
<linearGradient id="SVGID_1_" gradientUnits="userSpaceOnUse" x1="45.8534" y1="13.0183" x2="48.0192" y2="10.8525">
	<stop  offset="0" style="stop-color:#1D75BB"/>
	<stop  offset="0.1807" style="stop-color:#2C80AB"/>
	<stop  offset="0.5365" style="stop-color:#529C80"/>
	<stop  offset="1" style="stop-color:#8CC63F"/>
</linearGradient>
<path class="st8" d="M48.4,11.4h-1v-1c0-0.3-0.2-0.5-0.5-0.5h0c-0.3,0-0.5,0.2-0.5,0.5v1h-1c-0.3,0-0.5,0.2-0.5,0.5v0
	c0,0.3,0.2,0.5,0.5,0.5h1v1c0,0.3,0.2,0.5,0.5,0.5h0c0.3,0,0.5-0.2,0.5-0.5v-1h1c0.3,0,0.5-0.2,0.5-0.5v0
	C48.9,11.7,48.7,11.4,48.4,11.4z"/>
<linearGradient id="SVGID_2_" gradientUnits="userSpaceOnUse" x1="27.3449" y1="13.0188" x2="30.1112" y2="10.2524">
	<stop  offset="0" style="stop-color:#1D75BB"/>
	<stop  offset="0.1807" style="stop-color:#2C80AB"/>
	<stop  offset="0.5365" style="stop-color:#529C80"/>
	<stop  offset="1" style="stop-color:#8CC63F"/>
</linearGradient>
<path class="st9" d="M30.1,10.3L30.1,10.3c-0.2-0.2-0.5-0.2-0.7,0L28.7,11L28,10.2c-0.2-0.2-0.5-0.2-0.7,0l0,0
	c-0.2,0.2-0.2,0.5,0,0.7l0.7,0.7l-0.7,0.7c-0.2,0.2-0.2,0.5,0,0.7l0,0c0.2,0.2,0.5,0.2,0.7,0l0.7-0.7l0.7,0.7c0.2,0.2,0.5,0.2,0.7,0
	l0,0c0.2-0.2,0.2-0.5,0-0.7l-0.7-0.7l0.7-0.7C30.3,10.8,30.3,10.5,30.1,10.3z"/>
<linearGradient id="SVGID_3_" gradientUnits="userSpaceOnUse" x1="20.0075" y1="27.6494" x2="22.1733" y2="25.4836">
	<stop  offset="0" style="stop-color:#1D75BB"/>
	<stop  offset="0.1807" style="stop-color:#2C80AB"/>
	<stop  offset="0.5365" style="stop-color:#529C80"/>
	<stop  offset="1" style="stop-color:#8CC63F"/>
</linearGradient>
<path class="st10" d="M19.6,27.1h3c0.3,0,0.5-0.2,0.5-0.5v0c0-0.3-0.2-0.5-0.5-0.5h-3c-0.3,0-0.5,0.2-0.5,0.5v0
	C19.1,26.8,19.3,27.1,19.6,27.1z"/>
<g>
	<linearGradient id="SVGID_4_" gradientUnits="userSpaceOnUse" x1="29.187" y1="24.129" x2="31.3528" y2="21.9632">
		<stop  offset="0" style="stop-color:#1D75BB"/>
		<stop  offset="0.1807" style="stop-color:#2C80AB"/>
		<stop  offset="0.5365" style="stop-color:#529C80"/>
		<stop  offset="1" style="stop-color:#8CC63F"/>
	</linearGradient>
	<path class="st11" d="M28.8,23.5h3c0.3,0,0.5-0.2,0.5-0.5v0c0-0.3-0.2-0.5-0.5-0.5h-3c-0.3,0-0.5,0.2-0.5,0.5v0
		C28.3,23.3,28.5,23.5,28.8,23.5z"/>
	<linearGradient id="SVGID_5_" gradientUnits="userSpaceOnUse" x1="29.8726" y1="21.9073" x2="30.6671" y2="21.1127">
		<stop  offset="0" style="stop-color:#1D75BB"/>
		<stop  offset="0.1807" style="stop-color:#2C80AB"/>
		<stop  offset="0.5365" style="stop-color:#529C80"/>
		<stop  offset="1" style="stop-color:#8CC63F"/>
	</linearGradient>
	<circle class="st12" cx="30.3" cy="21.5" r="0.6"/>
	<linearGradient id="SVGID_6_" gradientUnits="userSpaceOnUse" x1="29.8726" y1="24.9795" x2="30.6671" y2="24.185">
		<stop  offset="0" style="stop-color:#1D75BB"/>
		<stop  offset="0.1807" style="stop-color:#2C80AB"/>
		<stop  offset="0.5365" style="stop-color:#529C80"/>
		<stop  offset="1" style="stop-color:#8CC63F"/>
	</linearGradient>
	<circle class="st13" cx="30.3" cy="24.6" r="0.6"/>
</g>
<linearGradient id="SVGID_7_" gradientUnits="userSpaceOnUse" x1="8.7861" y1="20.9127" x2="16.4901" y2="13.2087" gradientTransform="matrix(0.7659 0.6429 -0.6429 0.7659 13.1026 -5.2361)">
	<stop  offset="0" style="stop-color:#1D75BB"/>
	<stop  offset="0.1807" style="stop-color:#2C80AB"/>
	<stop  offset="0.5365" style="stop-color:#529C80"/>
	<stop  offset="1" style="stop-color:#8CC63F"/>
</linearGradient>
<path class="st14" d="M16,17.8c-0.3-0.3-0.8-0.4-1.2-0.5l0,0l1.8-2.2l-1.3-1.1l0.1-0.1c0.4-0.1,0.8-0.3,1.1-0.7
	c0.7-0.8,0.6-2-0.2-2.7c-0.8-0.7-2-0.6-2.7,0.2c-0.3,0.3-0.4,0.8-0.5,1.2L13,12.1l-0.3-0.3c-0.9-0.8-2.3-0.6-3,0.3l-3.3,3.9l2.3,2
	l0.9-1l0-0.2c0-0.3,0.1-0.5,0.2-0.7c0.4-0.4,1-0.5,1.4-0.1c0.4,0.4,0.5,1,0.1,1.4c-0.2,0.2-0.4,0.3-0.7,0.4l-0.2,0l-0.9,1l2.3,2
	l0.9-1.1l0,0c0.1,0.4,0.3,0.8,0.7,1.1c0.8,0.7,2,0.6,2.7-0.2C16.9,19.7,16.8,18.5,16,17.8z M14.1,20.1c-0.2-0.2-0.3-0.4-0.4-0.7
	l0-0.2l-1-0.8l-0.9,1.1l-0.9-0.8l0,0c0.4-0.1,0.8-0.3,1.1-0.7c0.7-0.8,0.6-2-0.2-2.7c-0.8-0.7-2-0.6-2.7,0.2
	c-0.3,0.3-0.4,0.8-0.5,1.2l0,0l-0.9-0.8l2.7-3.2c0.4-0.5,1.2-0.6,1.7-0.2l1,0.9l0.9-1.1l0-0.2c0-0.3,0.1-0.5,0.2-0.7
	c0.4-0.4,1-0.5,1.4-0.1c0.4,0.4,0.5,1,0.1,1.4c-0.2,0.2-0.4,0.3-0.7,0.4l-0.2,0L14,14.2l1.3,1.1l-1.8,2.2l1,0.8l0.2,0
	c0.3,0,0.5,0.1,0.7,0.2c0.4,0.4,0.5,1,0.1,1.4C15.1,20.4,14.5,20.4,14.1,20.1z"/>
<linearGradient id="SVGID_8_" gradientUnits="userSpaceOnUse" x1="-8.6785" y1="3.9426" x2="56.2954" y2="-61.0313">
	<stop  offset="0" style="stop-color:#1D75BB"/>
	<stop  offset="0.1807" style="stop-color:#2C80AB"/>
	<stop  offset="0.5365" style="stop-color:#529C80"/>
	<stop  offset="1" style="stop-color:#8CC63F"/>
</linearGradient>
<path class="st15" d="M60.7-29.1c-0.9,0-1.8,0.1-2.7,0.4l-5.2-13.4c4.9-0.5,8.7-4.6,8.7-9.6c0-5.3-4.3-9.7-9.7-9.7
	c-5.1,0-9.3,4-9.7,9L2.5-49.9c-1.7-2.8-4.8-4.7-8.3-4.7c-5.3,0-9.7,4.3-9.7,9.7c0,5,3.9,9.2,8.8,9.6L-10-20.2
	c-5.1,0.3-9.1,4.5-9.1,9.7c0,5.3,4.3,9.7,9.7,9.7s9.7-4.3,9.7-9.7c0-2-0.6-3.9-1.7-5.4l18.4-11.1c1.7,1.9,4,3.1,6.7,3.2l0.7,3.7
	l1.4-0.3L25-23.9c3.1-0.3,5.8-2,7.4-4.6l19,6.5c-0.2,0.8-0.3,1.6-0.3,2.5c0,5.3,4.3,9.7,9.7,9.7s9.7-4.3,9.7-9.7
	S66.1-29.1,60.7-29.1z M51.8-60c4.5,0,8.1,3.7,8.1,8.1c0,4.5-3.7,8.1-8.1,8.1s-8.1-3.7-8.1-8.1C43.7-56.3,47.3-60,51.8-60z
	 M42.2-51.1c0.2,2.1,1,4,2.3,5.6l-13.3,5.3c-1.8-1.8-4.2-3-7-3c-4.2,0-7.7,2.6-9.1,6.3L2.9-40.7c0.6-1.3,0.9-2.7,0.9-4.2
	c0-1.3-0.3-2.5-0.7-3.6L42.2-51.1z M-14-44.9c0-4.5,3.7-8.1,8.1-8.1c4.5,0,8.1,3.7,8.1,8.1s-3.7,8.1-8.1,8.1
	C-10.3-36.8-14-40.4-14-44.9z M-9.5-2.4c-4.5,0-8.1-3.7-8.1-8.1s3.7-8.1,8.1-8.1c4.5,0,8.1,3.7,8.1,8.1S-5-2.4-9.5-2.4z M-2.3-17.1
	c-1.6-1.7-3.8-2.9-6.3-3.1l3.3-15.1c3.1-0.2,5.8-1.8,7.5-4.3l12.5,4c-0.1,0.7-0.2,1.3-0.2,2.1c0,2,0.6,3.8,1.6,5.3L-2.3-17.1z
	 M24.2-25.4c-4.5,0-8.1-3.7-8.1-8.1c0-4.5,3.7-8.1,8.1-8.1c4.5,0,8.1,3.7,8.1,8.1C32.3-29,28.7-25.4,24.2-25.4z M33.1-29.7
	c0.5-1.2,0.8-2.5,0.8-3.8c0-2.1-0.7-4-1.8-5.6l13.4-5.4c1.6,1.4,3.6,2.2,5.8,2.3l5.4,13.9c-2.2,1-4,2.8-4.9,5L33.1-29.7z M60.7-11.3
	c-4.5,0-8.1-3.7-8.1-8.1s3.7-8.1,8.1-8.1s8.1,3.7,8.1,8.1S65.2-11.3,60.7-11.3z"/>
<g>
	<linearGradient id="SVGID_9_" gradientUnits="userSpaceOnUse" x1="43.1228" y1="24.9854" x2="51.4419" y2="16.6663">
		<stop  offset="0" style="stop-color:#1D75BB"/>
		<stop  offset="0.1807" style="stop-color:#2C80AB"/>
		<stop  offset="0.5365" style="stop-color:#529C80"/>
		<stop  offset="1" style="stop-color:#8CC63F"/>
	</linearGradient>
	<path class="st16" d="M45.5,26.8C45.5,26.8,45.5,26.8,45.5,26.8c0.6,0.2,1.1-0.2,1-0.8c-0.2-1,0-2,0.7-2.9c0.8-1,2-1.4,3.2-1.2
		c1.3,0.3,2.2,1.3,3-0.3s-0.3-4-3.2-5.4c-2.8-1.3-6.2-0.2-7.6,2.6C41.1,21.8,42.4,25.4,45.5,26.8z M49.2,16.5c0.7,0,1.2,0.5,1.2,1.2
		c0,0.7-0.5,1.2-1.2,1.2c-0.7,0-1.2-0.5-1.2-1.2C48,17,48.5,16.5,49.2,16.5z M46.1,16.5c0.7,0,1.2,0.5,1.2,1.2
		c0,0.7-0.5,1.2-1.2,1.2c-0.7,0-1.2-0.5-1.2-1.2C44.9,17,45.4,16.5,46.1,16.5z M44.1,18.9c0.7,0,1.2,0.5,1.2,1.2
		c0,0.7-0.5,1.2-1.2,1.2c-0.7,0-1.2-0.5-1.2-1.2C42.9,19.4,43.4,18.9,44.1,18.9z M42.9,23c0-0.7,0.5-1.2,1.2-1.2
		c0.7,0,1.2,0.5,1.2,1.2c0,0.7-0.5,1.2-1.2,1.2C43.4,24.2,42.9,23.6,42.9,23z"/>
</g>
<linearGradient id="SVGID_10_" gradientUnits="userSpaceOnUse" x1="18.8186" y1="9.2822" x2="21.937" y2="6.1638">
	<stop  offset="0" style="stop-color:#1D75BB"/>
	<stop  offset="0.1807" style="stop-color:#2C80AB"/>
	<stop  offset="0.5365" style="stop-color:#529C80"/>
	<stop  offset="1" style="stop-color:#8CC63F"/>
</linearGradient>
<path class="st17" d="M21,5.3c0-0.1-0.1-0.2-0.2-0.3c-0.1-0.1-0.2-0.1-0.4-0.1c-0.1,0-0.3,0-0.4,0.1c-0.1,0.1-0.2,0.2-0.2,0.3
	l-1,3.5c0,0,0,0.1,0,0.1c0,0.1,0,0.2,0.1,0.3c0.1,0.1,0.2,0.1,0.3,0.1c0.1,0,0.2,0,0.3-0.1c0.1-0.1,0.1-0.1,0.2-0.3l0.1-0.5H21
	l0.2,0.5c0,0.1,0.1,0.2,0.2,0.3c0.1,0.1,0.2,0.1,0.3,0.1c0.1,0,0.3,0,0.3-0.1c0.1-0.1,0.1-0.2,0.1-0.3c0-0.1,0-0.1,0-0.1L21,5.3z
	 M20,7.7l0.4-1.5l0.4,1.5H20z"/>
<g>
	<linearGradient id="SVGID_11_" gradientUnits="userSpaceOnUse" x1="58.134" y1="10.78" x2="61.3478" y2="7.5662">
		<stop  offset="0" style="stop-color:#1D75BB"/>
		<stop  offset="0.1807" style="stop-color:#2C80AB"/>
		<stop  offset="0.5365" style="stop-color:#529C80"/>
		<stop  offset="1" style="stop-color:#8CC63F"/>
	</linearGradient>
	<path class="st18" d="M61.2,8.7c0-0.1,0.1-0.2,0.1-0.3c0-0.1,0-0.2,0-0.3c0-0.2,0-0.3-0.1-0.4c-0.1-0.1-0.1-0.3-0.2-0.4
		C61,7.2,60.8,7.1,60.7,7C60.6,7,60.4,7,60.3,7h-1.4c-0.1,0-0.3,0-0.4,0.1c-0.1,0.1-0.1,0.2-0.1,0.4v3.3c0,0.1,0,0.3,0.1,0.4
		c0.1,0.1,0.2,0.1,0.4,0.1h1.5c0.2,0,0.4,0,0.6-0.1c0.2-0.1,0.3-0.2,0.5-0.3c0.1-0.1,0.2-0.3,0.3-0.5c0.1-0.2,0.1-0.4,0.1-0.6
		c0-0.2-0.1-0.5-0.2-0.7C61.5,9,61.4,8.8,61.2,8.7z M59.4,7.8h0.8c0.1,0,0.1,0,0.2,0.1c0.1,0.1,0.1,0.1,0.1,0.2c0,0.1,0,0.2-0.1,0.2
		c-0.1,0.1-0.1,0.1-0.2,0.1h-0.8V7.8z M60.8,10.1c0,0.1-0.1,0.1-0.1,0.2c-0.1,0.1-0.1,0.1-0.2,0.1c-0.1,0-0.1,0.1-0.2,0.1h-0.9V9.1
		h0.9c0.1,0,0.2,0,0.2,0.1c0.1,0,0.1,0.1,0.2,0.1c0.1,0.1,0.1,0.1,0.1,0.2c0,0.1,0,0.2,0,0.2C60.8,9.9,60.8,10,60.8,10.1z"/>
</g>
<linearGradient id="SVGID_12_" gradientUnits="userSpaceOnUse" x1="37.0493" y1="6.4323" x2="40.1668" y2="3.3148">
	<stop  offset="0" style="stop-color:#1D75BB"/>
	<stop  offset="0.1807" style="stop-color:#2C80AB"/>
	<stop  offset="0.5365" style="stop-color:#529C80"/>
	<stop  offset="1" style="stop-color:#8CC63F"/>
</linearGradient>
<path class="st19" d="M40,5.9c-0.1-0.1-0.2-0.1-0.3-0.1c-0.1,0-0.2,0.1-0.3,0.2c-0.1,0.1-0.2,0.2-0.4,0.3c-0.1,0.1-0.3,0.1-0.4,0.1
	c-0.2,0-0.3,0-0.5-0.1C38,6.1,37.9,6,37.8,5.9c-0.1-0.1-0.2-0.3-0.3-0.5c-0.1-0.2-0.1-0.4-0.1-0.6c0-0.2,0-0.4,0.1-0.6
	c0.1-0.2,0.1-0.3,0.3-0.4c0.1-0.1,0.2-0.2,0.4-0.3c0.1-0.1,0.3-0.1,0.5-0.1c0.3,0,0.5,0.1,0.7,0.3c0.1,0.1,0.2,0.1,0.3,0.1
	c0.1,0,0.2,0,0.3-0.1c0.1-0.1,0.1-0.2,0.1-0.3c0-0.1-0.1-0.2-0.2-0.3c-0.2-0.2-0.4-0.3-0.6-0.4c-0.2-0.1-0.4-0.1-0.7-0.1
	c-0.3,0-0.6,0.1-0.8,0.2c-0.3,0.1-0.5,0.3-0.7,0.5c-0.2,0.2-0.3,0.4-0.5,0.7c-0.1,0.3-0.2,0.6-0.2,0.9c0,0.3,0.1,0.6,0.2,0.9
	c0.1,0.3,0.3,0.5,0.5,0.7c0.2,0.2,0.4,0.4,0.7,0.5c0.3,0.1,0.5,0.2,0.8,0.2c0.3,0,0.5-0.1,0.8-0.2c0.2-0.1,0.5-0.3,0.6-0.4
	c0.1-0.1,0.1-0.2,0.1-0.3C40.2,6.1,40.1,6,40,5.9z"/>
<linearGradient id="SVGID_13_" gradientUnits="userSpaceOnUse" x1="10.8687" y1="45.8001" x2="19.892" y2="36.7767" gradientTransform="matrix(0.9645 0.2642 -0.2642 0.9645 10.8503 -2.6654)">
	<stop  offset="0" style="stop-color:#1D75BB"/>
	<stop  offset="0.1807" style="stop-color:#2C80AB"/>
	<stop  offset="0.5365" style="stop-color:#529C80"/>
	<stop  offset="1" style="stop-color:#8CC63F"/>
</linearGradient>
<path class="st20" d="M19.6,36.8L19.6,36.8c-0.6-0.7-2.2-0.1-3.9,1c-0.9-1.8-1.9-3.1-2.8-2.8c-0.6,0.2-0.9,1-0.9,2.4
	c0,0.4,0,0.8,0.1,1.2c-1.8-0.2-3.3,0.1-3.5,0.9c-0.2,0.9,0.9,1.8,2.6,2.6c-1.1,1.5-1.7,2.8-1.1,3.5c0.1,0.1,0.3,0.2,0.4,0.3
	c0.8,0.2,2.1-0.3,3.4-1.2c0.7,1.5,1.6,2.6,2.3,2.8c0.2,0,0.3,0,0.5,0c0.6-0.2,0.9-1,0.9-2.4c0-0.4,0-0.8-0.1-1.2
	c1.8,0.2,3.3-0.1,3.5-0.9c0.2-0.9-0.9-1.8-2.6-2.6C19.6,38.9,20.2,37.5,19.6,36.8z M19,37.2c0.1,0,0.1,0,0.2,0.1
	c0.3,0.3-0.1,1.4-1.2,2.8c-0.5-0.2-1-0.4-1.5-0.6c-0.1-0.4-0.3-0.8-0.5-1.1C17.4,37.4,18.5,37,19,37.2z M16.6,42.4
	c0.1,0.3,0.1,0.5,0.2,0.8c-0.3,0-0.6-0.1-0.9-0.1c0.1-0.1,0.2-0.2,0.3-0.2C16.3,42.7,16.5,42.5,16.6,42.4z M15.8,42.3
	c-0.2,0.2-0.4,0.4-0.6,0.5c-0.3-0.1-0.5-0.1-0.8-0.2c-0.3-0.1-0.5-0.2-0.8-0.2c-0.1-0.3-0.2-0.5-0.3-0.8c-0.1-0.3-0.2-0.6-0.3-0.9
	c0.2-0.2,0.4-0.4,0.7-0.6c0.2-0.2,0.4-0.4,0.6-0.5c0.3,0.1,0.5,0.1,0.8,0.2c0.3,0.1,0.5,0.2,0.8,0.2c0.1,0.3,0.2,0.5,0.3,0.8
	c0.1,0.3,0.2,0.6,0.3,0.9C16.3,41.9,16,42.1,15.8,42.3z M14.6,43.4c-0.2,0.1-0.3,0.2-0.5,0.4c-0.1-0.2-0.2-0.4-0.2-0.6
	c0.1,0,0.2,0.1,0.4,0.1C14.3,43.3,14.5,43.3,14.6,43.4z M12.7,41.8c0,0.1,0.1,0.2,0.1,0.4c-0.3-0.1-0.6-0.2-0.8-0.3
	c0.2-0.2,0.3-0.4,0.5-0.6C12.6,41.5,12.7,41.6,12.7,41.8z M12.9,40.1c-0.1-0.3-0.1-0.5-0.2-0.8c0.3,0,0.6,0.1,0.9,0.1
	c-0.1,0.1-0.2,0.2-0.3,0.2C13.2,39.8,13.1,39.9,12.9,40.1z M15,39.1c0.2-0.1,0.3-0.2,0.5-0.4c0.1,0.2,0.2,0.4,0.2,0.6
	c-0.1,0-0.2-0.1-0.4-0.1C15.2,39.1,15.1,39.1,15,39.1z M16.8,40.6c0-0.1-0.1-0.2-0.1-0.4c0.3,0.1,0.6,0.2,0.8,0.3
	c-0.2,0.2-0.3,0.4-0.5,0.6C16.9,41,16.9,40.8,16.8,40.6z M12.6,37.4c0-1.2,0.2-1.7,0.5-1.8c0.1,0,0.1,0,0.2,0c0.5,0.1,1.2,1,2,2.6
	c-0.3,0.2-0.7,0.5-1,0.8c-0.5-0.1-1.1-0.2-1.6-0.3C12.6,38.2,12.6,37.8,12.6,37.4z M9.1,39.7c0.1-0.4,1.3-0.6,3-0.5
	c0.1,0.4,0.2,0.9,0.3,1.4c-0.3,0.3-0.7,0.7-0.9,1C9.8,40.8,9,40.1,9.1,39.7z M10.4,45.2c-0.3-0.3,0.1-1.4,1.2-2.8
	c0.5,0.2,1,0.4,1.5,0.6c0.1,0.4,0.3,0.8,0.5,1.1C11.9,45.2,10.7,45.5,10.4,45.2z M17,45c0,1.2-0.2,1.7-0.5,1.8c-0.1,0-0.1,0-0.2,0
	c-0.5-0.1-1.2-1-2-2.6c0.3-0.2,0.7-0.5,1-0.8c0.5,0.1,1.1,0.2,1.6,0.3C16.9,44.2,17,44.7,17,45z M20.5,42.8c-0.1,0.4-1.3,0.6-3,0.5
	c-0.1-0.4-0.2-0.9-0.3-1.4c0.3-0.3,0.7-0.7,0.9-1C19.7,41.6,20.6,42.4,20.5,42.8z"/>
</svg>
