<svg xmlns="http://www.w3.org/2000/svg" viewBox="0 0 552.75 626.71">
  <defs>
    <style>
      .cls-1 {
        fill: #fff;
      }
    </style>
  </defs>
  <g id="Layer_2" data-name="Layer 2">
    <g id="Layer_3" data-name="Layer 3">
      <g>
        <path class="cls-1" d="M360.39,303V165c0-9.74-7.35-17.65-16.39-17.65H287.37V94.64c0-.19,0-.37,0-.55L287,88.25h112.9c15.1,0,27.39,12.85,27.39,28.65V239.53Zm-62-166.7H344c15.1,0,27.39,12.85,27.39,28.65V277.4l44.88-42.6V116.9c0-9.73-7.35-17.65-16.39-17.65H298.37Z"/>
        <path class="cls-1" d="M399.88,626.71H27.39C12.29,626.71,0,613.84,0,598V116.9c0-15.8,12.29-28.65,27.39-28.65h112.9l-.36,5.84a4.93,4.93,0,0,0,0,.55v52.67H83.27c-9,0-16.39,7.91-16.39,17.65V535.47c0,9.73,7.35,17.65,16.39,17.65H344c9,0,16.39-7.92,16.39-17.65V347.06l66.88-63.46V598C427.27,613.84,415,626.71,399.88,626.71ZM27.39,99.25c-9,0-16.39,7.92-16.39,17.65V598c0,9.75,7.35,17.68,16.39,17.68H399.88c9,0,16.39-7.93,16.39-17.68V309.2l-44.88,42.59V535.47c0,15.8-12.29,28.65-27.39,28.65H83.27c-15.1,0-27.39-12.85-27.39-28.65V165c0-15.8,12.29-28.65,27.39-28.65H128.9V99.25Z"/>
        <g>
          <path class="cls-1" d="M291.35,169H135.92a8.13,8.13,0,0,1-7.89-8.35V80c0-18.85,15.35-33.19,33.13-31.69,6.81-64.39,98.15-64.35,105,0,17.78-1.49,33.18,12.83,33.13,31.69v80.71A8.13,8.13,0,0,1,291.35,169ZM140.76,155.56H286.51V80c-1.06-19.93-18-18.68-32.76-18.22,4.43-64.9-84.68-64.86-80.23,0C158.77,61.3,141.83,60,140.76,80Z"/>
          <path class="cls-1" d="M213.64,78.62h0c-12,0-24.24-8.67-24.51-25.24v-.19C189.4,36.62,201.66,28,213.64,28h0c12,0,24.24,8.67,24.51,25.25v.18C237.88,70,225.61,78.62,213.64,78.62ZM200.12,53.29c.2,9.9,6.93,14.33,13.51,14.33S227,63.19,227.15,53.29C227,43.39,220.23,39,213.64,39S200.32,43.38,200.12,53.29Z"/>
        </g>
        <g>
          <path class="cls-1" d="M286.51,227.88H110.36a6.56,6.56,0,0,1-6.37-6.74h0a6.55,6.55,0,0,1,6.37-6.73H286.51a6.56,6.56,0,0,1,6.37,6.73h0A6.57,6.57,0,0,1,286.51,227.88Z"/>
          <path class="cls-1" d="M151.85,283H110.77a6.81,6.81,0,0,0-6.78,6.43,6.58,6.58,0,0,0,6.37,7h41.49a6.55,6.55,0,0,0,6.37-6.73h0A6.56,6.56,0,0,0,151.85,283Z"/>
          <path class="cls-1" d="M151.85,351.52H110.77A6.8,6.8,0,0,0,104,358a6.58,6.58,0,0,0,6.37,7h41.49a6.56,6.56,0,0,0,6.37-6.74h0A6.55,6.55,0,0,0,151.85,351.52Z"/>
          <path class="cls-1" d="M151.85,420.07H110.77A6.8,6.8,0,0,0,104,426.5a6.58,6.58,0,0,0,6.37,7h41.49a6.56,6.56,0,0,0,6.37-6.74h0A6.55,6.55,0,0,0,151.85,420.07Z"/>
          <path class="cls-1" d="M151.85,488.62H110.77a6.81,6.81,0,0,0-6.78,6.43,6.58,6.58,0,0,0,6.37,7h41.49a6.55,6.55,0,0,0,6.37-6.73h0A6.56,6.56,0,0,0,151.85,488.62Z"/>
        </g>
      </g>
      <g>
        <path class="cls-1" d="M497.29,232.3l-35-41.21,31.05-29.47a25.55,25.55,0,0,1,37.4,2.13,28.44,28.44,0,0,1-2,38.67Zm-19.85-40.39,20.71,24.41,23.06-21.88a17.45,17.45,0,0,0,1.19-23.56,14.84,14.84,0,0,0-10.55-5.38,14.6,14.6,0,0,0-10.91,4.1Z"/>
        <path class="cls-1" d="M302.65,417l-35-41.2L470.31,183.5l35,41.22ZM282.8,376.66l20.71,24.39,58.59-55.62,55.88-53,72.18-68.51-20.71-24.41Z"/>
        <path class="cls-1" d="M532.72,183l-20.27-23.89,14.63-13.89A15,15,0,0,1,549,146.49a16.41,16.41,0,0,1-1.16,22.24h0ZM527.57,160l6,7.09,6.64-6.3a5.35,5.35,0,0,0,.34-7.15,4.12,4.12,0,0,0-2.92-1.51,4,4,0,0,0-3,1.15Z"/>
        <path class="cls-1" d="M281.46,428l-26.55-31.28.61-2.68A29.48,29.48,0,0,1,264,379.37l11.7-11.11,35,41.2-11.28,10.68a27.37,27.37,0,0,1-14.92,7.42ZM267,394l18.69,22a17.51,17.51,0,0,0,6.08-3.82l3.72-3.53-20.7-24.39-3.27,3.1A19,19,0,0,0,267,394Z"/>
        <path class="cls-1" d="M219.58,458.55l40.34-73L292.52,424Zm42.26-53.7L245.72,434l29.14-13.8Z"/>
      </g>
    </g>
  </g>
</svg>
