<?xml version="1.0" encoding="utf-8"?>
<!-- Generator: Adobe Illustrator 24.3.0, SVG Export Plug-In . SVG Version: 6.00 Build 0)  -->
<svg version="1.1" id="Layer_1" xmlns="http://www.w3.org/2000/svg" xmlns:xlink="http://www.w3.org/1999/xlink" x="0px" y="0px"
	 viewBox="0 0 1920 800" style="enable-background:new 0 0 1920 800;" xml:space="preserve">
<style type="text/css">
	.st0{fill:url(#SVGID_1_);}
	.st1{opacity:0.16;}
	.st2{fill:url(#SVGID_2_);}
	.st3{fill:url(#SVGID_3_);}
	.st4{fill:url(#SVGID_4_);}
	.st5{fill:#FFFFFF;}
	.st6{fill:#84F7F7;}
	.st7{opacity:0.11;fill:#84F7C0;}
	.st8{opacity:0.11;fill:#EFF784;}
	.st9{opacity:0.11;fill:#F88982;}
	.st10{opacity:0.11;fill:#F79F84;}
	.st11{opacity:0.11;fill:#F7849F;}
	.st12{opacity:0.11;fill:#BF84F7;}
	.st13{font-family:'OCRBStd';}
	.st14{font-size:400px;}
</style>
<g>
	<linearGradient id="SVGID_1_" gradientUnits="userSpaceOnUse" x1="632.6205" y1="1063.5378" x2="1542.6022" y2="-512.5965">
		<stop  offset="0" style="stop-color:#3FA9F5"/>
		<stop  offset="0.5" style="stop-color:#00FFFF"/>
		<stop  offset="1" style="stop-color:#7AC943"/>
	</linearGradient>
	<rect class="st0" width="1920" height="993"/>
</g>
<g class="st1">
	<linearGradient id="SVGID_2_" gradientUnits="userSpaceOnUse" x1="1287.0968" y1="220.7419" x2="2069.8064" y2="220.7419">
		<stop  offset="0" style="stop-color:#3FA9F5"/>
		<stop  offset="0.5" style="stop-color:#00FFFF"/>
		<stop  offset="1" style="stop-color:#7AC943"/>
	</linearGradient>
	<circle class="st2" cx="1678.5" cy="220.7" r="391.4"/>
</g>
<g class="st1">
	
		<linearGradient id="SVGID_3_" gradientUnits="userSpaceOnUse" x1="1202.0957" y1="346.1664" x2="1661.9667" y2="346.1664" gradientTransform="matrix(0.6875 -0.7262 0.7262 0.6875 158.9472 1252.1025)">
		<stop  offset="0" style="stop-color:#3FA9F5"/>
		<stop  offset="0.5" style="stop-color:#00FFFF"/>
		<stop  offset="1" style="stop-color:#7AC943"/>
	</linearGradient>
	<circle class="st3" cx="1394.8" cy="450.1" r="229.9"/>
</g>
<g class="st1">
	<linearGradient id="SVGID_4_" gradientUnits="userSpaceOnUse" x1="865.2581" y1="139.1613" x2="1487.129" y2="139.1613">
		<stop  offset="0" style="stop-color:#3FA9F5"/>
		<stop  offset="0.5" style="stop-color:#00FFFF"/>
		<stop  offset="1" style="stop-color:#7AC943"/>
	</linearGradient>
	<circle class="st4" cx="1176.2" cy="139.2" r="310.9"/>
</g>
<path id="shape15" class="st6" d="M1126,604.4C1126,604.4,1125.9,604.4,1126,604.4c-0.4,0.4-0.7,0.7-1,0.9c0,0,0,0-0.1,0.1
	c-0.3,0.3-0.7,0.5-1,0.8c0,0-0.1,0-0.1,0.1c-0.4,0.2-0.7,0.5-1.1,0.7c0,0-0.1,0-0.1,0.1c-0.4,0.2-0.7,0.4-1.1,0.5
	c-0.1,0-0.1,0-0.2,0.1c-0.4,0.2-0.8,0.3-1.2,0.4c-0.1,0-0.1,0-0.2,0.1c-0.4,0.1-0.8,0.2-1.3,0.3c0,0-0.1,0-0.1,0
	c-0.9,0.2-1.9,0.3-2.9,0.3c0,0-0.1,0-0.1,0c-0.4,0-0.9,0-1.3-0.1c-0.1,0-0.1,0-0.2,0c-0.4,0-0.8-0.1-1.2-0.2c-0.1,0-0.1,0-0.2,0
	c-0.4-0.1-0.8-0.2-1.2-0.3c0,0-0.1,0-0.1,0c-0.4-0.1-0.8-0.3-1.2-0.4c0,0-0.1,0-0.1,0c-0.4-0.2-0.8-0.4-1.2-0.6c0,0,0,0-0.1,0
	c-0.4-0.2-0.8-0.4-1.1-0.7c0,0,0,0-0.1,0c-0.4-0.2-0.7-0.5-1.1-0.8l0,0c-0.3-0.3-0.7-0.6-1-0.9c0,0,0,0-0.1-0.1
	c-0.3-0.3-0.6-0.6-0.9-1c0,0,0,0-0.1-0.1c-0.3-0.3-0.5-0.7-0.8-1c0,0,0-0.1-0.1-0.1c-0.2-0.4-0.5-0.7-0.7-1.1c0,0,0-0.1-0.1-0.1
	c-0.2-0.4-0.4-0.7-0.5-1.1c0-0.1,0-0.1-0.1-0.2c-0.2-0.4-0.3-0.8-0.4-1.2c0-0.1,0-0.1-0.1-0.2c-0.1-0.4-0.2-0.8-0.3-1.3
	c0,0,0-0.1,0-0.1c-0.1-0.5-0.2-1-0.2-1.4l-3.7-38.9l-24.9,30.1c-0.3,0.3-0.6,0.7-0.9,1c0,0,0,0-0.1,0.1c-0.3,0.3-0.6,0.6-1,0.9
	c0,0,0,0-0.1,0.1c-0.3,0.3-0.7,0.5-1,0.8c0,0-0.1,0-0.1,0.1c-0.4,0.2-0.7,0.5-1.1,0.7c0,0-0.1,0-0.1,0.1c-0.4,0.2-0.7,0.4-1.1,0.5
	c-0.1,0-0.1,0-0.2,0.1c-0.4,0.2-0.8,0.3-1.2,0.4c-0.1,0-0.1,0-0.2,0.1c-0.4,0.1-0.8,0.2-1.3,0.3c0,0-0.1,0-0.1,0
	c-0.9,0.2-1.9,0.3-2.9,0.3c0,0-0.1,0-0.1,0c-0.4,0-0.9,0-1.3-0.1c-0.1,0-0.1,0-0.2,0c-0.4,0-0.8-0.1-1.2-0.2c-0.1,0-0.1,0-0.2,0
	c-0.4-0.1-0.8-0.2-1.2-0.3c0,0-0.1,0-0.1,0c-0.4-0.1-0.8-0.3-1.2-0.4c0,0-0.1,0-0.1,0c-0.4-0.2-0.8-0.4-1.2-0.6c0,0,0,0-0.1,0
	c-0.4-0.2-0.8-0.4-1.1-0.7c0,0,0,0-0.1,0c-0.4-0.2-0.7-0.5-1.1-0.8l0,0c-0.3-0.3-0.7-0.6-1-0.9c0,0,0,0-0.1-0.1
	c-0.3-0.3-0.6-0.6-0.9-1c0,0,0,0-0.1-0.1c-0.3-0.3-0.5-0.7-0.8-1c0,0,0-0.1-0.1-0.1c-0.2-0.4-0.5-0.7-0.7-1.1c0,0,0-0.1-0.1-0.1
	c-0.2-0.4-0.4-0.7-0.5-1.1c0-0.1,0-0.1-0.1-0.2c-0.2-0.4-0.3-0.8-0.4-1.2c0-0.1,0-0.1-0.1-0.2c-0.1-0.4-0.2-0.8-0.3-1.3
	c0,0,0-0.1,0-0.1c-0.1-0.5-0.2-1-0.2-1.4l-3.7-38.9l-24.9,30.1c-0.3,0.3-0.6,0.7-0.9,1c0,0,0,0-0.1,0.1c-0.3,0.3-0.6,0.6-1,0.9
	c0,0,0,0-0.1,0.1c-0.3,0.3-0.7,0.5-1,0.8c0,0-0.1,0-0.1,0.1c-0.4,0.2-0.7,0.5-1.1,0.7c0,0-0.1,0-0.1,0.1c-0.4,0.2-0.7,0.4-1.1,0.5
	c-0.1,0-0.1,0-0.2,0.1c-0.4,0.2-0.8,0.3-1.2,0.4c-0.1,0-0.1,0-0.2,0.1c-0.4,0.1-0.8,0.2-1.3,0.3c0,0-0.1,0-0.1,0
	c-0.9,0.2-1.9,0.3-2.9,0.3c0,0-0.1,0-0.1,0c-0.4,0-0.9,0-1.3-0.1c-0.1,0-0.1,0-0.2,0c-0.4,0-0.8-0.1-1.2-0.2c-0.1,0-0.1,0-0.2,0
	c-0.4-0.1-0.8-0.2-1.2-0.3c0,0-0.1,0-0.1,0c-0.4-0.1-0.8-0.3-1.2-0.4c0,0-0.1,0-0.1,0c-0.4-0.2-0.8-0.4-1.2-0.6c0,0,0,0-0.1,0
	c-0.4-0.2-0.8-0.4-1.1-0.7c0,0,0,0-0.1,0c-0.4-0.2-0.7-0.5-1.1-0.8l0,0c-0.3-0.3-0.7-0.6-1-0.9c0,0,0,0-0.1-0.1
	c-0.3-0.3-0.6-0.6-0.9-1c0,0,0,0-0.1-0.1c-0.3-0.3-0.5-0.7-0.8-1c0,0,0-0.1-0.1-0.1c-0.2-0.4-0.5-0.7-0.7-1.1c0,0,0-0.1-0.1-0.1
	c-0.2-0.4-0.4-0.7-0.5-1.1c0-0.1,0-0.1-0.1-0.2c-0.2-0.4-0.3-0.8-0.4-1.2c0-0.1,0-0.1-0.1-0.2c-0.1-0.4-0.2-0.8-0.3-1.3
	c0,0,0-0.1,0-0.1c-0.1-0.5-0.2-1-0.2-1.4l-7-73.7c-0.8-8,5.1-15,13.1-15.8l0,0c8-0.8,15,5.1,15.8,13.1l3.7,38.9l24.9-30.1
	c0.3-0.3,0.6-0.7,0.9-1c0,0,0,0,0.1-0.1c0.3-0.3,0.6-0.6,1-0.9c0,0,0,0,0.1-0.1c0.3-0.3,0.7-0.5,1-0.8c0,0,0.1,0,0.1-0.1
	c0.4-0.2,0.7-0.5,1.1-0.7c0,0,0.1,0,0.1-0.1c0.4-0.2,0.7-0.4,1.1-0.5c0.1,0,0.1,0,0.2-0.1c0.4-0.2,0.8-0.3,1.2-0.4
	c0.1,0,0.1,0,0.2-0.1c0.4-0.1,0.8-0.2,1.3-0.3c0,0,0.1,0,0.1,0c0.9-0.2,1.9-0.3,2.9-0.3c0,0,0.1,0,0.1,0c0.4,0,0.9,0,1.3,0.1
	c0.1,0,0.1,0,0.2,0c0.4,0,0.8,0.1,1.2,0.2c0.1,0,0.1,0,0.2,0c0.4,0.1,0.8,0.2,1.2,0.3c0,0,0.1,0,0.1,0c0.4,0.1,0.8,0.3,1.2,0.4
	c0,0,0.1,0,0.1,0c0.4,0.2,0.8,0.4,1.2,0.6c0,0,0,0,0.1,0c0.4,0.2,0.8,0.4,1.1,0.7c0,0,0,0,0.1,0c0.4,0.2,0.7,0.5,1.1,0.8l0,0
	c0.3,0.3,0.7,0.6,1,0.9c0,0,0,0,0.1,0.1c0.3,0.3,0.6,0.6,0.9,1c0,0,0,0,0.1,0.1c0.3,0.3,0.5,0.7,0.8,1c0,0,0,0.1,0.1,0.1
	c0.2,0.4,0.5,0.7,0.7,1.1c0,0,0,0.1,0.1,0.1c0.2,0.4,0.4,0.7,0.5,1.1c0,0.1,0,0.1,0.1,0.2c0.2,0.4,0.3,0.8,0.4,1.2
	c0,0.1,0,0.1,0.1,0.2c0.1,0.4,0.2,0.8,0.3,1.3c0,0,0,0.1,0,0.1c0.1,0.5,0.2,1,0.2,1.4l3.7,38.9l24.9-30.1c0.3-0.3,0.6-0.7,0.9-1
	c0,0,0,0,0.1-0.1c0.3-0.3,0.6-0.6,1-0.9c0,0,0,0,0.1-0.1c0.3-0.3,0.7-0.5,1-0.8c0,0,0.1,0,0.1-0.1c0.4-0.2,0.7-0.5,1.1-0.7
	c0,0,0.1,0,0.1-0.1c0.4-0.2,0.7-0.4,1.1-0.5c0.1,0,0.1,0,0.2-0.1c0.4-0.2,0.8-0.3,1.2-0.4c0.1,0,0.1,0,0.2-0.1
	c0.4-0.1,0.8-0.2,1.3-0.3c0,0,0.1,0,0.1,0c0.9-0.2,1.9-0.3,2.9-0.3c0,0,0.1,0,0.1,0c0.4,0,0.9,0,1.3,0.1c0.1,0,0.1,0,0.2,0
	c0.4,0,0.8,0.1,1.2,0.2c0.1,0,0.1,0,0.2,0c0.4,0.1,0.8,0.2,1.2,0.3c0,0,0.1,0,0.1,0c0.4,0.1,0.8,0.3,1.2,0.4c0,0,0.1,0,0.1,0
	c0.4,0.2,0.8,0.4,1.2,0.6c0,0,0,0,0.1,0c0.4,0.2,0.8,0.4,1.1,0.7c0,0,0,0,0.1,0c0.4,0.2,0.7,0.5,1.1,0.8v0c0.3,0.3,0.7,0.6,1,0.9
	c0,0,0,0,0.1,0.1c0.3,0.3,0.6,0.6,0.9,1c0,0,0,0,0.1,0.1c0.3,0.3,0.5,0.7,0.8,1c0,0,0,0.1,0.1,0.1c0.2,0.4,0.5,0.7,0.7,1.1
	c0,0,0,0.1,0.1,0.1c0.2,0.4,0.4,0.7,0.5,1.1c0,0.1,0,0.1,0.1,0.2c0.2,0.4,0.3,0.8,0.4,1.2c0,0.1,0,0.1,0.1,0.2
	c0.1,0.4,0.2,0.8,0.3,1.3c0,0,0,0.1,0,0.1c0.1,0.5,0.2,1,0.2,1.4l3.7,38.9l24.9-30.1c5.1-6.2,14.2-7,20.4-1.9l0,0
	c6.2,5.1,7,14.2,1.9,20.4l-47.2,57C1126.6,603.8,1126.3,604.1,1126,604.4z"/>
<path id="shape13" class="st7" d="M201.3,486.4L201.3,486.4c4.4,13.4,18.8,20.7,32.3,16.3L533.6,404c13.4-4.4,20.7-18.8,16.3-32.3v0
	c-4.4-13.4-18.8-20.7-32.3-16.3l-300.1,98.7C204.2,458.5,196.9,472.9,201.3,486.4z"/>
<path id="shape12" class="st8" d="M377.3,486.9c12.6-111.9-67.9-212.7-179.8-225.3C85.7,249-15.2,329.5-27.7,441.4
	S40.2,654.1,152,666.6S364.8,598.7,377.3,486.9z M300.6,478.2c-7.8,69.5-70.4,119.5-139.9,111.7C91.2,582.1,41.2,519.5,49,450
	s70.4-119.5,139.9-111.7C258.4,346.1,308.4,408.8,300.6,478.2z"/>
<path id="shape10" class="st9" d="M917.2-53.7c-82.6,80-123.1,199.1-98.3,318.6c40.2,193.2,235.8,314.3,426.5,264
	c59.4-15.7,111.1-46,152.3-86c42-40.8,108.8-40.5,149.6,1.4l0.1,0.1c40.5,41.6,39.6,108.2-1.9,148.7
	c-79.7,77.9-184.1,133-305.1,151.7c-267.2,41.3-526.4-117.8-611.1-374.5c-70.1-212.4-6.3-432.5,140.9-575.2
	c41.6-40.4,108.2-39,148.6,2.5l0,0C959.3-160.7,958.9-94,917.2-53.7z"/>
<path id="shape8" class="st7" d="M913.5,161.8c-6,15.1-4.3,32.9,5.8,46.9c16.4,22.6,48.8,26.9,70.5,9.3c6.8-5.5,11.7-12.4,14.7-20
	c3.1-7.7,11.7-11.6,19.4-8.5l0,0c7.7,3,11.4,11.7,8.4,19.3c-5.8,14.7-16.1,27.9-30.6,37.4c-32.1,20.9-74.9,15.4-100.8-12.9
	c-21.4-23.4-26-55.5-15.3-82.6c3-7.6,11.7-11.3,19.4-8.3h0C912.7,145.5,916.5,154.2,913.5,161.8z"/>
<path id="shape7" class="st10" d="M403.6,220.2c-6.9,17.4-5,37.7,6.7,53.8c18.8,25.9,55.9,30.8,80.8,10.7
	c7.8-6.3,13.4-14.2,16.8-22.9c3.5-8.8,13.4-13.3,22.3-9.8l0,0c8.8,3.5,13.1,13.4,9.6,22.2c-6.6,16.9-18.4,32-35.1,42.8
	c-36.8,23.9-85.8,17.6-115.5-14.7c-24.6-26.8-29.8-63.7-17.5-94.6c3.5-8.8,13.4-13,22.2-9.5l0,0
	C402.7,201.5,407.1,211.4,403.6,220.2z"/>
<path id="shape6" class="st11" d="M1824.5,222.9L1824.5,222.9c39.4-22.8,52.8-73.1,30-112.5l-125.3-216.7
	c-22.8-39.4-73.1-52.8-112.5-30l0,0c-39.4,22.8-52.8,73.1-30,112.5L1712,192.8C1734.8,232.2,1785.1,245.6,1824.5,222.9z"/>
<path id="shape5" class="st12" d="M400.5,85.4c0,0,0,0.1,0,0.1c-0.2,0.7-0.3,1.4-0.6,2.1c0,0,0,0.1,0,0.1c-0.2,0.7-0.5,1.4-0.7,2
	c0,0.1,0,0.1-0.1,0.2c-0.3,0.7-0.6,1.3-0.9,1.9c0,0.1-0.1,0.1-0.1,0.2c-0.3,0.6-0.7,1.2-1.1,1.8c-0.1,0.1-0.1,0.2-0.2,0.3
	c-0.4,0.6-0.8,1.1-1.3,1.7c-0.1,0.1-0.1,0.2-0.2,0.2c-0.5,0.6-1,1.1-1.5,1.6c0,0-0.1,0.1-0.1,0.1c-1.2,1.1-2.4,2.1-3.8,3
	c-0.1,0-0.1,0.1-0.2,0.1c-0.6,0.4-1.2,0.8-1.9,1.1c-0.1,0-0.2,0.1-0.3,0.1c-0.6,0.3-1.3,0.6-1.9,0.9c-0.1,0-0.2,0.1-0.3,0.1
	c-0.6,0.2-1.3,0.5-2,0.7c-0.1,0-0.2,0-0.2,0.1c-0.7,0.2-1.4,0.3-2.1,0.5c-0.1,0-0.1,0-0.2,0c-0.7,0.1-1.4,0.2-2.2,0.3
	c0,0-0.1,0-0.1,0c-0.7,0.1-1.5,0.1-2.2,0.1c0,0-0.1,0-0.1,0c-0.7,0-1.5-0.1-2.2-0.1l0,0c-0.7-0.1-1.5-0.2-2.2-0.4c0,0-0.1,0-0.1,0
	c-0.7-0.2-1.4-0.3-2.1-0.6c0,0-0.1,0-0.1,0c-0.7-0.2-1.4-0.5-2-0.7c-0.1,0-0.1,0-0.2-0.1c-0.7-0.3-1.3-0.6-1.9-0.9
	c-0.1,0-0.1-0.1-0.2-0.1c-0.6-0.3-1.2-0.7-1.8-1.1c-0.1-0.1-0.2-0.1-0.3-0.2c-0.6-0.4-1.1-0.8-1.7-1.3c-0.1-0.1-0.2-0.1-0.2-0.2
	c-0.6-0.5-1.1-1-1.6-1.5c0,0-0.1-0.1-0.1-0.1c-0.6-0.6-1.1-1.2-1.6-1.8l-40.6-50.9l-7.3,64.7c-0.1,0.7-0.2,1.5-0.4,2.2
	c0,0,0,0.1,0,0.1c-0.2,0.7-0.3,1.4-0.6,2.1c0,0,0,0.1,0,0.1c-0.2,0.7-0.5,1.4-0.7,2c0,0.1,0,0.1-0.1,0.2c-0.3,0.7-0.6,1.3-0.9,1.9
	c0,0.1-0.1,0.1-0.1,0.2c-0.3,0.6-0.7,1.2-1.1,1.8c-0.1,0.1-0.1,0.2-0.2,0.3c-0.4,0.6-0.8,1.1-1.3,1.7c-0.1,0.1-0.1,0.2-0.2,0.2
	c-0.5,0.6-1,1.1-1.5,1.6c0,0-0.1,0.1-0.1,0.1c-1.2,1.1-2.4,2.1-3.8,3c-0.1,0-0.1,0.1-0.2,0.1c-0.6,0.4-1.2,0.8-1.9,1.1
	c-0.1,0-0.2,0.1-0.3,0.1c-0.6,0.3-1.3,0.6-1.9,0.9c-0.1,0-0.2,0.1-0.3,0.1c-0.6,0.2-1.3,0.5-2,0.7c-0.1,0-0.2,0-0.2,0.1
	c-0.7,0.2-1.4,0.3-2.1,0.5c-0.1,0-0.1,0-0.2,0c-0.7,0.1-1.4,0.2-2.2,0.3c0,0-0.1,0-0.1,0c-0.7,0.1-1.5,0.1-2.2,0.1c0,0-0.1,0-0.1,0
	c-0.7,0-1.5-0.1-2.2-0.1l0,0c-0.7-0.1-1.5-0.2-2.2-0.4c0,0-0.1,0-0.1,0c-0.7-0.2-1.4-0.3-2.1-0.6c0,0-0.1,0-0.1,0
	c-0.7-0.2-1.4-0.5-2-0.7c-0.1,0-0.1,0-0.2-0.1c-0.7-0.3-1.3-0.6-1.9-0.9c-0.1,0-0.1-0.1-0.2-0.1c-0.6-0.3-1.2-0.7-1.8-1.1
	c-0.1-0.1-0.2-0.1-0.3-0.2c-0.6-0.4-1.1-0.8-1.7-1.3c-0.1-0.1-0.2-0.1-0.2-0.2c-0.6-0.5-1.1-1-1.6-1.5c0,0-0.1-0.1-0.1-0.1
	c-0.6-0.6-1.1-1.2-1.6-1.8l-40.6-50.9l-7.3,64.7c-0.1,0.7-0.2,1.5-0.4,2.2c0,0,0,0.1,0,0.1c-0.2,0.7-0.3,1.4-0.6,2.1
	c0,0,0,0.1,0,0.1c-0.2,0.7-0.5,1.4-0.7,2c0,0.1,0,0.1-0.1,0.2c-0.3,0.7-0.6,1.3-0.9,1.9c0,0.1-0.1,0.1-0.1,0.2
	c-0.3,0.6-0.7,1.2-1.1,1.8c-0.1,0.1-0.1,0.2-0.2,0.3c-0.4,0.6-0.8,1.1-1.3,1.7c-0.1,0.1-0.1,0.2-0.2,0.2c-0.5,0.6-1,1.1-1.5,1.6
	c0,0-0.1,0.1-0.1,0.1c-1.2,1.1-2.4,2.1-3.8,3c-0.1,0-0.1,0.1-0.2,0.1c-0.6,0.4-1.2,0.8-1.9,1.1c-0.1,0-0.2,0.1-0.3,0.1
	c-0.6,0.3-1.3,0.6-1.9,0.9c-0.1,0-0.2,0.1-0.3,0.1c-0.6,0.2-1.3,0.5-2,0.7c-0.1,0-0.2,0-0.2,0.1c-0.7,0.2-1.4,0.3-2.1,0.5
	c-0.1,0-0.1,0-0.2,0c-0.7,0.1-1.4,0.2-2.2,0.3c0,0-0.1,0-0.1,0c-0.7,0.1-1.5,0.1-2.2,0.1c0,0-0.1,0-0.1,0c-0.7,0-1.5-0.1-2.2-0.1h0
	c-0.7-0.1-1.5-0.2-2.2-0.4c0,0-0.1,0-0.1,0c-0.7-0.2-1.4-0.3-2.1-0.6c0,0-0.1,0-0.1,0c-0.7-0.2-1.4-0.5-2-0.7c-0.1,0-0.1,0-0.2-0.1
	c-0.7-0.3-1.3-0.6-1.9-0.9c-0.1,0-0.1-0.1-0.2-0.1c-0.6-0.3-1.2-0.7-1.8-1.1c-0.1-0.1-0.2-0.1-0.3-0.2c-0.6-0.4-1.1-0.8-1.7-1.3
	c-0.1-0.1-0.2-0.1-0.2-0.2c-0.6-0.5-1.1-1-1.6-1.5c0,0-0.1-0.1-0.1-0.1c-0.6-0.6-1.1-1.2-1.6-1.8l-77-96.4
	c-8.3-10.4-6.6-25.6,3.8-34l0,0c10.4-8.3,25.6-6.6,34,3.8l40.6,50.9l7.3-64.7c0.1-0.7,0.2-1.5,0.4-2.2c0,0,0-0.1,0-0.1
	c0.2-0.7,0.3-1.4,0.6-2.1c0,0,0-0.1,0-0.1c0.2-0.7,0.5-1.4,0.7-2c0-0.1,0-0.1,0.1-0.2c0.3-0.7,0.6-1.3,0.9-1.9
	c0-0.1,0.1-0.1,0.1-0.2c0.3-0.6,0.7-1.2,1.1-1.8c0.1-0.1,0.1-0.2,0.2-0.3c0.4-0.6,0.8-1.1,1.3-1.7c0.1-0.1,0.1-0.2,0.2-0.2
	c0.5-0.6,1-1.1,1.5-1.6c0,0,0.1-0.1,0.1-0.1c1.2-1.1,2.4-2.1,3.8-3c0.1,0,0.1-0.1,0.2-0.1c0.6-0.4,1.2-0.8,1.9-1.1
	c0.1,0,0.2-0.1,0.3-0.1c0.6-0.3,1.3-0.6,1.9-0.9c0.1,0,0.2-0.1,0.3-0.1c0.6-0.2,1.3-0.5,2-0.7c0.1,0,0.2,0,0.2-0.1
	c0.7-0.2,1.4-0.3,2.1-0.5c0.1,0,0.1,0,0.2,0c0.7-0.1,1.4-0.2,2.2-0.3c0,0,0.1,0,0.1,0c0.7-0.1,1.5-0.1,2.2-0.1c0,0,0.1,0,0.1,0
	c0.7,0,1.5,0.1,2.2,0.1l0,0c0.7,0.1,1.5,0.2,2.2,0.4c0,0,0.1,0,0.1,0c0.7,0.2,1.4,0.3,2.1,0.6c0,0,0.1,0,0.1,0
	c0.7,0.2,1.4,0.5,2,0.7c0.1,0,0.1,0,0.2,0.1c0.7,0.3,1.3,0.6,1.9,0.9c0.1,0,0.1,0.1,0.2,0.1c0.6,0.3,1.2,0.7,1.8,1.1
	c0.1,0.1,0.2,0.1,0.3,0.2c0.6,0.4,1.1,0.8,1.7,1.3c0.1,0.1,0.2,0.1,0.2,0.2c0.6,0.5,1.1,1,1.6,1.5c0,0,0.1,0.1,0.1,0.1
	c0.6,0.6,1.1,1.2,1.6,1.8l40.6,50.9l7.3-64.7c0.1-0.7,0.2-1.5,0.4-2.2c0,0,0-0.1,0-0.1c0.2-0.7,0.3-1.4,0.6-2.1c0,0,0-0.1,0-0.1
	c0.2-0.7,0.5-1.4,0.7-2c0-0.1,0-0.1,0.1-0.2c0.3-0.7,0.6-1.3,0.9-1.9c0-0.1,0.1-0.1,0.1-0.2c0.3-0.6,0.7-1.2,1.1-1.8
	c0.1-0.1,0.1-0.2,0.2-0.3c0.4-0.6,0.8-1.1,1.3-1.7c0.1-0.1,0.1-0.2,0.2-0.2c0.5-0.6,1-1.1,1.5-1.6c0,0,0.1-0.1,0.1-0.1
	c1.2-1.1,2.4-2.1,3.8-3c0.1,0,0.1-0.1,0.2-0.1c0.6-0.4,1.2-0.8,1.9-1.1c0.1,0,0.2-0.1,0.3-0.1c0.6-0.3,1.3-0.6,1.9-0.9
	c0.1,0,0.2-0.1,0.3-0.1c0.6-0.2,1.3-0.5,2-0.7c0.1,0,0.2,0,0.2-0.1c0.7-0.2,1.4-0.3,2.1-0.5c0.1,0,0.1,0,0.2,0
	c0.7-0.1,1.4-0.2,2.2-0.3c0,0,0.1,0,0.1,0c0.7-0.1,1.5-0.1,2.2-0.1c0,0,0.1,0,0.1,0c0.7,0,1.5,0.1,2.2,0.1l0,0
	c0.7,0.1,1.5,0.2,2.2,0.4c0,0,0.1,0,0.1,0c0.7,0.2,1.4,0.3,2.1,0.6c0,0,0.1,0,0.1,0c0.7,0.2,1.4,0.5,2,0.7c0.1,0,0.1,0,0.2,0.1
	c0.7,0.3,1.3,0.6,1.9,0.9c0.1,0,0.1,0.1,0.2,0.1c0.6,0.3,1.2,0.7,1.8,1.1c0.1,0.1,0.2,0.1,0.3,0.2c0.6,0.4,1.1,0.8,1.7,1.3
	c0.1,0.1,0.2,0.1,0.2,0.2c0.6,0.5,1.1,1,1.6,1.5c0,0,0.1,0.1,0.1,0.1c0.6,0.6,1.1,1.2,1.6,1.8l40.6,50.9l7.3-64.7
	C368-58,380-67.6,393.3-66.1l0,0c13.3,1.5,22.8,13.4,21.3,26.7L400.8,83.2C400.7,84,400.6,84.7,400.5,85.4z"/>
<text id="shape2" transform="matrix(0.99 0.1412 -0.1412 0.99 1685.439 725.2198)" class="st12 st13 st14">B</text>
</svg>
