<?xml version="1.0" encoding="utf-8"?>
<!-- Generator: Adobe Illustrator 24.3.0, SVG Export Plug-In . SVG Version: 6.00 Build 0)  -->
<svg version="1.1" id="Layer_1" xmlns="http://www.w3.org/2000/svg" xmlns:xlink="http://www.w3.org/1999/xlink" x="0px" y="0px"
	 viewBox="0 0 101 101" style="enable-background:new 0 0 101 101;" xml:space="preserve">
<style type="text/css">
	.st0{display:none;}
	.st1{display:inline;}
	.st2{fill:#0000FF;}
	.st3{fill:#0071BC;}
	.st4{opacity:0.7;fill:#0071BC;}
	.st5{fill:#39B54A;}
</style>
<image style="display:none;overflow:visible;" width="220" height="230" xlink:href="1EEEFDD2.jpg"  transform="matrix(1.2576 0 0 1.2202 -43.0952 -40.3231)">
</image>
<image style="display:none;overflow:visible;opacity:0.54;" width="2551" height="2550" xlink:href="F:\Downloads\Kinder_Mission_Foundation_Web-03.jpg"  transform="matrix(0.1104 0 0 0.1104 -21.2287 -97.7534)">
</image>
<g class="st0">
	<g class="st1">
		<path class="st2" d="M100.4,93.2c1.9,0,1.9-3,0-3C98.5,90.2,98.5,93.2,100.4,93.2L100.4,93.2z"/>
	</g>
</g>
<g>
	<path class="st3" d="M-336-48.9l-30.7-2.6l5.3,17.1c8.2,1.9,17.8,1.7,27.4-1c0.3-0.1,0.6-0.2,0.9-0.3c0.3-0.1,0.7-0.2,1-0.3
		c0.3-0.1,0.7-0.2,1-0.3c0.3-0.1,0.6-0.2,0.9-0.3c9.5-3.3,17.5-8.5,23.2-14.7l-5.3-17.1L-336-48.9z"/>
	<path class="st3" d="M-350.8-97.8l-43.7,35.5l13.6,1.1l24.3-19.9c1.2-1,2.8-1.1,4.1-0.4l0,0c2.3,1.3,2.6,4.5,0.6,6.1l-18.4,15.1
		l31.9,2.7l43.7-35.5L-350.8-97.8z"/>
	<g>
		<polygon class="st3" points="-380.3,-59.2 -394.2,-60.3 -393,-56.4 -379.1,-55.3 		"/>
		<polygon class="st3" points="-338.1,-55.6 -372.4,-58.5 -371.2,-54.6 -336.8,-51.7 -293.1,-87.2 -294.3,-91.1 		"/>
	</g>
	<path class="st3" d="M-353.4-79.8c-0.7-0.4-1.5-0.3-2.1,0.2l-23.6,19.4l1.2,3.9l24.8-20.4C-352.1-77.5-352.2-79.2-353.4-79.8z"/>
	
		<rect x="-377.5" y="-61" transform="matrix(0.9556 -0.2948 0.2948 0.9556 -0.439 -113.0598)" class="st3" width="4.5" height="11.9"/>
	<polygon class="st3" points="-358.4,-21.1 -363.7,-17.6 -369.9,-17.7 -377,-48.3 -369.9,-50.5 	"/>
</g>
<path class="st3" d="M-33.2-77.9c0-14.4-11.7-26-26-26c-7.6,0-14.5,3.3-19.3,8.5c-4.8-5.2-11.6-8.5-19.3-8.5c-14.4,0-26,11.7-26,26
	c0,10.8,6.5,20,15.9,24l0,0c0,0,0,0,0,0c1.1,0.5,2.3,0.9,3.4,1.2c5.9,2.3,18,8.6,26,22.5c8-13.9,20.1-20.1,26-22.5
	c1.2-0.3,2.3-0.7,3.4-1.2c0,0,0,0,0,0l0,0C-39.8-57.9-33.2-67.1-33.2-77.9z M-62-64.8h-11.9v11.9h-9.2v-11.9h-11.9V-74h11.9v-11.9
	h9.2V-74H-62V-64.8z"/>
<path class="st4" d="M561.3-347.6c0-16.8-13.7-30.5-30.5-30.5c-8.9,0-17,3.9-22.6,10c-5.6-6.1-13.6-10-22.6-10
	c-16.8,0-30.5,13.7-30.5,30.5c0,12.6,7.7,23.4,18.6,28.1l0,0c0,0,0,0,0,0c1.3,0.6,2.6,1,4,1.4c6.9,2.7,21.1,10,30.4,26.3
	c9.4-16.3,23.6-23.6,30.4-26.3c1.4-0.4,2.7-0.8,4-1.4c0,0,0,0,0,0l0,0C553.6-324.2,561.3-335,561.3-347.6z M508.2-326.3l-0.9,0.2
	c0.3-0.3,0.6-0.6,0.9-0.9c0.3,0.3,0.6,0.6,0.9,0.9L508.2-326.3z"/>
<path class="st4" d="M-314.6,172.4c0-16.8-13.7-30.5-30.5-30.5c-8.9,0-17,3.9-22.6,10c-5.6-6.1-13.6-10-22.6-10
	c-16.8,0-30.5,13.7-30.5,30.5c0,12.6,7.7,23.4,18.6,28.1l0,0c0,0,0,0,0,0c1.3,0.6,2.6,1,4,1.4c6.9,2.7,21.1,10,30.4,26.3
	c9.4-16.3,23.6-23.6,30.4-26.3c1.4-0.4,2.7-0.8,4-1.4c0,0,0,0,0,0l0,0C-322.3,195.9-314.6,185.1-314.6,172.4z"/>
<g>
	<path class="st3" d="M562-244.9c-0.3-0.3-0.5-0.5-0.7-0.8c-0.2,0.3-0.5,0.5-0.7,0.8l0.7-0.1L562-244.9z"/>
	<path class="st3" d="M614.3-264.8c0-16.8-13.7-30.5-30.5-30.5c-8.9,0-17,3.9-22.6,10c-5.6-6.1-13.6-10-22.6-10
		c-16.8,0-30.5,13.7-30.5,30.5c0,12.6,7.7,23.4,18.6,28.1l0,0c0,0,0,0,0,0c1.3,0.6,2.6,1,4,1.4c6.9,2.7,21.1,10,30.4,26.3
		c9.4-16.3,23.6-23.6,30.4-26.3c1.4-0.4,2.7-0.8,4-1.4c0,0,0,0,0,0l0,0C606.7-241.3,614.3-252.1,614.3-264.8z M589.6-239.4
		L589.6-239.4C589.6-239.4,589.6-239.4,589.6-239.4c-1.1,0.5-2.2,0.8-3.3,1.1c-5.7,2.2-17.3,8.2-25,21.6
		c-7.7-13.4-19.4-19.4-25-21.6c-1.1-0.3-2.2-0.7-3.3-1.1c0,0,0,0,0,0l0,0c-9-3.8-15.3-12.7-15.3-23.1c0-13.8,11.2-25.1,25.1-25.1
		c7.4,0,14,3.2,18.6,8.2c4.6-5,11.2-8.2,18.6-8.2c13.8,0,25.1,11.2,25.1,25.1C604.9-252.1,598.6-243.2,589.6-239.4z"/>
</g>
<g>
	<path class="st3" d="M-11.4,25.1c0-7.9-6.4-14.4-14.4-14.4c-4.2,0-8,1.8-10.6,4.7c-2.6-2.9-6.4-4.7-10.6-4.7
		c-7.9,0-14.4,6.4-14.4,14.4c0,5.9,3.6,11,8.8,13.2l0,0c0,0,0,0,0,0c0.6,0.3,1.2,0.5,1.9,0.6c3.2,1.3,9.9,4.7,14.3,12.4
		C-32,43.7-25.3,40.3-22.1,39c0.7-0.2,1.3-0.4,1.9-0.6c0,0,0,0,0,0l0,0C-15,36.1-11.4,31-11.4,25.1z M-23,37L-23,37
		C-23,37-23,37-23,37c-0.5,0.2-1,0.4-1.6,0.5c-2.7,1.1-8.2,3.9-11.8,10.2c-3.6-6.3-9.1-9.1-11.8-10.2c-0.5-0.1-1.1-0.3-1.6-0.5
		c0,0,0,0,0,0l0,0c-4.2-1.8-7.2-6-7.2-10.9c0-6.5,5.3-11.8,11.8-11.8c3.5,0,6.6,1.5,8.7,3.9c2.2-2.4,5.3-3.9,8.7-3.9
		c6.5,0,11.8,5.3,11.8,11.8C-15.8,31.1-18.8,35.2-23,37z"/>
</g>
<g>
	<path class="st3" d="M-361.5,77.7c-0.3-0.3-0.5-0.5-0.7-0.8c-0.2,0.3-0.5,0.5-0.7,0.8l0.7-0.1L-361.5,77.7z"/>
	<path class="st3" d="M-309.1,57.8c0-16.8-13.7-30.5-30.5-30.5c-8.9,0-17,3.9-22.6,10c-5.6-6.1-13.6-10-22.6-10
		c-16.8,0-30.5,13.7-30.5,30.5c0,12.6,7.7,23.4,18.6,28.1l0,0c0,0,0,0,0,0c1.3,0.6,2.6,1,4,1.4c6.9,2.7,21.1,10,30.4,26.3
		c9.4-16.3,23.6-23.6,30.4-26.3c1.4-0.4,2.7-0.8,4-1.4c0,0,0,0,0,0l0,0C-316.8,81.3-309.1,70.4-309.1,57.8z M-333.9,83.2
		L-333.9,83.2C-333.9,83.2-333.9,83.2-333.9,83.2c-1.1,0.5-2.2,0.8-3.3,1.1c-5.7,2.2-17.3,8.2-25,21.6c-7.7-13.4-19.4-19.4-25-21.6
		c-1.1-0.3-2.2-0.7-3.3-1.1c0,0,0,0,0,0l0,0c-9-3.8-15.3-12.7-15.3-23.1c0-13.8,11.2-25.1,25.1-25.1c7.4,0,14,3.2,18.6,8.2
		c4.6-5,11.2-8.2,18.6-8.2c13.8,0,25.1,11.2,25.1,25.1C-318.6,70.4-324.9,79.3-333.9,83.2z"/>
</g>
<path class="st3" d="M-282.5-61.5c0,0,4.3,31.5,8.1,37.1S-256-9.7-256-9.7l-0.2-4.8c0,0-14.1-10.3-15.9-17.6s3.1-9.7,3.1-9.7
	s16.6,14.3,20.9,18.6c22.5,20.5,15.5,34.8,8.5,52.4c-0.8-8-7.7-10.6-18.2-15.2c-42.6-24-31.5-82.3-31.5-82.3L-282.5-61.5z"/>
<polygon class="st3" points="600.6,-358.2 588.7,-358.2 588.7,-370.1 579.5,-370.1 579.5,-358.2 567.5,-358.2 567.5,-348.9 
	579.5,-348.9 579.5,-337 588.7,-337 588.7,-348.9 600.6,-348.9 "/>
<g>
	<path class="st3" d="M502.2-154.1c-6.3-1-2.5,15.6,2.8,19.2c15.1,9.9,13,15.9-0.8,11.2c-1.1-0.3-2.2-0.7-3.3-1.1c0,0,0,0,0,0l0,0
		c-9-3.8-15.3-12.7-15.3-23.1c0-4,0.9-7.7,2.6-11.1c-1.7-4.1-2.6-8.5-2.7-13.1c-5.7,5.5-9.3,13.3-9.3,21.9
		c0,12.6,7.7,23.4,18.6,28.1l0,0c0,0,0,0,0,0c1.3,0.6,2.6,1,4,1.4c6.9,2.7,21.1,10,30.4,26.3c4.5-7.8,3.6-7.8,9-11.9
		c-0.6-0.9,0.4-12-10.2-23.4C520.7-137.7,508.8-152.5,502.2-154.1z"/>
</g>
<ellipse transform="matrix(0.2231 -0.9748 0.9748 0.2231 22.7723 68.1214)" class="st3" cx="54.1" cy="19.8" rx="18.7" ry="14.8"/>
<path class="st3" d="M17.3,13.4c0,0,1,10.1,4.7,17.9s14.1,20.2,14.1,20.2"/>
<g>
	
		<ellipse transform="matrix(0.2231 -0.9748 0.9748 0.2231 201.1047 147.3705)" class="st3" cx="193" cy="-52.5" rx="18.7" ry="14.8"/>
	<path class="st3" d="M156.1-58.9c0,0,1.9,12.1,5.1,18.8c3.2,6.7,13.7,19.4,13.7,19.4s-6.3,7.1-14.8,12.8
		c-8.5,5.7-21.3,10.8-21.3,10.8s10.5,2.7,20.7,0.7c10.2-2,21-8.9,21-8.9s-2,9.4-4.3,15.9s-7,18.5-7,18.5s14.4-11.1,21.2-22.8
		c6.8-11.7,7.9-24.7,7.9-24.7s10.9-4.5,17.8-11.3c7-6.7,12.8-17,12.8-17s-27,17.9-40.8,15C171.7-35.5,156.1-58.9,156.1-58.9z"/>
	<path class="st3" d="M156.1-58.9c0,0,1,10.1,4.7,17.9s14.1,20.2,14.1,20.2"/>
</g>
<g>
	<ellipse transform="matrix(0.9748 -0.2231 0.2231 0.9748 -5.5821 32.016)" class="st5" cx="138.9" cy="40.7" rx="7.7" ry="9.7"/>
	<path class="st5" d="M158.1,37.4c0,0-1,6.3-2.6,9.8s-7.1,10.1-7.1,10.1s3.3,3.7,7.7,6.7c4.4,3,11.1,5.6,11.1,5.6s-5.5,1.4-10.8,0.4
		c-5.3-1-10.9-4.7-10.9-4.7s1.1,4.9,2.2,8.3c1.2,3.4,3.6,9.6,3.6,9.6s-7.5-5.8-11-11.9c-3.6-6.1-4.1-12.9-4.1-12.9s-5.7-2.4-9.3-5.9
		c-3.6-3.5-6.7-8.9-6.7-8.9s14.1,9.3,21.3,7.8C150,49.6,158.1,37.4,158.1,37.4z"/>
	<path class="st5" d="M158.1,37.4c0,0-0.5,5.3-2.4,9.3s-7.4,10.5-7.4,10.5"/>
</g>
<path class="st3" d="M49.5,40.4c-16.6-3.7-32.2-27.1-32.2-27.1s1.9,12.1,5.1,18.8c3.2,6.7,13.7,19.4,13.7,19.4s-6.3,7.1-14.8,12.8
	C12.8,70,0,75.1,0,75.1s10.5,2.7,20.7,0.7s21-8.9,21-8.9s-2,9.4-4.3,15.9s-7,18.5-7,18.5s14.4-11.1,21.2-22.8
	c6.8-11.7,7.9-24.7,7.9-24.7s10.9-4.5,17.8-11.3c7-6.7,12.8-17,12.8-17S63.2,43.3,49.5,40.4z M54.2,54l-4.7-0.6l-0.6,4.7l-3.6-0.4
	l0.6-4.7l-4.7-0.6l0.4-3.6l4.7,0.6l0.6-4.7l3.6,0.4l-0.6,4.7l4.7,0.6L54.2,54z"/>
<polygon class="st3" points="142.3,-59.8 131.1,-59.8 131.1,-71 122.5,-71 122.5,-59.8 111.3,-59.8 111.3,-51.3 122.5,-51.3 
	122.5,-40 131.1,-40 131.1,-51.3 142.3,-51.3 "/>
</svg>
