<?xml version="1.0" encoding="utf-8"?>
<!-- Generator: Adobe Illustrator 24.3.0, SVG Export Plug-In . SVG Version: 6.00 Build 0)  -->
<svg version="1.1" id="Layer_1" xmlns="http://www.w3.org/2000/svg" xmlns:xlink="http://www.w3.org/1999/xlink" x="0px" y="0px"
	 viewBox="0 0 101 101" style="enable-background:new 0 0 101 101;" xml:space="preserve">
<style type="text/css">
	.st0{display:none;}
	.st1{display:inline;}
	.st2{fill:#0000FF;}
	.st3{fill:#0071BC;}
</style>
<image style="display:none;overflow:visible;opacity:0.5;" width="260" height="280" xlink:href="953E762A.jpg"  transform="matrix(0.7677 0 0 0.8327 -49.2986 -32.6774)">
</image>
<image style="display:none;overflow:visible;" width="220" height="230" xlink:href="953E762E.jpg"  transform="matrix(1.2576 0 0 1.2202 -43.0952 -40.3231)">
</image>
<g class="st0">
	<g class="st1">
		<path class="st2" d="M100.4,93.2c1.9,0,1.9-3,0-3C98.5,90.2,98.5,93.2,100.4,93.2L100.4,93.2z"/>
	</g>
</g>
<g>
	<path class="st3" d="M-113,29.2l-30.7-2.6l5.3,17.1c8.2,1.9,17.8,1.7,27.4-1c0.3-0.1,0.6-0.2,0.9-0.3c0.3-0.1,0.7-0.2,1-0.3
		c0.3-0.1,0.7-0.2,1-0.3c0.3-0.1,0.6-0.2,0.9-0.3c9.5-3.3,17.5-8.5,23.2-14.7l-5.3-17.1L-113,29.2z"/>
	<path class="st3" d="M-127.8-19.6l-43.7,35.5l13.6,1.1l24.3-19.9c1.2-1,2.8-1.1,4.1-0.4l0,0c2.3,1.3,2.6,4.5,0.6,6.1l-18.4,15.1
		l31.9,2.7l43.7-35.5L-127.8-19.6z"/>
	<g>
		<polygon class="st3" points="-157.4,18.9 -171.2,17.8 -170,21.7 -156.2,22.9 		"/>
		<polygon class="st3" points="-115.1,22.5 -149.4,19.6 -148.2,23.5 -113.9,26.4 -70.2,-9.1 -71.4,-13 		"/>
	</g>
	<path class="st3" d="M-130.5-1.7c-0.7-0.4-1.5-0.3-2.1,0.2l-23.6,19.4l1.2,3.9l24.8-20.4C-129.1,0.6-129.3-1-130.5-1.7z"/>
	
		<rect x="-154.5" y="17.1" transform="matrix(0.9556 -0.2948 0.2948 0.9556 -13.5643 -43.8618)" class="st3" width="4.5" height="11.9"/>
	<polygon class="st3" points="-135.5,57.1 -140.7,60.6 -146.9,60.5 -154,29.8 -146.9,27.7 	"/>
</g>
<path class="st3" d="M95.6,34.5c0-14.4-11.7-26-26-26c-7.6,0-14.5,3.3-19.3,8.5C45.5,11.7,38.6,8.4,31,8.4c-14.4,0-26,11.7-26,26
	c0,10.8,6.5,20,15.9,24l0,0c0,0,0,0,0,0c1.1,0.5,2.3,0.9,3.4,1.2c5.9,2.3,18,8.6,26,22.5c8-13.9,20.1-20.1,26-22.5
	c1.2-0.3,2.3-0.7,3.4-1.2c0,0,0,0,0,0l0,0C89,54.5,95.6,45.2,95.6,34.5z M66.8,47.6H54.9v11.9h-9.2V47.6H33.7v-9.2h11.9V26.4h9.2
	v11.9h11.9V47.6z"/>
<path class="st3" d="M257-47.6c0-14.4-11.7-26-26-26c-7.6,0-14.5,3.3-19.3,8.5c-4.8-5.2-11.6-8.5-19.3-8.5c-14.4,0-26,11.7-26,26
	c0,10.8,6.5,20,15.9,24l0,0c0,0,0,0,0,0c1.1,0.5,2.3,0.9,3.4,1.2c5.9,2.3,18,8.6,26,22.5c8-13.9,20.1-20.1,26-22.5
	c1.2-0.3,2.3-0.7,3.4-1.2c0,0,0,0,0,0l0,0C250.4-27.6,257-36.9,257-47.6z M211.7-29.5l-0.8,0.2c0.3-0.3,0.5-0.5,0.8-0.8
	c0.3,0.3,0.5,0.5,0.8,0.8L211.7-29.5z"/>
<polygon class="st3" points="228.2,-43.8 216.3,-43.8 216.3,-55.7 207.1,-55.7 207.1,-43.8 195.1,-43.8 195.1,-34.5 207.1,-34.5 
	207.1,-22.6 216.3,-22.6 216.3,-34.5 228.2,-34.5 "/>
</svg>
