<?xml version="1.0" encoding="utf-8"?>
<!-- Generator: Adobe Illustrator 24.3.0, SVG Export Plug-In . SVG Version: 6.00 Build 0)  -->
<svg version="1.1" id="Layer_1" xmlns="http://www.w3.org/2000/svg" xmlns:xlink="http://www.w3.org/1999/xlink" x="0px" y="0px"
	 viewBox="0 0 400 300" style="enable-background:new 0 0 400 300;" xml:space="preserve">
<style type="text/css">
	.st0{opacity:4.000000e-02;fill:#1D75BB;enable-background:new    ;}
	.st1{fill:none;stroke:#74AAD5;stroke-miterlimit:10;}
	.st2{fill:none;stroke:#1D75BB;stroke-width:10;stroke-miterlimit:10;}
	.st3{fill:#1D75BB;}
	.st4{fill:none;stroke:#8CC63F;stroke-width:10;stroke-miterlimit:10;}
	.st5{fill:#8CC63F;}
	.st6{opacity:5.000000e-02;fill:#1D75BB;enable-background:new    ;}
	.st7{fill:none;stroke:#1D75BB;stroke-width:13;stroke-miterlimit:10;}
	.st8{fill:none;stroke:#1D75BB;stroke-width:13.0001;stroke-miterlimit:10.0001;}
	.st9{fill:url(#SVGID_1_);}
	.st10{fill:url(#SVGID_2_);}
	.st11{fill:url(#SVGID_3_);}
	.st12{fill:url(#SVGID_4_);}
	.st13{fill:url(#SVGID_5_);}
	.st14{fill:url(#SVGID_6_);}
	.st15{fill:url(#SVGID_7_);}
	.st16{fill:url(#SVGID_8_);}
	.st17{fill:url(#SVGID_9_);}
	.st18{fill:url(#SVGID_10_);}
	.st19{fill:url(#SVGID_11_);}
	.st20{fill:url(#SVGID_12_);}
	.st21{fill:url(#SVGID_13_);}
	.st22{fill:none;stroke:#8CC63F;stroke-width:12;stroke-miterlimit:10;}
</style>
<path class="st0" d="M-621.1,1947.8c-34.4-27.1-49.2-62.6-37.5-90.6c0.1-0.3,0.2-0.5,0.3-0.8c36.1-90.9-212.1-274.8-554.4-410.8
	s-649-172.5-685.1-81.6c-10.2,25.6,2.2,58.6,33,95.9c37.6,45.6,22.1,94.9-33.6,106.7c-116.7,24.8-199.7,77.1-231.2,156.3
	c-85.5,215.1,242,547.1,731.3,741.5S-443,2642-357.6,2426.9C-304.1,2292.2-412.5,2111.7-621.1,1947.8z"/>
<g>
	<g>
		<path class="st1" d="M-972.8,1409.5"/>
	</g>
</g>
<g>
	<g>
		<path class="st1" d="M-1282.8,1368.9"/>
	</g>
</g>
<circle class="st2" cx="-1409" cy="1106.3" r="132.5"/>
<circle class="st2" cx="-1013.5" cy="1138.6" r="132.5"/>
<circle class="st2" cx="-695.9" cy="1406.4" r="132.5"/>
<g>
	
		<ellipse transform="matrix(2.843633e-02 -0.9996 0.9996 2.843633e-02 -2948.8501 264.6267)" class="st3" cx="-1338.3" cy="1649.3" rx="140.6" ry="102.2"/>
	<path class="st3" d="M-1595.8,1634.3c0,0,24.9,88.9,53.1,136.2c28.2,47.3,112.6,132.6,112.6,132.6s-36.2,58.5-88.2,109
		c-52,50.5-134.3,99.7-134.3,99.7s74.4,10.6,141.9-13.5c67.4-24.1,134.3-85.8,134.3-85.8s-4.6,72.5-13.4,122.7
		s-29.4,144.6-29.4,144.6s86.9-95.7,121.9-189.5s29.7-192,29.7-192s69.7-43.5,110.5-100.3c40.8-56.7,70.5-139,70.5-139
		s-166.5,158.1-263.1,149.2C-1466.7,1795.7-1595.8,1634.3-1595.8,1634.3z"/>
	<path class="st3" d="M-1595.8,1634.3c0,0,16.7,74.9,49.4,130.1c32.7,55.1,116.3,138.7,116.3,138.7L-1595.8,1634.3z"/>
</g>
<path class="st3" d="M187.1,191.9c0,0,3.7,13.1,7.8,20s16.6,19.5,16.6,19.5s-5.3,8.6-13,16s-19.7,14.6-19.7,14.6s10.9,1.6,20.9-2
	c9.9-3.5,19.7-12.6,19.7-12.6s-0.7,10.7-2,18c-1.3,7.4-4.3,21.3-4.3,21.3s12.8-14.1,17.9-27.9c5.1-13.8,4.4-28.2,4.4-28.2
	s10.2-6.4,16.2-14.7c6-8.3,10.4-20.4,10.4-20.4s-24.5,23.2-38.7,21.9C206.1,215.6,187.1,191.9,187.1,191.9z"/>
<g>
	
		<rect x="-1135" y="1286" transform="matrix(0.5703 -0.8214 0.8214 0.5703 -1540.7997 -360.062)" class="st3" width="40.8" height="13.4"/>
	
		<rect x="-1167.2" y="1332.5" transform="matrix(0.5703 -0.8214 0.8214 0.5703 -1592.8191 -366.6165)" class="st3" width="40.8" height="13.4"/>
	
		<rect x="-1199.5" y="1378.9" transform="matrix(0.5703 -0.8214 0.8214 0.5703 -1644.8384 -373.1711)" class="st3" width="40.8" height="13.4"/>
	
		<rect x="-1231.7" y="1425.4" transform="matrix(0.5703 -0.8214 0.8214 0.5703 -1696.869 -379.6336)" class="st3" width="40.8" height="13.4"/>
	
		<rect x="-1264" y="1472" transform="matrix(0.5703 -0.8214 0.8214 0.5703 -1748.9803 -386.1997)" class="st3" width="40.8" height="13.4"/>
</g>
<g>
	
		<rect x="-1385.4" y="1259.4" transform="matrix(0.9902 -0.1397 0.1397 0.9902 -192.3076 -180.0571)" class="st3" width="13.4" height="40.8"/>
	
		<rect x="-1377.5" y="1315.4" transform="matrix(0.9902 -0.1397 0.1397 0.9902 -200.0551 -178.3995)" class="st3" width="13.4" height="40.8"/>
	
		<rect x="-1369.6" y="1371.4" transform="matrix(0.9902 -0.1397 0.1397 0.9902 -207.8026 -176.7419)" class="st3" width="13.4" height="40.8"/>
	
		<rect x="-1361.7" y="1427.5" transform="matrix(0.9902 -0.1397 0.1397 0.9902 -215.553 -175.098)" class="st3" width="13.4" height="40.8"/>
</g>
<g>
	<g>
		
			<rect x="-890.1" y="1466.1" transform="matrix(0.9299 -0.3679 0.3679 0.9299 -602.812 -216.6735)" class="st3" width="40.8" height="13.4"/>
		
			<rect x="-942.7" y="1486.9" transform="matrix(0.9299 -0.3679 0.3679 0.9299 -614.1661 -234.5733)" class="st3" width="40.8" height="13.4"/>
		
			<rect x="-995.4" y="1507.7" transform="matrix(0.9299 -0.3679 0.3679 0.9299 -625.5204 -252.4731)" class="st3" width="40.8" height="13.4"/>
		
			<rect x="-1048" y="1528.6" transform="matrix(0.9299 -0.3679 0.3679 0.9299 -636.8746 -270.3729)" class="st3" width="40.8" height="13.4"/>
	</g>
	<g>
		<path class="st3" d="M-1048.7,1538.8L-1048.7,1538.8z"/>
		
			<rect x="-1100.3" y="1551.5" transform="matrix(0.9299 -0.3679 0.3679 0.9299 -648.9927 -288.0028)" class="st3" width="40.8" height="13.4"/>
		
			<rect x="-1152.9" y="1572.4" transform="matrix(0.9299 -0.3679 0.3679 0.9299 -660.347 -305.9026)" class="st3" width="40.8" height="13.4"/>
		
			<rect x="-1205.6" y="1593.2" transform="matrix(0.9299 -0.3679 0.3679 0.9299 -671.7012 -323.8025)" class="st3" width="40.8" height="13.4"/>
	</g>
</g>
<polygon class="st4" points="-614.2,1386.4 -673,1384.8 -671.3,1325.9 -715.9,1324.7 -717.6,1383.5 -776.4,1381.8 -777.7,1426.4 
	-718.9,1428.1 -720.6,1486.9 -675.9,1488.2 -674.3,1429.4 -615.4,1431.1 "/>
<g>
	<path class="st4" d="M-288.2,181.4c-14.7-14.8-29.9-30-44.5-44.6c30.8-30.8,61.8-61.9,92.3-92.5c14.5,14.6,29.8,30,44.5,44.7
		C-225.9,119-257,150.1-288.2,181.4z"/>
	<path class="st5" d="M-177.1,206.2c-3.4,0-6.4,0-10.4,0c0-12.4,0-24.7,0-38.2c-6.5,0-12.2-0.4-17.7,0.1c-8.6,0.9-15.5-1.1-21.1-8.3
		c-1.4-1.8-5.5-2-8.4-2.2c-5.2-0.3-10.4-0.1-15.6-0.1c10.2-10.2,19.6-19.6,29.8-29.7c0.1,4.5,0.8,9.9,0.2,15.1
		c-0.8,6.2,3.9,13.5,10.3,13.8c7,0.3,14,0.1,21.9,0.1c0-12.8,0-25.1,0-38c4.1,0,7.3,0,11,0C-177.1,147.8-177.1,176.5-177.1,206.2z"
		/>
	<path class="st4" d="M-335.5,157.7c3.7-3.9,7.7-8,11.2-11.6c9.1,9.1,17.8,17.9,26.8,26.9c-3.6,3.3-7.9,7.3-11.9,11
		C-317.6,175.8-326.3,167-335.5,157.7z"/>
</g>
<g>
	<rect x="-1109.6" y="-573.9" class="st3" width="37.2" height="102.2"/>
	<rect x="-1109.6" y="-432.9" class="st3" width="37.2" height="102.2"/>
	<rect x="-1109.6" y="-291.9" class="st3" width="37.2" height="102.2"/>
	<rect x="-1109.6" y="-150.9" class="st3" width="37.2" height="102.2"/>
	<rect x="-1109.6" y="-9.9" class="st3" width="37.2" height="102.2"/>
	<rect x="-1109.6" y="272" class="st3" width="37.2" height="102.2"/>
	<rect x="-1109.6" y="131.1" class="st3" width="37.2" height="102.2"/>
	<rect x="-1109.7" y="413" class="st3" width="37.2" height="102.2"/>
	<rect x="-1109.7" y="554" class="st3" width="37.2" height="102.2"/>
	<rect x="-1109.7" y="695" class="st3" width="37.2" height="102.2"/>
</g>
<g>
	<rect x="-1041.5" y="-432.5" class="st3" width="37.2" height="102.2"/>
	<rect x="-1041.5" y="-291.5" class="st3" width="37.2" height="102.2"/>
	<rect x="-1041.6" y="-150.5" class="st3" width="37.2" height="102.2"/>
	<rect x="-1041.6" y="-9.5" class="st3" width="37.2" height="102.2"/>
	<rect x="-1041.6" y="131.5" class="st3" width="37.2" height="102.2"/>
	<rect x="-1041.6" y="413.5" class="st3" width="37.2" height="102.2"/>
	<rect x="-1041.6" y="272.5" class="st3" width="37.2" height="102.2"/>
	<rect x="-1041.6" y="554.4" class="st3" width="37.2" height="102.2"/>
	<rect x="-1041.6" y="695.4" class="st3" width="37.2" height="102.2"/>
	<rect x="-1041.6" y="836.4" class="st3" width="37.2" height="102.2"/>
</g>
<g>
	<path class="st3" d="M-1898.6-855.6c26.6-176.5,179.2-312.2,363-312.2s336.4,135.7,363,312.2h23.4c-4.7-33.3-13.7-65.8-26.9-97
		c-19.7-46.5-47.8-88.2-83.6-124c-35.8-35.8-77.6-64-124-83.6c-48.1-20.4-99.2-30.7-151.9-30.7c-52.7,0-103.8,10.3-151.9,30.7
		c-46.5,19.7-88.2,47.8-124,83.6c-35.8,35.8-64,77.6-83.6,124c-13.2,31.2-22.2,63.7-26.9,97L-1898.6-855.6L-1898.6-855.6z"/>
	<path class="st3" d="M-1170-767.7c-16.8,187-174.3,334-365.6,334s-348.8-147.1-365.6-334h-23.2c3.4,41,13.2,80.9,29.3,118.9
		c19.7,46.5,47.8,88.2,83.6,124c35.8,35.8,77.6,64,124,83.6c48.1,20.4,99.2,30.7,151.9,30.7c52.7,0,103.8-10.3,151.9-30.7
		c46.5-19.7,88.2-47.8,124-83.6s64-77.6,83.6-124c16.1-38,25.9-77.8,29.3-118.9H-1170z"/>
</g>
<g>
	<path class="st3" d="M886.1,1696.9l-91.6-45.4c-17.6-8.7-39.9,0.4-49.7,20.3l-17.5,35.4l-0.4-0.2c-15.3-7.6-34.2-1.7-45.3,13.1
		c-1.7,2.2-3.1,4.6-4.4,7.2l-0.8,1.6l-16.3,32.9l0,0l-4.6,9.3c-6.7,13.5-5.9,28.6,0.8,39.6c0.3,0.4,0.5,0.8,0.8,1.2
		c3.1,4.6,7.3,8.4,12.4,11l0.4,0.2l-17.5,35.4c-9.8,19.9-3.6,43.1,14,51.8l91.6,45.4c17.6,8.7,39.9-0.4,49.7-20.3l57.9-117
		l34.5-69.8C909.9,1728.8,903.7,1705.6,886.1,1696.9z M667.2,1787.7L667.2,1787.7c0.2-3.2,1-6.4,2.5-9.6l3.9-7.9l0,0l17.8-35.9
		c1.2-2.5,2.8-4.7,4.6-6.5c6.2-6.3,15.3-8.4,22.8-4.7l0.4,0.2l-6.6,13.4l-34.8,70.2l-0.4-0.2
		C670.5,1803.3,666.7,1795.7,667.2,1787.7z M885.8,1741.6l-34.3,69.3l-58.2,117.4c-5.4,11-17.7,16-27.4,11.2l-91.6-45.4
		c-9.7-4.8-13.2-17.6-7.7-28.6l17.5-35.4l42.6-85.9l14.8-30l17.5-35.4c5.4-11,17.7-16,27.4-11.2L878,1713
		C887.8,1717.8,891.2,1730.7,885.8,1741.6z"/>
	<g>
		<path class="st3" d="M454.8,1864.8c-3.6,1-7.4,1.7-11.1,2.2c-56.2,6.5-106.4-50.9-112.1-128.3c-5.8-77.4,35.1-145.4,91.2-151.9
			c29.8-3.5,57.9,11.1,78.5,37c18.4,23,30.9,54.9,33.6,91.3C540.3,1787.2,505.1,1851.2,454.8,1864.8z"/>
		<path class="st3" d="M690.7,1711.9C690.7,1711.9,690.7,1712,690.7,1711.9c0,0.1,0,0.1,0,0.2c-0.2,0.9-1.1,5-2.8,11.4
			c-2.8,10.6-7.5,27.5-14.3,46.7l0,0c-2,5.6-4.1,11.5-6.4,17.4l0,0c-3.1,8-6.5,16.1-10.2,24.2c-4.7,10.3-9.9,20.5-15.6,30.1
			c-1.2,2-2.4,4-3.7,6.1c0,0.1-0.1,0.1-0.1,0.2c-12.3,19.3-29.8,41.4-47.3,61.9c-0.6,0.7-1.2,1.4-1.8,2.1
			c-24.6,28.6-48.9,53.8-58.8,63.8c-0.2,0.2-0.3,0.3-0.5,0.5c-0.3,0.3-0.6,0.6-0.8,0.9c-0.3,0.3-0.6,0.6-0.8,0.8
			c-0.1,0.1-0.3,0.2-0.4,0.4c-0.2,0.2-0.4,0.4-0.6,0.6c-0.1,0.1-0.2,0.2-0.3,0.3c-0.1,0.1-0.2,0.2-0.2,0.3l-0.9,0.9L660,1761.8l0,0
			l24.6-40l0,0L690.7,1711.9L690.7,1711.9z"/>
	</g>
	<path class="st3" d="M747.5,2189.3c0,0-74.4,10.6-141.9-13.5c-67.4-24.1-134.3-85.8-134.3-85.8s4.7,72.5,13.4,122.7
		c8,45.8,25.9,128.6,29,142.6c0.3,1.2,0.4,1.9,0.4,2c-0.1-0.1-1.2-1.3-3-3.4c-8.1-9.2-31.4-36.5-56.3-72.2
		c-23.1-33.2-47.6-73.7-62.6-113.8c-35-93.8-29.7-192-29.7-192s-69.7-43.5-110.5-100.3c-40.5-56.3-70.1-137.7-70.5-139
		c1,1,136.7,129.5,233.8,147.4l11.8,15.1l-13.7,74.2l25.8,22.1l15.6-16.5L465,1968l-10.3-41.9l-6.6-27l6.6-6.9l9.6-10
		c87.6-20.9,177.6-114.5,211.9-153.3c2.6-3,4.9-5.6,6.9-7.9c4.7-5.5,7.3-8.7,7.6-9.1l0,0c0,0,0,0,0,0.1c-0.2,0.7-1.4,4.8-3.3,11.2
		c-5.4,18-17.1,54.5-31.2,87.4c-5.8,13.6-12.1,26.6-18.6,37.4c0,0.1-0.1,0.1-0.1,0.2c-10.5,17.5-28.6,40.2-47.3,61.9
		c-0.6,0.7-1.2,1.4-1.8,2.1c-24.5,28.3-49.6,54.4-59.2,64.3c-0.3,0.3-0.6,0.6-0.8,0.9c-0.3,0.3-0.6,0.6-0.8,0.8
		c-0.1,0.1-0.3,0.2-0.4,0.4c-0.2,0.2-0.4,0.4-0.6,0.6c-0.1,0.1-0.2,0.2-0.3,0.3c-0.1,0.1-0.2,0.2-0.2,0.3c-0.1,0.1-0.2,0.2-0.2,0.2
		l-0.7,0.7l0,0c0,0,36.2,58.5,88.2,109C665.3,2140.2,747.5,2189.3,747.5,2189.3z"/>
</g>
<path class="st3" d="M449.7-821.6l-64.1-31.8c-12.3-6.1-27.9,0.3-34.8,14.2l-12.3,24.8l-0.3-0.1c-10.7-5.3-23.9-1.2-31.7,9.2
	c-1.2,1.5-2.2,3.2-3.1,5l-0.6,1.1l-11.4,23l0,0l-3.2,6.5c-4.7,9.5-4.2,20,0.6,27.7c0.2,0.3,0.4,0.6,0.5,0.8c2.2,3.2,5.1,5.9,8.7,7.7
	l0.3,0.1l-12.3,25c-6.9,13.9-2.5,30.2,9.8,36.3l64.1,31.8c12.3,6.1,27.9-0.3,34.8-14.2l40.6-81.9l24.2-48.8
	C466.4-799.2,462-815.5,449.7-821.6z M296.4-758L296.4-758c0.1-2.2,0.7-4.5,1.8-6.7l2.7-5.5l0,0l12.4-25.1c0.9-1.7,2-3.3,3.2-4.5
	c4.4-4.4,10.7-5.9,16-3.3l0.3,0.1l-4.6,9.4l-24.3,49.1l-0.3-0.1C298.8-747.1,296.1-752.4,296.4-758z M449.5-790.2l-24,48.5
	l-40.7,82.2c-3.8,7.7-12.4,11.2-19.2,7.8l-64.1-31.8c-6.8-3.4-9.2-12.3-5.4-20l12.3-24.8l29.8-60.1l10.4-21l12.3-24.8
	c3.8-7.7,12.4-11.2,19.2-7.8l64.1,31.8C450.9-806.9,453.3-797.9,449.5-790.2z"/>
<g>
	<path class="st5" d="M-218.8,1671.4c10.7,13.9,26.7,23,44.1,25.2l0,0c3,0.4,6.1,0.5,9.1,0.5c15.9,1.6,49.6,8.3,78.6,36.5
		c9.7-39.3,34.8-62.8,47.4-72.5c2.7-1.6,5.2-3.3,7.5-5.2l0,0c19.9-16.1,29.3-43,21.8-69.1c-10-34.9-46.3-55.1-81.2-45.1
		c-18.5,5.3-32.9,18-40.8,34c-15.2-9.4-34.1-12.6-52.6-7.3c-34.9,10-55,46.3-45.1,81.2C-227.5,1657.6-223.7,1665-218.8,1671.4z
		 M-208.9,1648.5c-8.2-28.7,8.4-58.5,37.1-66.8c15.2-4.4,30.8-1.7,43.3,6c6.5-13.1,18.3-23.6,33.6-28c28.7-8.2,58.5,8.4,66.8,37.1
		c6.1,21.5-1.6,43.6-18,56.8l0,0l0,0c-1.9,1.6-4,3-6.2,4.3c-10.4,8-31,27.3-39,59.6c-23.9-23.2-51.6-28.7-64.6-30
		c-2.5,0-5-0.1-7.5-0.4l0,0l0,0C-184.5,1684.7-202.8,1670-208.9,1648.5z"/>
	<g>
		<path class="st5" d="M-169.7,1947.1c2.4-1,4.8-2.2,7.1-3.6c33.9-20.3,37.3-73.6,7.5-119s-81.5-65.7-115.4-45.4
			c-18,10.8-27.4,30.8-27.8,54c-0.4,20.6,6.3,43.7,20.3,65C-250.3,1940.6-203.5,1961.1-169.7,1947.1z"/>
	</g>
	<path class="st5" d="M-193.7,2252.1c0,0,45.8-25.9,73-68c27.1-42.1,37.9-104.9,37.9-104.9s28.3,42.2,44.9,73.8
		c15.1,28.8,40.5,82.4,44.8,91.5c0.4,0.8,0.6,1.2,0.6,1.3c0-0.1,0.1-1.2,0.2-3.2c0.6-8.6,1.9-33.6,0.4-64.1
		c-1.3-28.3-5-61.2-13.8-89.9c-20.6-67-65.4-119.2-65.4-119.2s20.1-53.9,18.6-102.8c-1.6-48.5-19.9-106.3-20.1-107.2
		c-0.2,1-20.6,130.1-66.9,181.5l-0.1,13.4l39.2,35.3l-4.9,23.3l-15.7-2.5l-10.3-1.7l-12.2-27.6l-7.9-17.8l-6.6-1l-9.6-1.4
		c-57.6,25.7-147.4,12.2-183,5.3c-2.7-0.5-5.1-1-7.2-1.5c-4.9-1-7.8-1.7-8.1-1.8l0,0c0,0,0,0,0.1,0c0.4,0.3,2.8,2.1,6.6,4.8
		c10.7,7.7,32.7,23,54.6,35.2c9,5.1,18.1,9.6,26.3,12.8c0,0,0.1,0,0.1,0.1c13.3,5.2,33,10.1,52.7,14.2c0.6,0.1,1.2,0.3,1.9,0.4
		c25.7,5.2,50.8,9,60.3,10.4c0.3,0,0.6,0.1,0.8,0.1c0.3,0,0.6,0.1,0.8,0.1c0.1,0,0.2,0,0.4,0s0.4,0.1,0.6,0.1c0.1,0,0.2,0,0.3,0
		s0.2,0,0.2,0c0.1,0,0.2,0,0.2,0l0.7,0.1l0,0c0,0,4.9,47.9-2.4,98.1C-169.1,2189.7-193.7,2252.1-193.7,2252.1z"/>
</g>
<path class="st6" d="M464.5,2264.8c-88.5,0-171.2,3.9-241.2,10.6c0.3-0.9,0.4-1.7,0.4-2.6c0-27.3-143.5-49.3-320.5-49.3
	s-320.5,22.1-320.5,49.3c0,27.3,143.5,49.3,320.5,49.3c41,0,80.1-1.2,116.1-3.3c-8.3,5.3-12.7,10.8-12.7,16.5
	c0,38.9,205,70.5,457.9,70.5s457.9-31.6,457.9-70.5S717.4,2264.8,464.5,2264.8z"/>
<path class="st6" d="M1035.8-687.9c-88.5,0-171.2,3.9-241.2,10.6c0.3-0.9,0.4-1.7,0.4-2.6c0-27.3-143.5-49.3-320.5-49.3
	S154-707.2,154-679.9s143.5,49.3,320.5,49.3c40.9,0,80.1-1.2,116.1-3.3c-8.3,5.3-12.7,10.8-12.7,16.5c0,38.9,205,70.5,457.9,70.5
	s457.9-31.6,457.9-70.5C1493.7-656.3,1288.7-687.9,1035.8-687.9z"/>
<path class="st6" d="M638.9-1644c-35.8,0-69.1,1.6-97.4,4.3c0.1-0.3,0.2-0.7,0.2-1.1c0-11-58-19.9-129.4-19.9s-129.4,8.9-129.4,19.9
	s58,19.9,129.4,19.9c16.5,0,32.4-0.5,46.9-1.3c-3.3,2.1-5.1,4.4-5.1,6.7c0,15.7,82.8,28.5,184.9,28.5s184.9-12.7,184.9-28.5
	S741-1644,638.9-1644z"/>
<g>
	<g>
		<path class="st3" d="M224.9,176.1l-12.4-5v7.8c3.2,1.8,7.2,3,11.5,3.1c0.1,0,0.3,0,0.4,0c0.1,0,0.3,0,0.5,0s0.3,0,0.5,0
			c0.1,0,0.3,0,0.4,0c4.4-0.1,8.3-1.3,11.5-3.1v-7.8L224.9,176.1z"/>
		<path class="st3" d="M225,153.9l-22.7,9.2l5.5,2.2l12.7-5.2c0.6-0.2,1.3-0.1,1.8,0.4l0,0c0.8,0.8,0.5,2.2-0.5,2.6L212,167
			l12.9,5.2l22.7-9.2L225,153.9z"/>
	</g>
	<g>
		<polygon class="st3" points="207.7,166.2 202.1,163.9 202.1,165.7 207.7,167.9 		"/>
		<polygon class="st3" points="224.9,173 211,167.4 211,169.2 224.9,174.8 247.6,165.7 247.6,163.9 		"/>
	</g>
	<path class="st3" d="M221.6,161c-0.2-0.2-0.6-0.3-0.9-0.2l-12.3,5v1.8l12.9-5.3C221.8,162.1,222,161.4,221.6,161z"/>
	<rect x="208.3" y="165.9" class="st3" width="2" height="5.2"/>
	<polygon class="st3" points="211.9,184.8 209.3,185.6 206.8,184.8 207.7,171.1 211,171.1 	"/>
</g>
<path class="st3" d="M-851.9,205.8h-171.2c-19.2,0-34.8-15.6-34.8-34.8V-0.2c0-19.2,15.6-34.8,34.8-34.8h171.2
	c19.2,0,34.8,15.6,34.8,34.8V171C-817,190.2-832.6,205.8-851.9,205.8z"/>
<g>
	<ellipse class="st7" cx="-627.4" cy="83.7" rx="129.9" ry="37.9"/>
	
		<ellipse transform="matrix(0.5354 -0.8446 0.8446 0.5354 -362.1615 -491.0164)" class="st7" cx="-627.4" cy="83.7" rx="129.9" ry="37.9"/>
	
		<ellipse transform="matrix(0.8448 -0.5351 0.5351 0.8448 -142.1646 -322.7212)" class="st8" cx="-627.4" cy="83.7" rx="37.9" ry="129.9"/>
</g>
<g>
	
		<linearGradient id="SVGID_1_" gradientUnits="userSpaceOnUse" x1="136.873" y1="218.467" x2="141.5535" y2="223.1476" gradientTransform="matrix(1 0 0 -1 0 300)">
		<stop  offset="0" style="stop-color:#1D75BB"/>
		<stop  offset="0.1807" style="stop-color:#2C80AB"/>
		<stop  offset="0.5365" style="stop-color:#529C80"/>
		<stop  offset="1" style="stop-color:#8CC63F"/>
	</linearGradient>
	<path class="st9" d="M142.4,78.1h-2.1V76c0-0.6-0.5-1-1-1h0c-0.6,0-1,0.5-1,1v2.1H136c-0.6,0-1,0.5-1,1v0c0,0.6,0.5,1,1,1h2.1v2.1
		c0,0.6,0.5,1,1,1h0c0.6,0,1-0.5,1-1v-2.1h2.1c0.6,0,1-0.5,1-1v0C143.4,78.6,143,78.1,142.4,78.1z"/>
	
		<linearGradient id="SVGID_2_" gradientUnits="userSpaceOnUse" x1="136.2141" y1="207.3572" x2="142.1926" y2="213.3357" gradientTransform="matrix(1 0 0 -1 0 300)">
		<stop  offset="0" style="stop-color:#1D75BB"/>
		<stop  offset="0.1807" style="stop-color:#2C80AB"/>
		<stop  offset="0.5365" style="stop-color:#529C80"/>
		<stop  offset="1" style="stop-color:#8CC63F"/>
	</linearGradient>
	<path class="st10" d="M142.2,86.7L142.2,86.7c-0.4-0.4-1.1-0.4-1.5,0l-1.5,1.5l-1.5-1.5c-0.4-0.4-1.1-0.4-1.5,0l0,0
		c-0.4,0.4-0.4,1.1,0,1.5l1.5,1.5l-1.5,1.5c-0.4,0.4-0.4,1.1,0,1.5l0,0c0.4,0.4,1.1,0.4,1.5,0l1.5-1.5l1.5,1.5
		c0.4,0.4,1.1,0.4,1.5,0l0,0c0.4-0.4,0.4-1.1,0-1.5l-1.5-1.5l1.5-1.5C142.6,87.8,142.6,87.1,142.2,86.7z"/>
	
		<linearGradient id="SVGID_3_" gradientUnits="userSpaceOnUse" x1="152.5261" y1="218.4657" x2="157.204" y2="223.1436" gradientTransform="matrix(1 0 0 -1 0 300)">
		<stop  offset="0" style="stop-color:#1D75BB"/>
		<stop  offset="0.1807" style="stop-color:#2C80AB"/>
		<stop  offset="0.5365" style="stop-color:#529C80"/>
		<stop  offset="1" style="stop-color:#8CC63F"/>
	</linearGradient>
	<path class="st11" d="M151.7,80.2h6.4c0.6,0,1-0.5,1-1v0c0-0.6-0.5-1-1-1h-6.4c-0.6,0-1,0.5-1,1v0
		C150.6,79.8,151.1,80.2,151.7,80.2z"/>
	
		<linearGradient id="SVGID_4_" gradientUnits="userSpaceOnUse" x1="152.5261" y1="207.9854" x2="157.204" y2="212.6633" gradientTransform="matrix(1 0 0 -1 0 300)">
		<stop  offset="0" style="stop-color:#1D75BB"/>
		<stop  offset="0.1807" style="stop-color:#2C80AB"/>
		<stop  offset="0.5365" style="stop-color:#529C80"/>
		<stop  offset="1" style="stop-color:#8CC63F"/>
	</linearGradient>
	<path class="st12" d="M151.7,90.7h6.4c0.6,0,1-0.5,1-1v0c0-0.6-0.5-1-1-1h-6.4c-0.6,0-1,0.5-1,1v0
		C150.6,90.3,151.1,90.7,151.7,90.7z"/>
	
		<linearGradient id="SVGID_5_" gradientUnits="userSpaceOnUse" x1="154.0097" y1="212.791" x2="155.7268" y2="214.5081" gradientTransform="matrix(1 0 0 -1 0 300)">
		<stop  offset="0" style="stop-color:#1D75BB"/>
		<stop  offset="0.1807" style="stop-color:#2C80AB"/>
		<stop  offset="0.5365" style="stop-color:#529C80"/>
		<stop  offset="1" style="stop-color:#8CC63F"/>
	</linearGradient>
	<circle class="st13" cx="154.9" cy="86.3" r="1.2"/>
	
		<linearGradient id="SVGID_6_" gradientUnits="userSpaceOnUse" x1="154.0097" y1="206.147" x2="155.7268" y2="207.8642" gradientTransform="matrix(1 0 0 -1 0 300)">
		<stop  offset="0" style="stop-color:#1D75BB"/>
		<stop  offset="0.1807" style="stop-color:#2C80AB"/>
		<stop  offset="0.5365" style="stop-color:#529C80"/>
		<stop  offset="1" style="stop-color:#8CC63F"/>
	</linearGradient>
	<circle class="st14" cx="154.9" cy="93" r="1.2"/>
	
		<linearGradient id="SVGID_7_" gradientUnits="userSpaceOnUse" x1="281.6911" y1="149.1878" x2="298.3358" y2="165.8325" gradientTransform="matrix(1 0 0 -1 0 300)">
		<stop  offset="0" style="stop-color:#1D75BB"/>
		<stop  offset="0.1807" style="stop-color:#2C80AB"/>
		<stop  offset="0.5365" style="stop-color:#529C80"/>
		<stop  offset="1" style="stop-color:#8CC63F"/>
	</linearGradient>
	<path class="st15" d="M299.5,139.8c-1,0-1.9,0.3-2.6,0.9h0v-6.2h-3.7v-0.2c0.6-0.7,0.9-1.7,0.9-2.6c0-2.3-1.9-4.2-4.2-4.2
		c-2.3,0-4.2,1.9-4.2,4.2c0,1,0.3,1.9,0.9,2.6v0.2h-0.9c-2.6,0-4.6,2.1-4.6,4.6v11.1h6.6v-2.9l-0.3-0.3c-0.4-0.4-0.6-1-0.6-1.5
		c0-1.2,1-2.2,2.2-2.2c1.2,0,2.2,1,2.2,2.2c0,0.6-0.2,1.1-0.6,1.5l-0.3,0.3v2.9h6.6v-3h0c0.7,0.6,1.7,0.9,2.6,0.9
		c2.3,0,4.2-1.9,4.2-4.2S301.8,139.8,299.5,139.8z M299.5,146.2c-0.6,0-1.1-0.2-1.5-0.6l-0.3-0.3h-2.8v3h-2.6v-0.1
		c0.6-0.7,0.9-1.7,0.9-2.6c0-2.3-1.9-4.2-4.2-4.2s-4.2,1.9-4.2,4.2c0,1,0.3,1.9,0.9,2.6v0.1h-2.6v-9.1c0-1.5,1.2-2.6,2.6-2.6h2.9v-3
		l-0.3-0.3c-0.4-0.4-0.6-1-0.6-1.5c0-1.2,1-2.2,2.2-2.2c1.2,0,2.2,1,2.2,2.2c0,0.6-0.2,1.1-0.6,1.5l-0.3,0.3v3h3.7v6.2h2.8l0.3-0.3
		c0.4-0.4,1-0.6,1.5-0.6c1.2,0,2.2,1,2.2,2.2C301.7,145.2,300.7,146.2,299.5,146.2z"/>
	
		<linearGradient id="SVGID_8_" gradientUnits="userSpaceOnUse" x1="140.9175" y1="109.0358" x2="281.3328" y2="249.4511" gradientTransform="matrix(1 0 0 -1 0 300)">
		<stop  offset="0" style="stop-color:#1D75BB"/>
		<stop  offset="0.1807" style="stop-color:#2C80AB"/>
		<stop  offset="0.5365" style="stop-color:#529C80"/>
		<stop  offset="1" style="stop-color:#8CC63F"/>
	</linearGradient>
	<path class="st16" d="M290.9,119.5c-2,0-4,0.3-5.8,0.8l-11.3-29c10.5-1.1,18.7-10,18.7-20.8c0-11.5-9.4-20.9-20.9-20.9
		c-11.1,0-20.2,8.6-20.9,19.5L165,74.6c-3.7-6.1-10.3-10.2-17.9-10.2c-11.5,0-20.9,9.4-20.9,20.9c0,10.9,8.4,19.9,19,20.8l-7.1,32.6
		c-11,0.6-19.8,9.7-19.8,20.9c0,11.5,9.4,20.9,20.9,20.9s20.9-9.4,20.9-20.9c0-4.4-1.3-8.4-3.6-11.7l39.7-24c3.6,4,8.7,6.7,14.4,7
		l1.6,7.9l2.9-0.6l-1.5-7.4c6.7-0.6,12.6-4.4,16-9.8l41,14c-0.5,1.7-0.7,3.5-0.7,5.4c0,11.5,9.4,20.9,20.9,20.9s20.9-9.4,20.9-20.9
		S302.5,119.5,290.9,119.5z M271.7,52.9c9.7,0,17.6,7.9,17.6,17.6c0,9.7-7.9,17.6-17.6,17.6c-9.7,0-17.6-7.9-17.6-17.6
		C254,60.8,261.9,52.9,271.7,52.9z M250.8,72.1c0.4,4.6,2.2,8.7,5,12L227,95.5c-3.8-4-9.2-6.5-15.1-6.5c-9,0-16.6,5.7-19.6,13.6
		l-26.3-8.3c1.3-2.7,2-5.8,2-9c0-2.8-0.5-5.4-1.5-7.9L250.8,72.1z M129.4,85.4c0-9.7,7.9-17.6,17.6-17.6c9.7,0,17.6,7.9,17.6,17.6
		c0,9.7-7.9,17.6-17.6,17.6C137.3,103,129.4,95.1,129.4,85.4z M139.2,177.3c-9.7,0-17.6-7.9-17.6-17.6c0-9.7,7.9-17.6,17.6-17.6
		c9.7,0,17.6,7.9,17.6,17.6C156.8,169.4,148.9,177.3,139.2,177.3z M154.7,145.6c-3.4-3.8-8.2-6.3-13.6-6.7l7.1-32.6
		c6.7-0.4,12.6-4,16.2-9.2l27,8.5c-0.3,1.4-0.5,2.9-0.5,4.4c0,4.2,1.3,8.2,3.5,11.5L154.7,145.6z M211.9,127.6
		c-9.7,0-17.6-7.9-17.6-17.6c0-9.7,7.9-17.6,17.6-17.6c9.7,0,17.6,7.9,17.6,17.6C229.5,119.7,221.6,127.6,211.9,127.6z M231.1,118.3
		c1.1-2.5,1.7-5.4,1.7-8.3c0-4.5-1.4-8.6-3.8-12L258,86.4c3.4,2.9,7.8,4.8,12.6,5l11.6,29.9c-4.8,2.2-8.6,6-10.6,10.8L231.1,118.3z
		 M290.9,158c-9.7,0-17.6-7.9-17.6-17.6s7.9-17.6,17.6-17.6c9.7,0,17.6,7.9,17.6,17.6S300.6,158,290.9,158z"/>
	
		<linearGradient id="SVGID_9_" gradientUnits="userSpaceOnUse" x1="261.4085" y1="221.4527" x2="279.3831" y2="239.4273" gradientTransform="matrix(1 0 0 -1 0 300)">
		<stop  offset="0" style="stop-color:#1D75BB"/>
		<stop  offset="0.1807" style="stop-color:#2C80AB"/>
		<stop  offset="0.5365" style="stop-color:#529C80"/>
		<stop  offset="1" style="stop-color:#8CC63F"/>
	</linearGradient>
	<path class="st17" d="M266.5,82.4c0,0,0.1,0,0.1,0c1.1,0.5,2.3-0.5,2-1.7c-0.5-2.1,0-4.4,1.5-6.3c1.7-2.1,4.4-3.1,7-2.5
		c2.8,0.6,4.8,2.8,6.6-0.7c1.8-3.6-0.6-8.7-6.9-11.6c-6.2-2.9-13.5-0.3-16.5,5.7C257.1,71.6,259.9,79.5,266.5,82.4z M274.5,60.2
		c1.4,0,2.6,1.1,2.6,2.6c0,1.4-1.1,2.6-2.6,2.6c-1.4,0-2.6-1.1-2.6-2.6C271.9,61.4,273.1,60.2,274.5,60.2z M267.8,60.2
		c1.4,0,2.6,1.1,2.6,2.6c0,1.4-1.1,2.6-2.6,2.6c-1.4,0-2.6-1.1-2.6-2.6C265.3,61.4,266.4,60.2,267.8,60.2z M263.4,65.4
		c1.4,0,2.6,1.1,2.6,2.6s-1.1,2.6-2.6,2.6s-2.6-1.1-2.6-2.6C260.9,66.5,262,65.4,263.4,65.4z M260.9,74.2c0-1.4,1.1-2.6,2.6-2.6
		c1.4,0,2.6,1.1,2.6,2.6s-1.1,2.6-2.6,2.6C262,76.8,260.9,75.6,260.9,74.2z"/>
	
		<linearGradient id="SVGID_10_" gradientUnits="userSpaceOnUse" x1="199.5439" y1="186.3112" x2="206.2831" y2="193.0504" gradientTransform="matrix(1 0 0 -1 0 300)">
		<stop  offset="0" style="stop-color:#1D75BB"/>
		<stop  offset="0.1807" style="stop-color:#2C80AB"/>
		<stop  offset="0.5365" style="stop-color:#529C80"/>
		<stop  offset="1" style="stop-color:#8CC63F"/>
	</linearGradient>
	<path class="st18" d="M204.3,105.2c-0.1-0.3-0.3-0.5-0.5-0.7c-0.2-0.2-0.5-0.3-0.8-0.3c-0.3,0-0.6,0.1-0.8,0.3s-0.4,0.4-0.5,0.7
		l-2.2,7.5c0,0.1-0.1,0.2-0.1,0.3c0,0.3,0.1,0.5,0.3,0.7c0.2,0.2,0.4,0.3,0.7,0.3c0.2,0,0.4-0.1,0.6-0.2c0.2-0.1,0.3-0.3,0.4-0.5
		l0.3-1.2h2.6l0.3,1.2c0.1,0.2,0.2,0.4,0.4,0.5c0.2,0.1,0.4,0.2,0.6,0.2c0.3,0,0.5-0.1,0.7-0.3c0.2-0.2,0.3-0.4,0.3-0.7
		c0-0.1,0-0.2-0.1-0.3L204.3,105.2z M202.1,110.3l0.8-3.2l0.8,3.2H202.1z"/>
	
		<linearGradient id="SVGID_11_" gradientUnits="userSpaceOnUse" x1="207.6158" y1="187.3319" x2="214.5612" y2="194.2774" gradientTransform="matrix(1 0 0 -1 0 300)">
		<stop  offset="0" style="stop-color:#1D75BB"/>
		<stop  offset="0.1807" style="stop-color:#2C80AB"/>
		<stop  offset="0.5365" style="stop-color:#529C80"/>
		<stop  offset="1" style="stop-color:#8CC63F"/>
	</linearGradient>
	<path class="st19" d="M214.3,108.1c0.1-0.2,0.2-0.4,0.2-0.6s0.1-0.4,0.1-0.7c0-0.3-0.1-0.6-0.2-0.9c-0.1-0.3-0.3-0.5-0.5-0.8
		c-0.2-0.2-0.5-0.4-0.8-0.5c-0.3-0.1-0.6-0.2-0.9-0.2h-3.1c-0.3,0-0.6,0.1-0.8,0.3c-0.2,0.2-0.3,0.5-0.3,0.8v7.2
		c0,0.3,0.1,0.6,0.3,0.8c0.2,0.2,0.5,0.3,0.8,0.3h3.2c0.4,0,0.8-0.1,1.2-0.2c0.4-0.2,0.7-0.4,1-0.7c0.3-0.3,0.5-0.6,0.7-1
		c0.2-0.4,0.2-0.8,0.2-1.2c0-0.5-0.1-1-0.3-1.4C215,108.7,214.7,108.4,214.3,108.1z M210.3,106.2h1.8c0.1,0,0.3,0.1,0.4,0.2
		c0.1,0.1,0.2,0.3,0.2,0.4c0,0.2-0.1,0.3-0.2,0.5c-0.1,0.1-0.2,0.2-0.4,0.2h-1.8V106.2z M213.4,111.1c-0.1,0.2-0.1,0.3-0.2,0.4
		c-0.1,0.1-0.2,0.2-0.4,0.3c-0.1,0.1-0.3,0.1-0.5,0.1h-2v-2.8h2c0.2,0,0.3,0,0.5,0.1c0.1,0.1,0.3,0.2,0.4,0.3
		c0.1,0.1,0.2,0.3,0.2,0.5c0.1,0.2,0.1,0.4,0.1,0.5C213.4,110.8,213.4,110.9,213.4,111.1z"/>
	
		<linearGradient id="SVGID_12_" gradientUnits="userSpaceOnUse" x1="217.659" y1="187.5195" x2="224.3962" y2="194.2567" gradientTransform="matrix(1 0 0 -1 0 300)">
		<stop  offset="0" style="stop-color:#1D75BB"/>
		<stop  offset="0.1807" style="stop-color:#2C80AB"/>
		<stop  offset="0.5365" style="stop-color:#529C80"/>
		<stop  offset="1" style="stop-color:#8CC63F"/>
	</linearGradient>
	<path class="st20" d="M224.1,111.3c-0.2-0.2-0.4-0.3-0.7-0.3c-0.3,0-0.5,0.1-0.7,0.3c-0.2,0.2-0.5,0.5-0.8,0.6
		c-0.3,0.1-0.6,0.2-0.9,0.2c-0.3,0-0.7-0.1-1-0.2c-0.3-0.2-0.6-0.4-0.8-0.7c-0.2-0.3-0.4-0.6-0.6-1c-0.1-0.4-0.2-0.8-0.2-1.2
		c0-0.4,0.1-0.8,0.2-1.2c0.1-0.4,0.3-0.7,0.6-1c0.2-0.3,0.5-0.5,0.8-0.6c0.3-0.1,0.6-0.2,1-0.2c0.6,0,1.1,0.2,1.6,0.6
		c0.2,0.2,0.4,0.2,0.6,0.2c0.3,0,0.5-0.1,0.7-0.3c0.2-0.2,0.3-0.4,0.3-0.6c0-0.3-0.1-0.5-0.3-0.7c-0.4-0.3-0.8-0.6-1.3-0.8
		c-0.5-0.2-1-0.3-1.5-0.3c-0.6,0-1.2,0.1-1.8,0.4c-0.6,0.2-1,0.6-1.5,1c-0.4,0.4-0.7,0.9-1,1.5c-0.2,0.6-0.4,1.2-0.4,1.9
		c0,0.7,0.1,1.4,0.4,2c0.2,0.6,0.6,1.1,1,1.6c0.4,0.4,0.9,0.8,1.5,1c0.6,0.2,1.2,0.4,1.8,0.4c0.6,0,1.2-0.1,1.7-0.4
		c0.5-0.2,1-0.5,1.4-1c0.2-0.2,0.3-0.4,0.3-0.7C224.4,111.8,224.3,111.5,224.1,111.3z"/>
	
		<linearGradient id="SVGID_13_" gradientUnits="userSpaceOnUse" x1="129.4413" y1="130.588" x2="148.9447" y2="150.0915" gradientTransform="matrix(1 0 0 -1 0 300)">
		<stop  offset="0" style="stop-color:#1D75BB"/>
		<stop  offset="0.1807" style="stop-color:#2C80AB"/>
		<stop  offset="0.5365" style="stop-color:#529C80"/>
		<stop  offset="1" style="stop-color:#8CC63F"/>
	</linearGradient>
	<path class="st21" d="M146.7,147.8L146.7,147.8c-1.7-1.1-4.7,0.9-7.5,4.2c-2.9-3.3-5.8-5.3-7.5-4.2c-1.2,0.7-1.4,2.7-0.5,5.5
		c0.2,0.7,0.5,1.5,0.8,2.4c-3.9,0.7-6.9,2.1-6.9,4c0,1.9,2.9,3.3,6.8,4c-1.5,3.7-1.9,6.9-0.3,7.9c0.3,0.2,0.7,0.3,1.1,0.3
		c1.7,0,4.1-1.9,6.5-4.5c2.3,2.7,4.7,4.5,6.5,4.5c0.4,0,0.7-0.1,1.1-0.3c1.2-0.7,1.4-2.7,0.5-5.5c-0.2-0.7-0.5-1.5-0.8-2.4
		c3.9-0.7,6.9-2.1,6.9-4c0-1.9-2.9-3.3-6.8-4C147.9,152,148.4,148.8,146.7,147.8z M145.6,148.8c0.1,0,0.3,0,0.4,0.1
		c0.7,0.5,0.5,3-1,6.6c-1.1-0.1-2.2-0.2-3.4-0.3c-0.5-0.7-1.1-1.5-1.6-2.1C142.5,150.2,144.6,148.8,145.6,148.8z M143.7,161
		c0.3,0.5,0.5,1,0.8,1.6c-0.6,0.1-1.2,0.1-1.9,0.2c0.1-0.2,0.3-0.4,0.4-0.7C143.3,161.8,143.5,161.4,143.7,161z M141.9,161.4
		c-0.3,0.5-0.6,1-1,1.5c-0.6,0-1.2,0-1.8,0c-0.6,0-1.2,0-1.8,0c-0.3-0.5-0.6-1-1-1.5c-0.4-0.6-0.7-1.2-1-1.7c0.3-0.6,0.7-1.1,1-1.7
		c0.3-0.5,0.6-1,1-1.5c0.6,0,1.2,0,1.8,0c0.6,0,1.2,0,1.8,0c0.3,0.5,0.6,1,1,1.5c0.4,0.6,0.7,1.2,1,1.7
		C142.7,160.2,142.3,160.8,141.9,161.4z M140,164.2c-0.3,0.4-0.5,0.7-0.8,1c-0.3-0.3-0.5-0.7-0.8-1c0.3,0,0.5,0,0.8,0
		S139.7,164.2,140,164.2z M135.3,162.1c0.1,0.2,0.3,0.4,0.4,0.7c-0.7-0.1-1.3-0.1-1.9-0.2c0.2-0.5,0.5-1,0.8-1.6
		C134.9,161.4,135.1,161.8,135.3,162.1z M134.7,158.3c-0.3-0.5-0.5-1-0.8-1.6c0.6-0.1,1.2-0.1,1.9-0.2c-0.1,0.2-0.3,0.4-0.4,0.7
		C135.1,157.6,134.9,157.9,134.7,158.3z M138.4,155.1c0.3-0.4,0.5-0.7,0.8-1c0.3,0.3,0.5,0.7,0.8,1c-0.3,0-0.5,0-0.8,0
		C138.9,155.1,138.7,155.1,138.4,155.1z M143.1,157.2c-0.1-0.2-0.3-0.4-0.4-0.7c0.7,0.1,1.3,0.1,1.9,0.2c-0.2,0.5-0.5,1-0.8,1.6
		C143.5,157.9,143.3,157.6,143.1,157.2z M132.4,152.9c-0.7-2.5-0.5-3.8,0-4.1c0.1-0.1,0.2-0.1,0.4-0.1c1,0,3.1,1.5,5.6,4.2
		c-0.5,0.7-1.1,1.4-1.6,2.1c-1.2,0.1-2.3,0.2-3.4,0.3C133,154.6,132.6,153.7,132.4,152.9z M126.4,159.7c0-0.9,2.2-2,6.1-2.7
		c0.4,0.9,0.9,1.8,1.4,2.7c-0.5,0.9-1,1.8-1.4,2.7C128.7,161.7,126.4,160.5,126.4,159.7z M132.4,170.4c-0.7-0.5-0.5-3,1-6.6
		c1.1,0.1,2.2,0.2,3.4,0.3c0.5,0.7,1.1,1.5,1.6,2.1C135.5,169.5,133.2,170.9,132.4,170.4z M146,166.4c0.7,2.5,0.5,3.8,0,4.1
		c-0.1,0.1-0.2,0.1-0.4,0.1c-1,0-3.1-1.5-5.6-4.2c0.5-0.7,1.1-1.4,1.6-2.1c1.2-0.1,2.3-0.2,3.4-0.3
		C145.4,164.7,145.7,165.6,146,166.4z M151.9,159.7c0,0.9-2.2,2-6.1,2.7c-0.4-0.9-0.9-1.8-1.4-2.7c0.5-0.9,1-1.8,1.4-2.7
		C149.7,157.6,151.9,158.8,151.9,159.7z"/>
</g>
<path class="st3" d="M236.8,181.1c-3.1,1.6-6.9,2.7-11,2.8c-0.1,0-0.3,0-0.4,0c-0.1,0-0.3,0-0.5,0s-0.3,0-0.5,0c-0.1,0-0.3,0-0.4,0
	c-4-0.1-7.7-1.1-10.7-2.7c-1.8,3.1-3,6.9-3.4,11.1c-0.9,11.4,5.2,21.4,13.4,22.3c8.3,1,15.6-7.5,16.5-18.9
	C240.3,190.3,239.1,185.1,236.8,181.1z"/>
<g>
	<path class="st22" d="M3849.8-576.3c0,131.7,77.4,163.7,77.4,163.7s77.4-26.3,77.4-163.7C3950-593.3,3898.2-593.4,3849.8-576.3z"/>
	<polyline class="st4" points="3968.1,-533.3 3922.5,-487.8 3900.8,-509.4 	"/>
</g>
</svg>
