<?xml version="1.0" encoding="utf-8"?>
<!-- Generator: Adobe Illustrator 24.3.0, SVG Export Plug-In . SVG Version: 6.00 Build 0)  -->
<svg version="1.1" xmlns="http://www.w3.org/2000/svg" xmlns:xlink="http://www.w3.org/1999/xlink" x="0px" y="0px"
	 viewBox="0 0 1920 828" style="enable-background:new 0 0 1920 828;" xml:space="preserve">
<style type="text/css">
	.st0{fill:url(#SVGID_1_);}
	.st1{fill:#84F7F7;}
	.st2{fill:#EFF784;}
	.st3{fill:#84F7C0;}
	.st4{fill:#BF84F7;}
	.st5{fill:#F88982;}
	.st6{fill:#F79F84;}
	.st7{fill:#F7849F;}
	.st8{font-family:'OCRBStd';}
	.st9{font-size:400px;}
	.st10{fill:#FFFFFF;}
</style>
<g id="Background">
	<g id="gradientbg">
		<linearGradient id="SVGID_1_" gradientUnits="userSpaceOnUse" x1="612.0816" y1="1700.7209" x2="1376.3396" y2="-848.987">
			<stop  offset="0.2624" style="stop-color:#00FFFF"/>
			<stop  offset="0.4578" style="stop-color:#0064FF;stop-opacity:0.9"/>
			<stop  offset="0.9537" style="stop-color:#FF00F1"/>
		</linearGradient>
		<rect class="st0" width="1920" height="1080"/>
	</g>
	<path id="shape16" class="st1" d="M565.4,640.4L565.4,640.4c4.9-20.5,25.6-33.2,46.1-28.3L894,680c20.5,4.9,33.2,25.6,28.3,46.1v0
		c-4.9,20.5-25.6,33.2-46.1,28.3l-282.4-67.9C573.2,681.6,560.5,660.9,565.4,640.4z"/>
	<path id="shape15" class="st1" d="M1114,131.7C1114,131.7,1114,131.7,1114,131.7c-0.3-0.4-0.6-0.7-0.9-1c0,0,0,0-0.1-0.1
		c-0.3-0.3-0.6-0.6-1-0.9c0,0-0.1,0-0.1-0.1c-0.3-0.3-0.7-0.5-1-0.8c0,0-0.1-0.1-0.1-0.1c-0.3-0.2-0.7-0.5-1.1-0.7
		c-0.1,0-0.1-0.1-0.2-0.1c-0.4-0.2-0.7-0.4-1.1-0.6c-0.1,0-0.1,0-0.2-0.1c-0.4-0.2-0.8-0.3-1.2-0.5c0,0-0.1,0-0.1,0
		c-0.9-0.3-1.9-0.5-2.8-0.6c0,0-0.1,0-0.1,0c-0.4,0-0.9-0.1-1.3-0.1c-0.1,0-0.1,0-0.2,0c-0.4,0-0.8,0-1.2,0.1c-0.1,0-0.1,0-0.2,0
		c-0.4,0-0.8,0.1-1.2,0.2c0,0-0.1,0-0.1,0c-0.4,0.1-0.8,0.2-1.2,0.3c0,0-0.1,0-0.1,0c-0.4,0.1-0.8,0.3-1.2,0.4c0,0-0.1,0-0.1,0
		c-0.4,0.2-0.8,0.4-1.2,0.6c0,0,0,0-0.1,0c-0.4,0.2-0.8,0.4-1.2,0.7v0c-0.4,0.2-0.7,0.5-1.1,0.8c0,0,0,0-0.1,0
		c-0.3,0.3-0.7,0.6-1,0.9c0,0,0,0-0.1,0.1c-0.3,0.3-0.6,0.6-0.9,1c0,0,0,0.1-0.1,0.1c-0.3,0.3-0.5,0.7-0.8,1c0,0-0.1,0.1-0.1,0.1
		c-0.2,0.3-0.5,0.7-0.7,1.1c0,0.1-0.1,0.1-0.1,0.2c-0.2,0.4-0.4,0.7-0.6,1.1c0,0.1,0,0.1-0.1,0.2c-0.2,0.4-0.3,0.8-0.5,1.2
		c0,0,0,0.1,0,0.1c-0.1,0.5-0.3,0.9-0.4,1.4l-8,38.2l-21.4-32.7c-0.2-0.4-0.5-0.7-0.8-1.1c0,0,0,0,0-0.1c-0.3-0.3-0.6-0.7-0.9-1
		c0,0,0,0-0.1-0.1c-0.3-0.3-0.6-0.6-1-0.9c0,0-0.1,0-0.1-0.1c-0.3-0.3-0.7-0.5-1-0.8c0,0-0.1-0.1-0.1-0.1c-0.3-0.2-0.7-0.5-1.1-0.7
		c-0.1,0-0.1-0.1-0.2-0.1c-0.4-0.2-0.7-0.4-1.1-0.6c-0.1,0-0.1,0-0.2-0.1c-0.4-0.2-0.8-0.3-1.2-0.5c0,0-0.1,0-0.1,0
		c-0.9-0.3-1.9-0.5-2.8-0.6c0,0-0.1,0-0.1,0c-0.4,0-0.9-0.1-1.3-0.1c-0.1,0-0.1,0-0.2,0c-0.4,0-0.8,0-1.2,0.1c-0.1,0-0.1,0-0.2,0
		c-0.4,0-0.8,0.1-1.2,0.2c0,0-0.1,0-0.1,0c-0.4,0.1-0.8,0.2-1.2,0.3c0,0-0.1,0-0.1,0c-0.4,0.1-0.8,0.3-1.2,0.4c0,0-0.1,0-0.1,0
		c-0.4,0.2-0.8,0.3-1.2,0.6c0,0,0,0-0.1,0c-0.4,0.2-0.8,0.4-1.2,0.7v0c-0.4,0.2-0.7,0.5-1.1,0.8c0,0,0,0-0.1,0
		c-0.3,0.3-0.7,0.6-1,0.9c0,0,0,0-0.1,0.1c-0.3,0.3-0.6,0.6-0.9,1c0,0,0,0.1-0.1,0.1c-0.3,0.3-0.5,0.7-0.8,1c0,0-0.1,0.1-0.1,0.1
		c-0.2,0.3-0.5,0.7-0.7,1.1c0,0.1-0.1,0.1-0.1,0.2c-0.2,0.4-0.4,0.7-0.6,1.1c0,0.1,0,0.1-0.1,0.2c-0.2,0.4-0.3,0.8-0.5,1.2
		c0,0,0,0.1,0,0.1c-0.1,0.5-0.3,0.9-0.4,1.4l-8,38.2l-21.4-32.7c-0.2-0.4-0.5-0.7-0.8-1.1c0,0,0,0,0-0.1c-0.3-0.3-0.6-0.7-0.9-1
		c0,0,0,0-0.1-0.1c-0.3-0.3-0.6-0.6-1-0.9c0,0-0.1,0-0.1-0.1c-0.3-0.3-0.7-0.5-1-0.8c0,0-0.1-0.1-0.1-0.1c-0.3-0.2-0.7-0.5-1.1-0.7
		c-0.1,0-0.1-0.1-0.2-0.1c-0.4-0.2-0.7-0.4-1.1-0.6c-0.1,0-0.1,0-0.2-0.1c-0.4-0.2-0.8-0.3-1.2-0.5c0,0-0.1,0-0.1,0
		c-0.9-0.3-1.9-0.5-2.8-0.6c0,0-0.1,0-0.1,0c-0.4,0-0.9-0.1-1.3-0.1c-0.1,0-0.1,0-0.2,0c-0.4,0-0.8,0-1.2,0.1c-0.1,0-0.1,0-0.2,0
		c-0.4,0-0.8,0.1-1.2,0.2c0,0-0.1,0-0.1,0c-0.4,0.1-0.8,0.2-1.2,0.3c0,0-0.1,0-0.1,0c-0.4,0.1-0.8,0.3-1.2,0.4c0,0-0.1,0-0.1,0
		c-0.4,0.2-0.8,0.4-1.2,0.6c0,0,0,0-0.1,0c-0.4,0.2-0.8,0.4-1.2,0.7v0c-0.4,0.2-0.7,0.5-1.1,0.8c0,0,0,0-0.1,0
		c-0.3,0.3-0.7,0.6-1,0.9c0,0,0,0-0.1,0.1c-0.3,0.3-0.6,0.6-0.9,1c0,0,0,0.1-0.1,0.1c-0.3,0.3-0.5,0.7-0.8,1c0,0-0.1,0.1-0.1,0.1
		c-0.2,0.3-0.5,0.7-0.7,1.1c0,0.1-0.1,0.1-0.1,0.2c-0.2,0.4-0.4,0.7-0.6,1.1c0,0.1,0,0.1-0.1,0.2c-0.2,0.4-0.3,0.8-0.5,1.2
		c0,0,0,0.1,0,0.1c-0.1,0.5-0.3,0.9-0.4,1.4l-15.2,72.5c-1.6,7.8,3.4,15.5,11.2,17.2l0,0c7.8,1.6,15.5-3.4,17.2-11.2l8-38.2
		l21.4,32.7c0.2,0.4,0.5,0.7,0.8,1.1c0,0,0,0,0,0.1c0.3,0.3,0.6,0.7,0.9,1c0,0,0,0,0.1,0.1c0.3,0.3,0.6,0.6,1,0.9c0,0,0.1,0,0.1,0.1
		c0.3,0.3,0.7,0.5,1,0.8c0,0,0.1,0.1,0.1,0.1c0.3,0.2,0.7,0.5,1.1,0.7c0.1,0,0.1,0.1,0.2,0.1c0.4,0.2,0.7,0.4,1.1,0.6
		c0.1,0,0.1,0,0.2,0.1c0.4,0.2,0.8,0.3,1.2,0.5c0,0,0.1,0,0.1,0c0.9,0.3,1.9,0.5,2.8,0.6c0,0,0.1,0,0.1,0c0.4,0,0.9,0.1,1.3,0.1
		c0.1,0,0.1,0,0.2,0c0.4,0,0.8,0,1.2-0.1c0.1,0,0.1,0,0.2,0c0.4,0,0.8-0.1,1.2-0.2c0,0,0.1,0,0.1,0c0.4-0.1,0.8-0.2,1.2-0.3
		c0,0,0.1,0,0.1,0c0.4-0.1,0.8-0.3,1.2-0.4c0,0,0.1,0,0.1,0c0.4-0.2,0.8-0.4,1.2-0.6c0,0,0,0,0.1,0c0.4-0.2,0.8-0.4,1.2-0.7l0,0
		c0.4-0.2,0.7-0.5,1.1-0.8c0,0,0,0,0.1,0c0.3-0.3,0.7-0.6,1-0.9c0,0,0,0,0.1-0.1c0.3-0.3,0.6-0.6,0.9-1c0,0,0-0.1,0.1-0.1
		c0.3-0.3,0.5-0.7,0.8-1c0,0,0.1-0.1,0.1-0.1c0.2-0.3,0.5-0.7,0.7-1.1c0-0.1,0.1-0.1,0.1-0.2c0.2-0.4,0.4-0.7,0.6-1.1
		c0-0.1,0-0.1,0.1-0.2c0.2-0.4,0.3-0.8,0.5-1.2c0,0,0-0.1,0-0.1c0.1-0.5,0.3-0.9,0.4-1.4l8-38.2l21.4,32.7c0.2,0.4,0.5,0.7,0.8,1.1
		c0,0,0,0,0,0.1c0.3,0.3,0.6,0.7,0.9,1c0,0,0,0,0.1,0.1c0.3,0.3,0.6,0.6,1,0.9c0,0,0.1,0,0.1,0.1c0.3,0.3,0.7,0.5,1,0.8
		c0,0,0.1,0.1,0.1,0.1c0.3,0.2,0.7,0.5,1.1,0.7c0.1,0,0.1,0.1,0.2,0.1c0.4,0.2,0.7,0.4,1.1,0.6c0.1,0,0.1,0,0.2,0.1
		c0.4,0.2,0.8,0.3,1.2,0.5c0,0,0.1,0,0.1,0c0.9,0.3,1.9,0.5,2.8,0.6c0,0,0.1,0,0.1,0c0.4,0,0.9,0.1,1.3,0.1c0.1,0,0.1,0,0.2,0
		c0.4,0,0.8,0,1.2-0.1c0.1,0,0.1,0,0.2,0c0.4,0,0.8-0.1,1.2-0.2c0,0,0.1,0,0.1,0c0.4-0.1,0.8-0.2,1.2-0.3c0,0,0.1,0,0.1,0
		c0.4-0.1,0.8-0.3,1.2-0.4c0,0,0.1,0,0.1,0c0.4-0.2,0.8-0.4,1.2-0.6c0,0,0,0,0.1,0c0.4-0.2,0.8-0.4,1.2-0.7v0
		c0.4-0.2,0.7-0.5,1.1-0.8c0,0,0,0,0.1,0c0.3-0.3,0.7-0.6,1-0.9c0,0,0,0,0.1-0.1c0.3-0.3,0.6-0.6,0.9-1c0,0,0-0.1,0.1-0.1
		c0.3-0.3,0.5-0.7,0.8-1c0,0,0.1-0.1,0.1-0.1c0.2-0.3,0.5-0.7,0.7-1.1c0-0.1,0.1-0.1,0.1-0.2c0.2-0.4,0.4-0.7,0.6-1.1
		c0-0.1,0-0.1,0.1-0.2c0.2-0.4,0.3-0.8,0.5-1.2c0,0,0-0.1,0-0.1c0.1-0.5,0.3-0.9,0.4-1.4l8-38.2l21.4,32.7
		c4.4,6.7,13.4,8.6,20.1,4.2v0c6.7-4.4,8.6-13.4,4.2-20.1l-40.5-62C1114.5,132.4,1114.3,132.1,1114,131.7z"/>
	<path id="shape14" class="st2" d="M1286.8,592.2c0,0-0.1-0.1-0.1-0.1c-0.5-0.6-1-1.2-1.6-1.8c0,0-0.1-0.1-0.1-0.1
		c-0.6-0.6-1.1-1.1-1.7-1.6c0,0-0.1-0.1-0.1-0.1c-0.6-0.5-1.2-1-1.8-1.4c-0.1-0.1-0.1-0.1-0.2-0.2c-0.6-0.4-1.3-0.8-1.9-1.2
		c-0.1-0.1-0.2-0.1-0.3-0.2c-0.7-0.4-1.3-0.7-2-1c-0.1,0-0.2-0.1-0.3-0.1c-0.7-0.3-1.5-0.6-2.2-0.8c-0.1,0-0.1,0-0.2-0.1
		c-1.7-0.5-3.4-0.9-5.1-1.1c-0.1,0-0.1,0-0.2,0c-0.8-0.1-1.6-0.1-2.4-0.1c-0.1,0-0.2,0-0.3,0c-0.8,0-1.5,0-2.3,0.1
		c-0.1,0-0.2,0-0.3,0c-0.7,0.1-1.5,0.2-2.2,0.3c-0.1,0-0.2,0-0.3,0.1c-0.8,0.2-1.5,0.3-2.3,0.6c-0.1,0-0.1,0-0.2,0.1
		c-0.8,0.2-1.5,0.5-2.2,0.8c0,0-0.1,0-0.1,0.1c-0.7,0.3-1.5,0.6-2.2,1c0,0-0.1,0-0.1,0.1c-0.7,0.4-1.4,0.8-2.1,1.2h0
		c-0.7,0.4-1.3,0.9-2,1.4c0,0-0.1,0.1-0.1,0.1c-0.6,0.5-1.2,1-1.8,1.6c0,0-0.1,0.1-0.1,0.1c-0.6,0.6-1.1,1.1-1.6,1.7
		c0,0-0.1,0.1-0.1,0.1c-0.5,0.6-1,1.2-1.4,1.8c-0.1,0.1-0.1,0.1-0.2,0.2c-0.4,0.6-0.8,1.3-1.2,1.9c-0.1,0.1-0.1,0.2-0.2,0.3
		c-0.4,0.7-0.7,1.3-1,2c0,0.1-0.1,0.2-0.1,0.3c-0.3,0.7-0.6,1.5-0.8,2.2c0,0.1,0,0.1-0.1,0.2c-0.3,0.8-0.5,1.7-0.7,2.5l-14.5,69.4
		l-38.8-59.3c-0.4-0.7-0.9-1.3-1.4-2c0,0-0.1-0.1-0.1-0.1c-0.5-0.6-1-1.2-1.6-1.8c0,0-0.1-0.1-0.1-0.1c-0.6-0.6-1.1-1.1-1.7-1.6
		c0,0-0.1-0.1-0.1-0.1c-0.6-0.5-1.2-1-1.8-1.4c-0.1-0.1-0.1-0.1-0.2-0.2c-0.6-0.4-1.3-0.8-1.9-1.2c-0.1-0.1-0.2-0.1-0.3-0.2
		c-0.7-0.4-1.3-0.7-2-1c-0.1,0-0.2-0.1-0.3-0.1c-0.7-0.3-1.5-0.6-2.2-0.8c-0.1,0-0.1,0-0.2-0.1c-1.7-0.5-3.4-0.9-5.1-1.1
		c-0.1,0-0.1,0-0.2,0c-0.8-0.1-1.6-0.1-2.4-0.1c-0.1,0-0.2,0-0.3,0c-0.8,0-1.5,0-2.3,0.1c-0.1,0-0.2,0-0.3,0
		c-0.7,0.1-1.5,0.2-2.2,0.3c-0.1,0-0.2,0-0.3,0.1c-0.8,0.2-1.5,0.3-2.2,0.6c-0.1,0-0.1,0-0.2,0.1c-0.8,0.2-1.5,0.5-2.2,0.8
		c0,0-0.1,0-0.1,0.1c-0.7,0.3-1.5,0.6-2.2,1c0,0-0.1,0-0.1,0.1c-0.7,0.4-1.4,0.8-2.1,1.2l0,0c-0.7,0.4-1.3,0.9-2,1.4
		c0,0-0.1,0.1-0.1,0.1c-0.6,0.5-1.2,1-1.8,1.6c0,0-0.1,0.1-0.1,0.1c-0.6,0.6-1.1,1.1-1.6,1.7c0,0-0.1,0.1-0.1,0.1
		c-0.5,0.6-1,1.2-1.4,1.8c-0.1,0.1-0.1,0.1-0.2,0.2c-0.4,0.6-0.8,1.3-1.2,1.9c-0.1,0.1-0.1,0.2-0.2,0.3c-0.4,0.7-0.7,1.3-1,2
		c0,0.1-0.1,0.2-0.1,0.3c-0.3,0.7-0.6,1.5-0.8,2.2c0,0.1,0,0.1-0.1,0.2c-0.3,0.8-0.5,1.7-0.7,2.5l-14.5,69.4l-38.8-59.3
		c-0.4-0.7-0.9-1.3-1.4-2c0,0-0.1-0.1-0.1-0.1c-0.5-0.6-1-1.2-1.6-1.8c0,0-0.1-0.1-0.1-0.1c-0.6-0.6-1.1-1.1-1.7-1.6
		c0,0-0.1-0.1-0.1-0.1c-0.6-0.5-1.2-1-1.8-1.4c-0.1-0.1-0.1-0.1-0.2-0.2c-0.6-0.4-1.3-0.8-1.9-1.2c-0.1-0.1-0.2-0.1-0.3-0.2
		c-0.7-0.4-1.3-0.7-2-1c-0.1,0-0.2-0.1-0.3-0.1c-0.7-0.3-1.5-0.6-2.2-0.8c-0.1,0-0.1,0-0.2-0.1c-1.7-0.5-3.4-0.9-5.1-1.1
		c-0.1,0-0.1,0-0.2,0c-0.8-0.1-1.6-0.1-2.4-0.1c-0.1,0-0.2,0-0.3,0c-0.8,0-1.5,0-2.3,0.1c-0.1,0-0.2,0-0.3,0
		c-0.7,0.1-1.5,0.2-2.2,0.3c-0.1,0-0.2,0-0.3,0.1c-0.8,0.2-1.5,0.3-2.3,0.6c-0.1,0-0.1,0-0.2,0.1c-0.8,0.2-1.5,0.5-2.2,0.8
		c0,0-0.1,0-0.1,0.1c-0.7,0.3-1.5,0.6-2.2,1c0,0-0.1,0-0.1,0.1c-0.7,0.4-1.4,0.8-2.1,1.2l0,0c-0.7,0.4-1.3,0.9-2,1.4
		c0,0-0.1,0.1-0.1,0.1c-0.6,0.5-1.2,1-1.8,1.6c0,0-0.1,0.1-0.1,0.1c-0.6,0.6-1.1,1.1-1.6,1.7c0,0-0.1,0.1-0.1,0.1
		c-0.5,0.6-1,1.2-1.4,1.8c-0.1,0.1-0.1,0.1-0.2,0.2c-0.4,0.6-0.8,1.3-1.2,1.9c-0.1,0.1-0.1,0.2-0.2,0.3c-0.4,0.7-0.7,1.3-1,2
		c0,0.1-0.1,0.2-0.1,0.3c-0.3,0.7-0.6,1.5-0.8,2.2c0,0.1,0,0.1-0.1,0.2c-0.3,0.8-0.5,1.7-0.7,2.5l-27.5,131.5
		c-3,14.2,6.1,28.2,20.4,31.1l0,0c14.2,3,28.2-6.1,31.1-20.4l14.5-69.4l38.8,59.3c0.4,0.7,0.9,1.3,1.4,2c0,0,0.1,0.1,0.1,0.1
		c0.5,0.6,1,1.2,1.6,1.8c0,0,0.1,0.1,0.1,0.1c0.6,0.6,1.1,1.1,1.7,1.6c0,0,0.1,0.1,0.1,0.1c0.6,0.5,1.2,1,1.8,1.4
		c0.1,0.1,0.1,0.1,0.2,0.2c0.6,0.4,1.3,0.8,1.9,1.2c0.1,0.1,0.2,0.1,0.3,0.2c0.7,0.4,1.3,0.7,2,1c0.1,0,0.2,0.1,0.3,0.1
		c0.7,0.3,1.5,0.6,2.2,0.8c0.1,0,0.1,0,0.2,0.1c1.7,0.5,3.4,0.9,5.1,1.1c0.1,0,0.1,0,0.2,0c0.8,0.1,1.6,0.1,2.4,0.1
		c0.1,0,0.2,0,0.3,0c0.8,0,1.5,0,2.3-0.1c0.1,0,0.2,0,0.3,0c0.7-0.1,1.5-0.2,2.2-0.3c0.1,0,0.2,0,0.3-0.1c0.8-0.2,1.5-0.3,2.3-0.6
		c0.1,0,0.1,0,0.2-0.1c0.8-0.2,1.5-0.5,2.2-0.8c0,0,0.1,0,0.1-0.1c0.7-0.3,1.5-0.6,2.2-1c0,0,0.1,0,0.1-0.1c0.7-0.4,1.4-0.8,2.1-1.2
		l0,0c0.7-0.4,1.3-0.9,2-1.4c0,0,0.1-0.1,0.1-0.1c0.6-0.5,1.2-1,1.8-1.6c0,0,0.1-0.1,0.1-0.1c0.6-0.6,1.1-1.1,1.6-1.7
		c0,0,0.1-0.1,0.1-0.1c0.5-0.6,1-1.2,1.4-1.8c0.1-0.1,0.1-0.1,0.2-0.2c0.4-0.6,0.8-1.3,1.2-1.9c0.1-0.1,0.1-0.2,0.2-0.3
		c0.4-0.7,0.7-1.3,1-2c0-0.1,0.1-0.2,0.1-0.3c0.3-0.7,0.6-1.5,0.8-2.2c0-0.1,0-0.1,0.1-0.2c0.3-0.8,0.5-1.7,0.7-2.5l14.5-69.4
		l38.8,59.3c0.4,0.7,0.9,1.3,1.4,2c0,0,0.1,0.1,0.1,0.1c0.5,0.6,1,1.2,1.6,1.8c0,0,0.1,0.1,0.1,0.1c0.6,0.6,1.1,1.1,1.7,1.6
		c0,0,0.1,0.1,0.1,0.1c0.6,0.5,1.2,1,1.8,1.4c0.1,0.1,0.1,0.1,0.2,0.2c0.6,0.4,1.3,0.8,1.9,1.2c0.1,0.1,0.2,0.1,0.3,0.2
		c0.7,0.4,1.3,0.7,2,1c0.1,0,0.2,0.1,0.3,0.1c0.7,0.3,1.5,0.6,2.2,0.8c0.1,0,0.1,0,0.2,0.1c1.7,0.5,3.4,0.9,5.1,1.1
		c0.1,0,0.1,0,0.2,0c0.8,0.1,1.6,0.1,2.4,0.1c0.1,0,0.2,0,0.3,0c0.8,0,1.5,0,2.3-0.1c0.1,0,0.2,0,0.3,0c0.7-0.1,1.5-0.2,2.2-0.3
		c0.1,0,0.2,0,0.3-0.1c0.8-0.2,1.5-0.3,2.3-0.6c0.1,0,0.1,0,0.2-0.1c0.8-0.2,1.5-0.5,2.2-0.8c0,0,0.1,0,0.1-0.1
		c0.7-0.3,1.5-0.6,2.2-1c0,0,0.1,0,0.1-0.1c0.7-0.4,1.4-0.8,2.1-1.2v0c0.7-0.4,1.3-0.9,2-1.4c0,0,0.1-0.1,0.1-0.1
		c0.6-0.5,1.2-1,1.8-1.6c0,0,0.1-0.1,0.1-0.1c0.6-0.6,1.1-1.1,1.6-1.7c0,0,0.1-0.1,0.1-0.1c0.5-0.6,1-1.2,1.4-1.8
		c0.1-0.1,0.1-0.1,0.2-0.2c0.4-0.6,0.8-1.3,1.2-1.9c0.1-0.1,0.1-0.2,0.2-0.3c0.4-0.7,0.7-1.3,1-2c0-0.1,0.1-0.2,0.1-0.3
		c0.3-0.7,0.6-1.5,0.8-2.2c0-0.1,0-0.1,0.1-0.2c0.3-0.8,0.5-1.7,0.7-2.5l14.5-69.4l38.8,59.3c8,12.2,24.3,15.6,36.4,7.6l0,0
		c12.2-8,15.6-24.3,7.6-36.4l-73.5-112.5C1287.8,593.5,1287.3,592.8,1286.8,592.2z"/>
	<path id="shape13" class="st3" d="M181.9,145.9L181.9,145.9c5.9-12.8,21-18.5,33.9-12.6l287.2,131.5c12.8,5.9,18.5,21,12.6,33.9v0
		c-5.9,12.8-21,18.5-33.9,12.6L194.5,179.7C181.7,173.9,176,158.7,181.9,145.9z"/>
	<path id="shape12" class="st2" d="M153.1-38.8C40.5-38.8-50.7,52.4-50.7,165s91.2,203.8,203.8,203.8S356.9,277.6,356.9,165
		S265.6-38.8,153.1-38.8z M153.1,291.6c-69.9,0-126.6-56.7-126.6-126.6S83.2,38.4,153.1,38.4S279.7,95.1,279.7,165
		S223,291.6,153.1,291.6z"/>
	<path id="shape11" class="st4" d="M701.5,237.5L701.5,237.5c-5.5-6.7-15.3-7.7-22-2.2c-13.2,10.9-31.5,14.9-48.7,9.2
		c-27.9-9.1-42.5-40.1-31.9-67.4c3.3-8.5,8.6-15.7,15.2-21.1c4.5-3.7,6.4-9.3,5.6-14.6c-0.3-2.9-1.5-5.8-3.5-8.2l0,0
		c-5.5-6.7-15.3-7.7-22-2.2c-13.2,10.9-31.5,14.9-48.7,9.2c-27.9-9.1-42.5-40.1-31.9-67.4c3.3-8.5,8.6-15.7,15.2-21.1
		c6.7-5.5,7.8-15.4,2.3-22.1l0,0c-5.5-6.7-15.3-7.6-22-2.2c-12.8,10.5-22.7,25-27.5,42.6c-10.5,38.8,8.7,79.7,45.2,96.5
		c13.1,6,26.9,8.3,40.1,7.5c0,0.1-0.1,0.3-0.1,0.4c-10.5,38.8,8.7,79.7,45.2,96.5c30.2,13.9,63.8,8.1,87.3-11.3
		C706,254,706.9,244.2,701.5,237.5z"/>
	<path id="shape10" class="st5" d="M833.1,762.4C759.9,673.7,733,550.8,771,434.9c61.5-187.5,269.4-286,453.3-214.7
		c57.3,22.2,105.3,58.1,141.8,102.5c37.2,45.2,103.6,52.4,148.8,15.3l0.1-0.1c44.9-36.9,51.4-103.1,14.7-148
		C1459.2,103.4,1361.6,37,1243.5,4.9C982.6-66,707.3,63.2,594.4,308.9c-93.4,203.3-54.5,429.1,75.8,587.3
		c36.8,44.8,103.2,50.9,148,14.1l0,0C863,873.5,870,807.1,833.1,762.4z"/>
	<path id="shape9" class="st3" d="M2075,689.5c-13.5-15.7-38.4-17.3-55.5-3.7v0c-17.1,13.5-20.2,37.3-6.7,53
		c26.8,31,36.1,74.7,20.9,116.5c-24.5,67.5-103.3,104.6-171.9,80.7c-21.4-7.4-39.1-19.8-52.5-35.3c-1.4-1.6-2.9-3-4.5-4.4
		c-23.4-28-55.6-50-95.1-61.9c-95.5-28.9-202.6,13.5-252.5,99.6c-41.3,71.3-33.7,152.5,10.2,210.8c12.4,16.5,37,19.6,55,7.1l0,0
		c17.9-12.5,22.6-36.1,10.2-52.6c-24.7-32.7-30.9-76.9-13.1-117.8c28.8-66.1,109.7-98.4,176.4-70.4c20.8,8.7,37.6,22.2,49.9,38.5
		c2.4,3.2,5.2,5.8,8.3,8c25.2,26.2,58.8,46,98.9,55.5c97.5,23,201.8-25.6,246-114.4C2135.8,825.2,2122.8,744.8,2075,689.5z"/>
	<path id="shape8" class="st3" d="M853.5,547.8c-4.3-15.7-0.6-33.2,11-46c18.9-20.7,51.5-21.3,71.1-1.4c6.1,6.2,10.2,13.6,12.4,21.5
		c2.2,8,10.3,12.8,18.3,10.6l0,0c7.9-2.2,12.6-10.3,10.5-18.3c-4.1-15.3-12.9-29.5-26.3-40.5c-29.6-24.3-72.7-23.7-101.6,1.5
		c-23.9,20.8-32,52.3-24.4,80.3c2.2,7.9,10.4,12.6,18.3,10.4l0,0C850.9,563.9,855.6,555.8,853.5,547.8z"/>
	<path id="shape7" class="st6" d="M353.3,433c-4.9-18-0.7-38,12.6-52.7c21.6-23.7,59-24.4,81.5-1.6c7,7.1,11.7,15.6,14.2,24.6
		c2.5,9.2,11.9,14.7,21,12.2l0,0c9.1-2.5,14.5-11.8,12-21c-4.7-17.5-14.7-33.8-30.1-46.5c-33.9-27.9-83.3-27.1-116.4,1.8
		c-27.4,23.9-36.7,59.9-27.9,92.1c2.5,9.1,11.9,14.4,21,12h0C350.3,451.4,355.8,442,353.3,433z"/>
	<path id="shape6" class="st7" d="M1765.6,588.8L1765.6,588.8c36.6,27,44.3,78.5,17.3,115.1l-148.7,201.3
		c-27,36.6-78.5,44.3-115.1,17.3l0,0c-36.6-27-44.3-78.5-17.3-115.1l148.7-201.3C1677.5,569.5,1729,561.8,1765.6,588.8z"/>
	<path id="shape5" class="st4" d="M335.1,566.5c0,0,0-0.1,0-0.1c-0.1-0.7-0.2-1.5-0.3-2.2c0,0,0-0.1,0-0.1c-0.1-0.7-0.3-1.4-0.5-2.1
		c0-0.1,0-0.1,0-0.2c-0.2-0.7-0.4-1.4-0.7-2c0-0.1-0.1-0.2-0.1-0.2c-0.3-0.6-0.6-1.3-0.9-1.9c0-0.1-0.1-0.2-0.1-0.3
		c-0.3-0.6-0.7-1.2-1.1-1.8c-0.1-0.1-0.1-0.2-0.2-0.3c-0.4-0.6-0.8-1.2-1.3-1.8c0-0.1-0.1-0.1-0.1-0.2c-1-1.2-2.2-2.4-3.4-3.4
		c-0.1,0-0.1-0.1-0.2-0.1c-0.6-0.5-1.2-0.9-1.8-1.3c-0.1-0.1-0.2-0.1-0.3-0.2c-0.6-0.4-1.2-0.7-1.8-1.1c-0.1,0-0.2-0.1-0.3-0.1
		c-0.6-0.3-1.2-0.6-1.9-0.9c-0.1,0-0.2-0.1-0.2-0.1c-0.7-0.3-1.3-0.5-2-0.7c-0.1,0-0.1,0-0.2,0c-0.7-0.2-1.4-0.4-2.1-0.5
		c0,0-0.1,0-0.1,0c-0.7-0.1-1.4-0.2-2.2-0.3c0,0-0.1,0-0.1,0c-0.7-0.1-1.5-0.1-2.2-0.1h0c-0.8,0-1.5,0-2.2,0.1c0,0-0.1,0-0.1,0
		c-0.7,0.1-1.5,0.2-2.2,0.3c0,0-0.1,0-0.1,0c-0.7,0.1-1.4,0.3-2.1,0.5c-0.1,0-0.1,0-0.2,0c-0.7,0.2-1.4,0.4-2,0.7
		c-0.1,0-0.2,0.1-0.2,0.1c-0.6,0.3-1.3,0.6-1.9,0.9c-0.1,0-0.2,0.1-0.3,0.1c-0.6,0.3-1.2,0.7-1.8,1.1c-0.1,0.1-0.2,0.1-0.3,0.2
		c-0.6,0.4-1.2,0.8-1.8,1.3c-0.1,0-0.1,0.1-0.2,0.1c-0.6,0.5-1.2,1-1.8,1.6l-46,46v-65.1c0-0.8,0-1.5-0.1-2.2c0,0,0-0.1,0-0.1
		c-0.1-0.7-0.2-1.5-0.3-2.2c0,0,0-0.1,0-0.1c-0.1-0.7-0.3-1.4-0.5-2.1c0-0.1,0-0.1,0-0.2c-0.2-0.7-0.4-1.4-0.7-2
		c0-0.1-0.1-0.2-0.1-0.2c-0.3-0.6-0.6-1.3-0.9-1.9c0-0.1-0.1-0.2-0.1-0.3c-0.3-0.6-0.7-1.2-1.1-1.8c-0.1-0.1-0.1-0.2-0.2-0.3
		c-0.4-0.6-0.8-1.2-1.3-1.8c0-0.1-0.1-0.1-0.1-0.2c-1-1.2-2.2-2.4-3.4-3.4c-0.1,0-0.1-0.1-0.2-0.1c-0.6-0.5-1.2-0.9-1.8-1.3
		c-0.1-0.1-0.2-0.1-0.3-0.2c-0.6-0.4-1.2-0.7-1.8-1.1c-0.1,0-0.2-0.1-0.3-0.1c-0.6-0.3-1.2-0.6-1.9-0.9c-0.1,0-0.2-0.1-0.2-0.1
		c-0.7-0.3-1.3-0.5-2-0.7c-0.1,0-0.1,0-0.2,0c-0.7-0.2-1.4-0.4-2.1-0.5c0,0-0.1,0-0.1,0c-0.7-0.1-1.4-0.2-2.2-0.3c0,0-0.1,0-0.1,0
		c-0.7-0.1-1.5-0.1-2.2-0.1h0c-0.8,0-1.5,0-2.2,0.1c0,0-0.1,0-0.1,0c-0.7,0.1-1.5,0.2-2.2,0.3c0,0-0.1,0-0.1,0
		c-0.7,0.1-1.4,0.3-2.1,0.5c-0.1,0-0.1,0-0.2,0c-0.7,0.2-1.4,0.4-2,0.7c-0.1,0-0.2,0.1-0.2,0.1c-0.6,0.3-1.3,0.6-1.9,0.9
		c-0.1,0-0.2,0.1-0.3,0.1c-0.6,0.3-1.2,0.7-1.8,1.1c-0.1,0.1-0.2,0.1-0.3,0.2c-0.6,0.4-1.2,0.8-1.8,1.3c-0.1,0-0.1,0.1-0.2,0.1
		c-0.6,0.5-1.2,1-1.8,1.6l-46,46v-65.1c0-0.8,0-1.5-0.1-2.2c0,0,0-0.1,0-0.1c-0.1-0.7-0.2-1.5-0.3-2.2c0,0,0-0.1,0-0.1
		c-0.1-0.7-0.3-1.4-0.5-2.1c0-0.1,0-0.1,0-0.2c-0.2-0.7-0.4-1.4-0.7-2c0-0.1-0.1-0.2-0.1-0.2c-0.3-0.6-0.6-1.3-0.9-1.9
		c0-0.1-0.1-0.2-0.1-0.3c-0.3-0.6-0.7-1.2-1.1-1.8c-0.1-0.1-0.1-0.2-0.2-0.3c-0.4-0.6-0.8-1.2-1.3-1.8c0-0.1-0.1-0.1-0.1-0.2
		c-1-1.2-2.2-2.4-3.4-3.4c-0.1,0-0.1-0.1-0.2-0.1c-0.6-0.5-1.2-0.9-1.8-1.3c-0.1-0.1-0.2-0.1-0.3-0.2c-0.6-0.4-1.2-0.7-1.8-1.1
		c-0.1,0-0.2-0.1-0.3-0.1c-0.6-0.3-1.2-0.6-1.9-0.9c-0.1,0-0.2-0.1-0.2-0.1c-0.7-0.3-1.3-0.5-2-0.7c-0.1,0-0.1,0-0.2,0
		c-0.7-0.2-1.4-0.4-2.1-0.5c0,0-0.1,0-0.1,0c-0.7-0.1-1.4-0.2-2.2-0.3c0,0-0.1,0-0.1,0c-0.7-0.1-1.5-0.1-2.2-0.1h0
		c-0.8,0-1.5,0-2.2,0.1c0,0-0.1,0-0.1,0c-0.7,0.1-1.5,0.2-2.2,0.3c0,0-0.1,0-0.1,0c-0.7,0.1-1.4,0.3-2.1,0.5c-0.1,0-0.1,0-0.2,0
		c-0.7,0.2-1.4,0.4-2,0.7c-0.1,0-0.2,0.1-0.2,0.1c-0.6,0.3-1.3,0.6-1.9,0.9c-0.1,0-0.2,0.1-0.3,0.1c-0.6,0.3-1.2,0.7-1.8,1.1
		c-0.1,0.1-0.2,0.1-0.3,0.2c-0.6,0.4-1.2,0.8-1.8,1.3c-0.1,0-0.1,0.1-0.2,0.1c-0.6,0.5-1.2,1-1.8,1.6l-87.3,87.3
		c-9.4,9.4-9.4,24.7,0,34.2l0,0c9.4,9.4,24.7,9.4,34.2,0l46-46v65.1c0,0.8,0,1.5,0.1,2.2c0,0,0,0.1,0,0.1c0.1,0.7,0.2,1.5,0.3,2.2
		c0,0,0,0.1,0,0.1c0.1,0.7,0.3,1.4,0.5,2.1c0,0.1,0,0.1,0,0.2c0.2,0.7,0.4,1.4,0.7,2c0,0.1,0.1,0.2,0.1,0.2c0.3,0.6,0.6,1.3,0.9,1.9
		c0,0.1,0.1,0.2,0.1,0.3c0.3,0.6,0.7,1.2,1.1,1.8c0.1,0.1,0.1,0.2,0.2,0.3c0.4,0.6,0.8,1.2,1.3,1.8c0,0.1,0.1,0.1,0.1,0.2
		c1,1.2,2.2,2.4,3.4,3.4c0.1,0,0.1,0.1,0.2,0.1c0.6,0.5,1.2,0.9,1.8,1.3c0.1,0.1,0.2,0.1,0.3,0.2c0.6,0.4,1.2,0.7,1.8,1.1
		c0.1,0,0.2,0.1,0.3,0.1c0.6,0.3,1.2,0.6,1.9,0.9c0.1,0,0.2,0.1,0.2,0.1c0.7,0.3,1.3,0.5,2,0.7c0.1,0,0.1,0,0.2,0
		c0.7,0.2,1.4,0.4,2.1,0.5c0,0,0.1,0,0.1,0c0.7,0.1,1.4,0.2,2.2,0.3c0,0,0.1,0,0.1,0c0.7,0.1,1.5,0.1,2.2,0.1h0c0.8,0,1.5,0,2.2-0.1
		c0,0,0.1,0,0.1,0c0.7-0.1,1.5-0.2,2.2-0.3c0,0,0.1,0,0.1,0c0.7-0.1,1.4-0.3,2.1-0.5c0.1,0,0.1,0,0.2,0c0.7-0.2,1.4-0.4,2-0.7
		c0.1,0,0.2-0.1,0.2-0.1c0.6-0.3,1.3-0.6,1.9-0.9c0.1,0,0.2-0.1,0.3-0.1c0.6-0.3,1.2-0.7,1.8-1.1c0.1-0.1,0.2-0.1,0.3-0.2
		c0.6-0.4,1.2-0.8,1.8-1.3c0.1,0,0.1-0.1,0.2-0.1c0.6-0.5,1.2-1,1.8-1.6l46-46V656c0,0.8,0,1.5,0.1,2.2c0,0,0,0.1,0,0.1
		c0.1,0.7,0.2,1.5,0.3,2.2c0,0,0,0.1,0,0.1c0.1,0.7,0.3,1.4,0.5,2.1c0,0.1,0,0.1,0,0.2c0.2,0.7,0.4,1.4,0.7,2c0,0.1,0.1,0.2,0.1,0.2
		c0.3,0.6,0.6,1.3,0.9,1.9c0,0.1,0.1,0.2,0.1,0.3c0.3,0.6,0.7,1.2,1.1,1.8c0.1,0.1,0.1,0.2,0.2,0.3c0.4,0.6,0.8,1.2,1.3,1.8
		c0,0.1,0.1,0.1,0.1,0.2c1,1.2,2.2,2.4,3.4,3.4c0.1,0,0.1,0.1,0.2,0.1c0.6,0.5,1.2,0.9,1.8,1.3c0.1,0.1,0.2,0.1,0.3,0.2
		c0.6,0.4,1.2,0.7,1.8,1.1c0.1,0,0.2,0.1,0.3,0.1c0.6,0.3,1.2,0.6,1.9,0.9c0.1,0,0.2,0.1,0.2,0.1c0.7,0.3,1.3,0.5,2,0.7
		c0.1,0,0.1,0,0.2,0c0.7,0.2,1.4,0.4,2.1,0.5c0,0,0.1,0,0.1,0c0.7,0.1,1.4,0.2,2.2,0.3c0,0,0.1,0,0.1,0c0.7,0.1,1.5,0.1,2.2,0.1h0
		c0.8,0,1.5,0,2.2-0.1c0,0,0.1,0,0.1,0c0.7-0.1,1.5-0.2,2.2-0.3c0,0,0.1,0,0.1,0c0.7-0.1,1.4-0.3,2.1-0.5c0.1,0,0.1,0,0.2,0
		c0.7-0.2,1.4-0.4,2-0.7c0.1,0,0.2-0.1,0.2-0.1c0.6-0.3,1.3-0.6,1.9-0.9c0.1,0,0.2-0.1,0.3-0.1c0.6-0.3,1.2-0.7,1.8-1.1
		c0.1-0.1,0.2-0.1,0.3-0.2c0.6-0.4,1.2-0.8,1.8-1.3c0.1,0,0.1-0.1,0.2-0.1c0.6-0.5,1.2-1,1.8-1.6l46-46v65.1
		c0,13.3,10.8,24.2,24.2,24.2h0c13.3,0,24.2-10.8,24.2-24.2V568.7C335.2,568,335.2,567.2,335.1,566.5z"/>
	<g id="shape4">
		<path class="st5" d="M587.3,623.6c0-0.1,0-0.2,0-0.3c0-0.1,0-0.3-0.1-0.4c0-0.1-0.1-0.2-0.1-0.4c0-0.1-0.1-0.2-0.1-0.3
			c0-0.1-0.1-0.2-0.1-0.4c0-0.1-0.1-0.2-0.1-0.3c0-0.1-0.1-0.2-0.1-0.3c-0.1-0.1-0.1-0.2-0.2-0.3c-0.1-0.1-0.1-0.2-0.2-0.3
			c-0.1-0.1-0.1-0.2-0.2-0.3c-0.1-0.1-0.2-0.2-0.2-0.3c-0.1-0.1-0.1-0.2-0.2-0.3c-0.3-0.4-0.7-0.7-1-1c-0.1-0.1-0.2-0.1-0.3-0.2
			c-0.1-0.1-0.2-0.2-0.3-0.2c-0.1-0.1-0.2-0.1-0.3-0.2c-0.1-0.1-0.2-0.1-0.3-0.2c-0.1-0.1-0.2-0.1-0.3-0.2c-0.1-0.1-0.2-0.1-0.3-0.2
			c-0.1,0-0.2-0.1-0.3-0.1c-0.1,0-0.2-0.1-0.4-0.1c-0.1,0-0.2-0.1-0.3-0.1c-0.1,0-0.2-0.1-0.4-0.1c-0.1,0-0.3,0-0.4-0.1
			c-0.1,0-0.2,0-0.3,0c-0.2,0-0.5,0-0.7,0c0,0,0,0,0,0s0,0,0,0c-0.2,0-0.5,0-0.7,0c-0.1,0-0.2,0-0.3,0c-0.1,0-0.3,0-0.4,0.1
			c-0.1,0-0.2,0.1-0.4,0.1c-0.1,0-0.2,0.1-0.3,0.1c-0.1,0-0.2,0.1-0.4,0.1c-0.1,0-0.2,0.1-0.3,0.1c-0.1,0-0.2,0.1-0.3,0.2
			c-0.1,0.1-0.2,0.1-0.3,0.2c-0.1,0.1-0.2,0.1-0.3,0.2c-0.1,0.1-0.2,0.1-0.3,0.2c-0.1,0.1-0.2,0.2-0.3,0.2c-0.1,0.1-0.2,0.1-0.3,0.2
			c-0.2,0.2-0.4,0.3-0.5,0.5l-14.2,14.2v-20c0-0.2,0-0.5,0-0.7c0-0.1,0-0.2,0-0.3c0-0.1,0-0.3-0.1-0.4c0-0.1-0.1-0.2-0.1-0.4
			c0-0.1-0.1-0.2-0.1-0.3c0-0.1-0.1-0.2-0.1-0.4c0-0.1-0.1-0.2-0.1-0.3c0-0.1-0.1-0.2-0.1-0.3c-0.1-0.1-0.1-0.2-0.2-0.3
			c-0.1-0.1-0.1-0.2-0.2-0.3c-0.1-0.1-0.1-0.2-0.2-0.3c-0.1-0.1-0.2-0.2-0.2-0.3c-0.1-0.1-0.1-0.2-0.2-0.3c-0.3-0.4-0.7-0.7-1-1
			c-0.1-0.1-0.2-0.1-0.3-0.2c-0.1-0.1-0.2-0.2-0.3-0.2c-0.1-0.1-0.2-0.1-0.3-0.2c-0.1-0.1-0.2-0.1-0.3-0.2c-0.1-0.1-0.2-0.1-0.3-0.2
			c-0.1-0.1-0.2-0.1-0.3-0.1c-0.1,0-0.2-0.1-0.3-0.1c-0.1,0-0.2-0.1-0.4-0.1c-0.1,0-0.2-0.1-0.3-0.1c-0.1,0-0.2-0.1-0.4-0.1
			c-0.1,0-0.3,0-0.4-0.1c-0.1,0-0.2,0-0.3,0c-0.5,0-1,0-1.5,0c-0.1,0-0.2,0-0.3,0c-0.1,0-0.3,0-0.4,0.1c-0.1,0-0.2,0.1-0.4,0.1
			c-0.1,0-0.2,0.1-0.3,0.1c-0.1,0-0.2,0.1-0.4,0.1c-0.1,0-0.2,0.1-0.3,0.1c-0.1,0-0.2,0.1-0.3,0.1c-0.1,0.1-0.2,0.1-0.3,0.2
			c-0.1,0.1-0.2,0.1-0.3,0.2c-0.1,0.1-0.2,0.1-0.3,0.2c-0.1,0.1-0.2,0.2-0.3,0.2c-0.1,0.1-0.2,0.1-0.3,0.2c-0.2,0.2-0.4,0.3-0.5,0.5
			L521,634.8c-2.9,2.9-2.9,7.6,0,10.5c2.9,2.9,7.6,2.9,10.5,0l14.2-14.2v20c0,0,0,0,0,0c0,0.2,0,0.5,0,0.7c0,0.1,0,0.2,0,0.3
			c0,0.1,0,0.3,0.1,0.4c0,0.1,0.1,0.2,0.1,0.4c0,0.1,0.1,0.2,0.1,0.3c0,0.1,0.1,0.2,0.1,0.4c0,0.1,0.1,0.2,0.1,0.3
			c0,0.1,0.1,0.2,0.2,0.3c0.1,0.1,0.1,0.2,0.2,0.3c0.1,0.1,0.1,0.2,0.2,0.3c0.1,0.1,0.1,0.2,0.2,0.3c0.1,0.1,0.2,0.2,0.2,0.3
			c0.1,0.1,0.1,0.2,0.2,0.3c0.3,0.4,0.7,0.7,1,1c0.1,0.1,0.2,0.1,0.3,0.2c0.1,0.1,0.2,0.2,0.3,0.2c0.1,0.1,0.2,0.1,0.3,0.2
			c0.1,0.1,0.2,0.1,0.3,0.2c0.1,0.1,0.2,0.1,0.3,0.2c0.1,0.1,0.2,0.1,0.3,0.1c0.1,0,0.2,0.1,0.3,0.1c0.1,0,0.2,0.1,0.4,0.1
			c0.1,0,0.2,0.1,0.3,0.1c0.1,0,0.2,0.1,0.4,0.1c0.1,0,0.3,0,0.4,0.1c0.1,0,0.2,0,0.3,0c0.5,0,1,0,1.5,0c0.1,0,0.2,0,0.3,0
			c0.1,0,0.3,0,0.4-0.1c0.1,0,0.2-0.1,0.4-0.1c0.1,0,0.2-0.1,0.3-0.1c0.1,0,0.2-0.1,0.4-0.1c0.1,0,0.2-0.1,0.3-0.1
			c0.1,0,0.2-0.1,0.3-0.1c0.1-0.1,0.2-0.1,0.3-0.2c0.1-0.1,0.2-0.1,0.3-0.2c0.1-0.1,0.2-0.1,0.3-0.2c0.1-0.1,0.2-0.2,0.3-0.2
			c0.1-0.1,0.2-0.1,0.3-0.2c0.2-0.2,0.4-0.3,0.5-0.5l14.2-14.2v20c0,4.1,3.3,7.4,7.4,7.4s7.4-3.3,7.4-7.4v-38
			C587.3,624.1,587.3,623.9,587.3,623.6z"/>
		<path class="st5" d="M531.5,596.9L531.5,596.9c-2.9-2.9-7.6-2.9-10.5,0l-26.8,26.8c-2.9,2.9-2.9,7.6,0,10.5
			c2.9,2.9,7.6,2.9,10.5,0l26.8-26.8C534.4,604.5,534.4,599.8,531.5,596.9z"/>
	</g>
	<g id="shape3">
		<path class="st6" d="M1266.4,864.1c0.1-0.2,0.2-0.5,0.2-0.7c7.4-25,5.7-49.2-2.9-64.1c4.1-7.2,7.7-15.3,10.3-24.2
			c11-37.2,2.2-72.6-19.7-79.1c-12.5-3.7-26.6,2.8-38.5,16.1c-4.1-11.1-11-19-20.3-21.8c-14.6-4.3-31.2,5.2-44,23
			c-2.7-17.4-11-30.5-23.5-34.2c-14.1-4.2-30.2,4.6-42.8,21.3c-3.1-16.4-11.1-28.6-23.1-32.1c-9.6-2.9-20.2,0.3-29.9,7.9
			c-3.8-13.3-11.2-23.1-21.7-26.2c-21.9-6.5-48.6,18.3-59.7,55.5c-8.3,27.9-5.4,54.7,5.8,69.2c-7.5,9.5-13.8,21.7-17.9,35.6
			c-11,37.2-2.2,72.6,19.7,79.1c17.1,5.1,37.1-8.9,50.3-32.9c1,21.9,9.8,39,24.4,43.3c12,3.6,25.5-2.3,37.1-14.5
			c3.8,13.3,11.2,23,21.7,26.1c14.5,4.3,31-5.1,43.8-22.7c-0.3,24.5,8.7,44.1,24.5,48.8c7.7,2.3,15.9,0.7,23.8-3.9
			c0.3,23.1,9.1,41.4,24.2,45.8c21.7,6.4,48.1-18.2,59.1-55C1274.1,901.5,1273.3,879.2,1266.4,864.1z M1128.5,870.9
			c-9.9-2.9-17-12-20.7-24.5c-9.3,7.2-19.3,10.2-28.5,7.5c-5.3-1.6-9.7-4.8-13.3-9.4c-5.5,1.9-11.1,2.2-16.3,0.7
			c-8-2.4-14.2-8.8-18.2-17.7c-8.2,5.3-16.9,7.3-24.9,4.9c-20.8-6.2-29.4-39.4-19-74.1c10.3-34.8,35.6-57.9,56.4-51.8
			c8,2.4,14.2,8.8,18.2,17.7c8.2-5.3,16.9-7.3,24.9-4.9c5.3,1.6,9.7,4.8,13.3,9.4c5.5-1.9,11.1-2.2,16.3-0.7
			c9.9,2.9,17,12,20.7,24.5c9.3-7.2,19.3-10.2,28.5-7.5c20.8,6.2,29.4,39.4,19,74.1S1149.3,877.1,1128.5,870.9z"/>
		<path class="st6" d="M540.4,513.9c0.1-0.2,0.2-0.3,0.3-0.5c-0.1,0-0.2-0.1-0.3-0.1C540.4,513.6,540.4,513.7,540.4,513.9z"/>
	</g>
	<text id="shape2" transform="matrix(0.9681 0.2507 -0.2507 0.9681 1587.3271 275.0166)" class="st4 st8 st9">B</text>
	<path id="shape1" class="st3" d="M1440.3,449.7c-10.9-40-1.6-84.3,28-116.8c47.9-52.5,130.8-54.1,180.7-3.5
		c15.5,15.8,26,34.6,31.4,54.6c5.5,20.4,26.3,32.5,46.6,27l0.1,0c20.2-5.5,32.1-26.3,26.7-46.5c-10.4-38.8-32.7-75-66.7-103
		c-75.2-61.9-184.8-60.1-258.2,3.9c-60.7,53-81.3,132.9-61.9,204.2c5.5,20.2,26.4,32,46.5,26.5v0
		C1433.7,490.6,1445.8,469.8,1440.3,449.7z"/>
</g>
<g id="whitebottom">
	<path class="st10" d="M1920,699.3c0,0-230.1,49.6-489.8,49.6S777.4,615.6,478.8,615.6S0,699.3,0,699.3V1080h1920V699.3z"/>
</g>
<g id="whitebottom_copy">
	<path class="st10" d="M1920,699.3c0,0-230.1,49.6-489.8,49.6S777.4,615.6,478.8,615.6S0,699.3,0,699.3V1080h1920V699.3z"/>
</g>
</svg>
