<?xml version="1.0" encoding="utf-8"?>
<!-- Generator: Adobe Illustrator 24.3.0, SVG Export Plug-In . SVG Version: 6.00 Build 0)  -->
<svg version="1.1" id="Layer_1" xmlns="http://www.w3.org/2000/svg" xmlns:xlink="http://www.w3.org/1999/xlink" x="0px" y="0px"
	 viewBox="0 0 1817.8 1664.7" style="enable-background:new 0 0 1817.8 1664.7;" xml:space="preserve">
<style type="text/css">
	.st0{opacity:4.000000e-02;fill:#1D75BB;}
	.st1{fill:none;stroke:#74AAD5;stroke-miterlimit:10;}
	.st2{fill:none;stroke:#1D75BB;stroke-width:10;stroke-miterlimit:10;}
	.st3{fill:#1D75BB;}
	.st4{fill:none;stroke:#8CC63F;stroke-width:10;stroke-miterlimit:10;}
	.st5{fill:#8CC63F;}
	.st6{opacity:0.1;fill:#1D75BB;}
	.st7{fill:#FFFFFF;}
	.st8{opacity:5.000000e-02;fill:#1D75BB;}
</style>
<path class="st0" d="M-421.1,2297.8c-34.4-27.1-49.2-62.6-37.5-90.6c0.1-0.3,0.2-0.5,0.3-0.8c36.1-90.9-212.1-274.8-554.4-410.8
	s-649-172.5-685.1-81.6c-10.2,25.6,2.2,58.6,33,95.9c37.6,45.6,22.1,94.9-33.6,106.7c-116.7,24.8-199.7,77.1-231.2,156.3
	c-85.5,215.1,242,547.1,731.3,741.5S-243,2992-157.6,2776.9C-104.1,2642.2-212.5,2461.7-421.1,2297.8z"/>
<g>
	<g>
		<path class="st1" d="M-772.8,1759.5"/>
	</g>
</g>
<g>
	<g>
		<path class="st1" d="M-1082.8,1718.9"/>
	</g>
</g>
<circle class="st2" cx="-1209" cy="1456.3" r="132.5"/>
<circle class="st2" cx="-813.5" cy="1488.6" r="132.5"/>
<circle class="st2" cx="-495.9" cy="1756.4" r="132.5"/>
<g>
	
		<ellipse transform="matrix(2.843645e-02 -0.9996 0.9996 2.843645e-02 -3104.4236 804.5805)" class="st3" cx="-1138.3" cy="1999.3" rx="140.6" ry="102.2"/>
	<path class="st3" d="M-1395.8,1984.3c0,0,24.9,88.9,53.1,136.2c28.2,47.3,112.6,132.6,112.6,132.6s-36.2,58.5-88.2,109
		c-52,50.5-134.3,99.7-134.3,99.7s74.4,10.6,141.9-13.5c67.4-24.1,134.3-85.8,134.3-85.8s-4.6,72.5-13.4,122.7
		s-29.4,144.6-29.4,144.6s86.9-95.7,121.9-189.5c35-93.8,29.7-192,29.7-192s69.7-43.5,110.5-100.3c40.8-56.7,70.5-139,70.5-139
		s-166.5,158.1-263.1,149.2C-1266.7,2145.7-1395.8,1984.3-1395.8,1984.3z"/>
	<path class="st3" d="M-1395.8,1984.3c0,0,16.7,74.9,49.4,130.1c32.7,55.1,116.3,138.7,116.3,138.7L-1395.8,1984.3z"/>
</g>
<g>
	
		<rect x="-934.9" y="1635.9" transform="matrix(-0.5703 0.8214 -0.8214 -0.5703 -86.8617 3330.6997)" class="st3" width="40.8" height="13.4"/>
	
		<rect x="-967.2" y="1682.4" transform="matrix(-0.5703 0.8214 -0.8214 -0.5703 -99.3621 3430.1951)" class="st3" width="40.8" height="13.4"/>
	
		<rect x="-999.5" y="1728.9" transform="matrix(-0.5703 0.8214 -0.8214 -0.5703 -111.8624 3529.6907)" class="st3" width="40.8" height="13.4"/>
	
		<rect x="-1031.8" y="1775.3" transform="matrix(-0.5703 0.8214 -0.8214 -0.5703 -124.3628 3629.1863)" class="st3" width="40.8" height="13.4"/>
	
		<rect x="-1064" y="1821.8" transform="matrix(-0.5703 0.8214 -0.8214 -0.5703 -136.8631 3728.6819)" class="st3" width="40.8" height="13.4"/>
</g>
<g>
	
		<rect x="-1199.2" y="1623.2" transform="matrix(0.1397 0.9902 -0.9902 0.1397 599.8666 2569.3445)" class="st3" width="40.8" height="13.4"/>
	
		<rect x="-1191.3" y="1679.2" transform="matrix(0.1397 0.9902 -0.9902 0.1397 662.1476 2609.7139)" class="st3" width="40.8" height="13.4"/>
	
		<rect x="-1183.4" y="1735.2" transform="matrix(0.1397 0.9902 -0.9902 0.1397 724.4287 2650.0835)" class="st3" width="40.8" height="13.4"/>
	
		<rect x="-1175.5" y="1791.3" transform="matrix(0.1397 0.9902 -0.9902 0.1397 786.7098 2690.4531)" class="st3" width="40.8" height="13.4"/>
</g>
<g>
	<g>
		
			<rect x="-690.1" y="1816.2" transform="matrix(-0.9299 0.3679 -0.3679 -0.9299 -621.8486 3764.2822)" class="st3" width="40.8" height="13.4"/>
		
			<rect x="-742.7" y="1837" transform="matrix(-0.9299 0.3679 -0.3679 -0.9299 -715.7357 3823.8066)" class="st3" width="40.8" height="13.4"/>
		
			<rect x="-795.3" y="1857.8" transform="matrix(-0.9299 0.3679 -0.3679 -0.9299 -809.6226 3883.3313)" class="st3" width="40.8" height="13.4"/>
		
			<rect x="-847.9" y="1878.6" transform="matrix(-0.9299 0.3679 -0.3679 -0.9299 -903.5096 3942.856)" class="st3" width="40.8" height="13.4"/>
	</g>
	<g>
		<path class="st3" d="M-848.7,1888.8L-848.7,1888.8z"/>
		
			<rect x="-900.3" y="1901.6" transform="matrix(-0.9299 0.3679 -0.3679 -0.9299 -996.0753 4006.4912)" class="st3" width="40.8" height="13.4"/>
		
			<rect x="-952.9" y="1922.4" transform="matrix(-0.9299 0.3679 -0.3679 -0.9299 -1089.9623 4066.0159)" class="st3" width="40.8" height="13.4"/>
		
			<rect x="-1005.5" y="1943.2" transform="matrix(-0.9299 0.3679 -0.3679 -0.9299 -1183.8492 4125.5405)" class="st3" width="40.8" height="13.4"/>
	</g>
</g>
<polygon class="st4" points="-414.2,1736.4 -473,1734.8 -471.3,1675.9 -515.9,1674.7 -517.6,1733.5 -576.4,1731.8 -577.7,1776.4 
	-518.9,1778.1 -520.6,1836.9 -475.9,1838.2 -474.3,1779.4 -415.4,1781.1 "/>
<path class="st4" d="M-1209,1370.9c0,0-23.5,22.9-70,26.8c11.4,81.6,70,144,70,144s58.6-62.4,70-144
	C-1185.6,1393.8-1209,1370.9-1209,1370.9z"/>
<g>
	<path class="st4" d="M-847.4,1531.7c-14.7-14.8-29.9-30-44.5-44.6c30.8-30.8,61.8-61.9,92.3-92.5c14.5,14.6,29.8,30,44.5,44.7
		C-785.1,1469.3-816.2,1500.4-847.4,1531.7z"/>
	<path class="st5" d="M-736.3,1556.5c-3.4,0-6.4,0-10.4,0c0-12.4,0-24.7,0-38.2c-6.5,0-12.2-0.4-17.7,0.1
		c-8.6,0.9-15.5-1.1-21.1-8.3c-1.4-1.8-5.5-2-8.4-2.2c-5.2-0.3-10.4-0.1-15.6-0.1c10.2-10.2,19.6-19.6,29.8-29.7
		c0.1,4.5,0.8,9.9,0.2,15.1c-0.8,6.2,3.9,13.5,10.3,13.8c7,0.3,14,0.1,21.9,0.1c0-12.8,0-25.1,0-38c4.1,0,7.3,0,11,0
		C-736.3,1498-736.3,1526.8-736.3,1556.5z"/>
	<path class="st4" d="M-894.7,1508c3.7-3.9,7.7-8,11.2-11.6c9.1,9.1,17.8,17.9,26.8,26.9c-3.6,3.3-7.9,7.3-11.9,11
		C-876.8,1526.1-885.5,1517.3-894.7,1508z"/>
</g>
<g>
	
		<rect x="-942.1" y="-191.4" transform="matrix(-1.836970e-16 1 -1 -1.836970e-16 -1063.813 718.1848)" class="st3" width="102.2" height="37.2"/>
	
		<rect x="-942.1" y="-50.4" transform="matrix(-1.836970e-16 1 -1 -1.836970e-16 -922.8188 859.179)" class="st3" width="102.2" height="37.2"/>
	
		<rect x="-942.1" y="90.6" transform="matrix(-1.836970e-16 1 -1 -1.836970e-16 -781.8246 1000.1732)" class="st3" width="102.2" height="37.2"/>
	
		<rect x="-942.1" y="231.6" transform="matrix(-1.836970e-16 1 -1 -1.836970e-16 -640.8304 1141.1674)" class="st3" width="102.2" height="37.2"/>
	
		<rect x="-942.1" y="372.6" transform="matrix(-1.836970e-16 1 -1 -1.836970e-16 -499.8363 1282.1615)" class="st3" width="102.2" height="37.2"/>
	
		<rect x="-942.1" y="654.6" transform="matrix(-1.836970e-16 1 -1 -1.836970e-16 -217.8479 1564.1499)" class="st3" width="102.2" height="37.2"/>
	
		<rect x="-942.1" y="513.6" transform="matrix(-1.836970e-16 1 -1 -1.836970e-16 -358.8421 1423.1556)" class="st3" width="102.2" height="37.2"/>
	
		<rect x="-942.1" y="795.6" transform="matrix(-1.836970e-16 1 -1 -1.836970e-16 -76.8537 1705.144)" class="st3" width="102.2" height="37.2"/>
	
		<rect x="-942.1" y="936.6" transform="matrix(-1.836970e-16 1 -1 -1.836970e-16 64.1405 1846.1383)" class="st3" width="102.2" height="37.2"/>
	
		<rect x="-942.1" y="1077.6" transform="matrix(-1.836970e-16 1 -1 -1.836970e-16 205.1346 1987.1324)" class="st3" width="102.2" height="37.2"/>
</g>
<g>
	
		<rect x="-874.1" y="-50" transform="matrix(-7.488808e-07 1 -1 -7.488808e-07 -854.3434 791.5847)" class="st3" width="102.2" height="37.2"/>
	
		<rect x="-874.1" y="91" transform="matrix(-7.488808e-07 1 -1 -7.488808e-07 -713.3494 932.5792)" class="st3" width="102.2" height="37.2"/>
	
		<rect x="-874.1" y="232" transform="matrix(-7.488808e-07 1 -1 -7.488808e-07 -572.3553 1073.5735)" class="st3" width="102.2" height="37.2"/>
	
		<rect x="-874.1" y="373" transform="matrix(-7.488808e-07 1 -1 -7.488808e-07 -431.3612 1214.568)" class="st3" width="102.2" height="37.2"/>
	
		<rect x="-874.1" y="514" transform="matrix(-7.488808e-07 1 -1 -7.488808e-07 -290.3671 1355.5624)" class="st3" width="102.2" height="37.2"/>
	
		<rect x="-874.1" y="796" transform="matrix(-7.488808e-07 1 -1 -7.488808e-07 -8.379 1637.5511)" class="st3" width="102.2" height="37.2"/>
	
		<rect x="-874.1" y="655" transform="matrix(-7.488808e-07 1 -1 -7.488808e-07 -149.373 1496.5568)" class="st3" width="102.2" height="37.2"/>
	
		<rect x="-874.1" y="937" transform="matrix(-7.488808e-07 1 -1 -7.488808e-07 132.6151 1778.5455)" class="st3" width="102.2" height="37.2"/>
	
		<rect x="-874.1" y="1078" transform="matrix(-7.488808e-07 1 -1 -7.488808e-07 273.6092 1919.5399)" class="st3" width="102.2" height="37.2"/>
	
		<rect x="-874.1" y="1219" transform="matrix(-7.488808e-07 1 -1 -7.488808e-07 414.6033 2060.5344)" class="st3" width="102.2" height="37.2"/>
</g>
<polygon class="st6" points="-181.7,1275.8 -260.6,697.5 -404.6,697.5 -454.5,1274.8 -548.5,1274.4 -318.6,1434.5 -91,1276.1 "/>
<g>
	<path class="st7" d="M3101.1,1944.7c0,59.5,0,119,0,179c-134.8,0-269.5,0-404.3,0c1.6-1.1,3.1-2.4,4.9-3.3
		c60.7-33.4,121.6-66.3,181.8-100.5c8.4-4.8,18.4-15.4,18.9-23.8c2.3-42,3.9-84.2,1.4-126.2c-1.7-28.9-28.7-46.7-59.9-44.2
		c-12.1,36.2-24.7,73.1-36.6,110.1c-5.5,17.2-19.7,30.1-38.7,29.8c-40.6-0.6-81.2-2.3-121.7-4.2c-24.8-1.2-40.5-15.4-49-38.1
		c-7.2-19.2-14-38.5-21.1-57.7c-4.9-13.4-6.4-32.2-16-38.5c-10.6-6.9-28.8-1.8-43.6-3c-11.4-0.9-17.9,4.4-20.3,14.3
		c-3.6,14.9-7.1,30-8.4,45.3c-3.6,41.1-3.7,82.1,5.6,122.7c3.3,14.2,9.3,22.6,27.1,22.2c56-1.1,112.1,0.1,168.1,0.4
		c6.9,0,13.9,0,20.8,0c-16.9,14.5-34.1,22.4-56.3,20.6c-53.2-4.4-106.7-5.9-160-9.7c-23.2-1.6-38.4,7.1-47,28.2
		c0-225.9,0-451.9,0-679c81.3,0,162.5,0,243.8,0c-1.9,0.8-3.6,1.9-5.6,2.4c-51.9,12.9-78.8,53.6-71.8,108.8
		c5.4,42,48.3,75.5,95.5,74.5c42.5-0.9,80.9-33.9,87.2-74.9c7.3-47.5-16.5-90-58.9-104.9c-6.2-2.2-12.5-4-18.7-6
		c127.6,0,255.1,0,382.7,0c0,174.9,0,349.8,0,524.7c-0.8-1.2-2-2.4-2.4-3.8c-13-46.4-45.9-71.6-93.2-71.2
		c-38.1,0.3-64.4,20.1-80.1,52.8c-16.3,33.9-11.5,67.5,12.4,96.6c23,28,53.5,39.3,89.4,31.7
		C3068.1,2011.3,3090.8,1983.9,3101.1,1944.7z M2794.6,1892c11.5-30,24.2-62.3,36.5-94.9c24.7-65.2,49.3-130.4,73.5-195.8
		c9.8-26.5,3.7-47.9-18-65.7c-19-15.6-41.7-22.6-64.9-29.2c-1.9,3.6-3.1,5.8-4.1,8.1c-1.2,2.8-2,5.8-3.3,8.6
		c-18.1,38.3-47.4,64-89.7,69.5c-62.8,8.2-105-17.2-132.3-75.2c-1.7-3.6-9.3-8.2-11.7-7.1c-19.8,9.3-40.9,17.3-57.7,30.7
		c-17.6,14-23.7,34.4-14.8,58.2c14.5,38.9,27,78.5,40.6,117.7c22.5,64.9,45.4,129.6,67.9,194.5c5.2,15.1,14.5,28.6,30.3,29.5
		c41,2.2,82.2,1.5,123.4,1.6c10.6,0,15.6-7,16.5-16.8c1.2-13.5-4.9-21.7-18.7-23.1c-21.5-2.1-43-4.3-64.5-5.6
		c-10.7-0.7-15.6-5.3-19.1-15.5c-30.4-89.3-61.4-178.3-92.2-267.5c-4.9-14.1-9.5-28.3-14.2-42.4c1.8-0.9,3.7-1.8,5.5-2.6
		c5.8,10.8,13.1,21.1,17.2,32.5c27.9,78.2,55.7,156.5,82.2,235.1c4.8,14.2,11.1,17.7,25,16.7c9.7-0.7,11.4-6.2,14-12.9
		c31.6-82.3,63.1-164.6,95.1-246.8c3.3-8.3,9.8-15.4,14.8-23.1c1.3,0.9,2.7,1.7,4,2.6c-1.7,4.8-3.2,9.6-5,14.3
		c-31.7,83.9-63.6,167.7-94.8,251.8c-6.6,17.8-11,36.3-37.9,32.5c3.7,4.4,6.8,7.5,10.3,8.3c8,1.7,16.3,2.1,24.4,3.2
		C2752.3,1885.9,2771.8,1888.8,2794.6,1892z"/>
	<path d="M2446.8,2068.1c8.6-21.1,23.8-29.9,47-28.2c53.3,3.8,106.8,5.3,160,9.7c22.2,1.8,39.4-6.1,56.3-20.6c-6.9,0-13.9,0-20.8,0
		c-56-0.3-112.1-1.5-168.1-0.4c-17.8,0.4-23.9-8-27.1-22.2c-9.3-40.5-9.2-81.6-5.6-122.7c1.3-15.2,4.9-30.3,8.4-45.3
		c2.4-9.9,8.9-15.3,20.3-14.3c14.8,1.2,33-4,43.6,3c9.6,6.3,11.1,25.2,16,38.5c7.1,19.2,13.9,38.6,21.1,57.7
		c8.5,22.6,24.2,36.9,49,38.1c40.6,1.9,81.1,3.6,121.7,4.2c19,0.3,33.1-12.6,38.7-29.8c11.9-37,24.5-73.8,36.6-110.1
		c31.2-2.5,58.2,15.3,59.9,44.2c2.5,41.9,0.9,84.2-1.4,126.2c-0.5,8.4-10.5,19-18.9,23.8c-60.2,34.2-121.1,67.1-181.8,100.5
		c-1.7,0.9-3.2,2.2-4.9,3.3c-14.4,0-28.8,0-43.2,0c-11.6-1-23.3-2.3-34.9-3c-43.9-2.7-87.8-5.7-131.8-7.7
		c-20.5-1-33.3-10.7-40.1-29.4C2446.8,2078.4,2446.8,2073.3,2446.8,2068.1z"/>
	<path d="M2718.4,1389.2c6.2,2,12.5,3.8,18.7,6c42.4,14.9,66.2,57.3,58.9,104.9c-6.3,41-44.7,74-87.2,74.9
		c-47.1,1-90.1-32.5-95.5-74.5c-7-55.2,19.8-95.9,71.8-108.8c1.9-0.5,3.7-1.6,5.6-2.4C2699.9,1389.2,2709.2,1389.2,2718.4,1389.2z"
		/>
	<path d="M3101.1,1944.7c-10.3,39.2-33.1,66.6-73.9,75.3c-35.8,7.6-66.4-3.7-89.4-31.7c-23.9-29.1-28.7-62.7-12.4-96.6
		c15.7-32.7,42-52.6,80.1-52.8c47.3-0.4,80.2,24.9,93.2,71.2c0.4,1.4,1.6,2.5,2.4,3.8C3101.1,1924.1,3101.1,1934.4,3101.1,1944.7z"
		/>
	<path class="st7" d="M2446.8,2083.6c6.8,18.7,19.6,28.5,40.1,29.4c43.9,2.1,87.8,5,131.8,7.7c11.7,0.7,23.3,2,34.9,3
		c-68.9,0-137.9,0-206.8,0C2446.8,2110.2,2446.8,2096.9,2446.8,2083.6z"/>
	<path d="M2794.6,1892c-22.7-3.2-42.3-6.1-61.9-8.8c-8.1-1.1-16.4-1.5-24.4-3.2c-3.6-0.8-6.6-3.9-10.3-8.3
		c26.9,3.8,31.3-14.8,37.9-32.5c31.3-84.1,63.2-167.9,94.8-251.8c1.8-4.7,3.3-9.5,5-14.3c-1.3-0.9-2.7-1.7-4-2.6
		c-5,7.7-11.5,14.7-14.8,23.1c-32,82.1-63.5,164.5-95.1,246.8c-2.6,6.7-4.3,12.2-14,12.9c-13.9,1-20.2-2.5-25-16.7
		c-26.6-78.7-54.3-156.9-82.2-235.1c-4.1-11.4-11.4-21.7-17.2-32.5c-1.8,0.9-3.7,1.8-5.5,2.6c4.7,14.1,9.4,28.3,14.2,42.4
		c30.8,89.1,61.8,178.2,92.2,267.5c3.5,10.2,8.4,14.8,19.1,15.5c21.5,1.4,43,3.5,64.5,5.6c13.8,1.3,19.9,9.6,18.7,23.1
		c-0.9,9.8-5.9,16.9-16.5,16.8c-41.1-0.1-82.3,0.5-123.4-1.6c-15.8-0.8-25-14.3-30.3-29.5c-22.5-64.9-45.4-129.6-67.9-194.5
		c-13.6-39.2-26.1-78.8-40.6-117.7c-8.9-23.8-2.8-44.2,14.8-58.2c16.8-13.4,38-21.4,57.7-30.7c2.4-1.1,10,3.5,11.7,7.1
		c27.3,57.9,69.5,83.3,132.3,75.2c42.3-5.5,71.5-31.1,89.7-69.5c1.3-2.8,2.1-5.8,3.3-8.6c1-2.3,2.3-4.5,4.1-8.1
		c23.1,6.6,45.9,13.7,64.9,29.2c21.7,17.8,27.8,39.2,18,65.7c-24.2,65.4-48.9,130.6-73.5,195.8
		C2818.7,1829.7,2806.1,1862,2794.6,1892z"/>
</g>
<g>
	<path class="st3" d="M-1698.6-505.6c26.6-176.5,179.2-312.2,363-312.2c183.8,0,336.4,135.7,363,312.2h23.4
		c-4.7-33.3-13.7-65.8-26.9-97c-19.7-46.5-47.8-88.2-83.6-124c-35.8-35.8-77.6-64-124-83.6c-48.1-20.4-99.2-30.7-151.9-30.7
		c-52.7,0-103.8,10.3-151.9,30.7c-46.5,19.7-88.2,47.8-124,83.6c-35.8,35.8-64,77.6-83.6,124c-13.2,31.2-22.2,63.7-26.9,97H-1698.6z
		"/>
	<path class="st3" d="M-970-417.7c-16.8,187-174.3,334-365.6,334c-191.3,0-348.8-147.1-365.6-334h-23.2c3.4,41,13.2,80.9,29.3,118.9
		c19.7,46.5,47.8,88.2,83.6,124c35.8,35.8,77.6,64,124,83.6c48.1,20.4,99.2,30.7,151.9,30.7c52.7,0,103.8-10.3,151.9-30.7
		c46.5-19.7,88.2-47.8,124-83.6c35.8-35.8,64-77.6,83.6-124c16.1-38,25.9-77.8,29.3-118.9H-970z"/>
</g>
<g>
	<path class="st3" d="M1571,449.2l-91.6-45.4c-17.6-8.7-39.9,0.4-49.7,20.3l-17.5,35.4l-0.4-0.2c-15.3-7.6-34.2-1.7-45.3,13.1
		c-1.7,2.2-3.1,4.6-4.4,7.2l-0.8,1.6l-16.3,32.9l0,0l-4.6,9.3c-6.7,13.5-5.9,28.6,0.8,39.6c0.3,0.4,0.5,0.8,0.8,1.2
		c3.1,4.6,7.3,8.4,12.4,11l0.4,0.2l-17.5,35.4c-9.8,19.9-3.6,43.1,14,51.8l91.6,45.4c17.6,8.7,39.9-0.4,49.7-20.3l57.9-117L1585,501
		C1594.8,481.1,1588.5,457.9,1571,449.2z M1352,540L1352,540c0.2-3.2,1-6.4,2.5-9.5l3.9-7.9c0,0,0,0,0,0l17.8-35.9
		c1.2-2.5,2.8-4.7,4.6-6.5c6.2-6.3,15.3-8.4,22.8-4.7l0.4,0.2l-6.6,13.4l-34.8,70.2l-0.4-0.2C1355.3,555.6,1351.6,548,1352,540z
		 M1570.7,493.9l-34.3,69.3l-58.2,117.4c-5.4,11-17.7,16-27.4,11.2l-91.6-45.4c-9.7-4.8-13.2-17.6-7.7-28.6l17.5-35.4l42.6-85.9
		l14.8-30l17.5-35.4c5.4-11,17.7-16,27.4-11.2l91.6,45.4C1572.6,470.2,1576.1,483,1570.7,493.9z"/>
	<g>
		<path class="st3" d="M1139.7,617.1c-3.6,1-7.3,1.7-11.1,2.2c-56.2,6.5-106.4-50.9-112.1-128.3c-5.8-77.4,35.1-145.4,91.2-151.9
			c29.8-3.5,57.9,11.1,78.5,37c18.4,23,30.9,54.9,33.6,91.3C1225.1,539.6,1190,603.6,1139.7,617.1z"/>
		<path class="st3" d="M1375.6,464.2C1375.6,464.3,1375.6,464.3,1375.6,464.2c0,0.1,0,0.1,0,0.2c-0.2,0.9-1.1,5-2.8,11.4
			c-2.8,10.6-7.5,27.5-14.3,46.7c0,0,0,0,0,0c-2,5.6-4.1,11.5-6.4,17.4v0c-3.1,8-6.5,16.1-10.2,24.2c-4.7,10.3-9.9,20.5-15.6,30.1
			c-1.2,2-2.4,4-3.7,6.1c0,0.1-0.1,0.1-0.1,0.2c-12.3,19.3-29.8,41.4-47.3,61.9c-0.6,0.7-1.2,1.4-1.8,2.1
			c-24.6,28.6-48.9,53.8-58.8,63.8c-0.2,0.2-0.3,0.3-0.5,0.5c-0.3,0.3-0.6,0.6-0.8,0.9c-0.3,0.3-0.6,0.6-0.8,0.8
			c-0.1,0.1-0.3,0.2-0.4,0.4c-0.2,0.2-0.4,0.4-0.6,0.6c-0.1,0.1-0.2,0.2-0.3,0.3c-0.1,0.1-0.2,0.2-0.2,0.3l-0.9,0.9l134.9-218.8l0,0
			l24.6-40h0L1375.6,464.2C1375.6,464.2,1375.6,464.2,1375.6,464.2z"/>
	</g>
	<path class="st3" d="M1432.4,941.7c0,0-74.4,10.6-141.9-13.5c-67.4-24.1-134.3-85.8-134.3-85.8s4.7,72.5,13.4,122.7
		c8,45.8,25.9,128.6,28.9,142.6c0.3,1.2,0.4,1.9,0.4,2c-0.1-0.1-1.2-1.3-3-3.4c-8.1-9.2-31.4-36.5-56.3-72.2
		c-23.1-33.2-47.6-73.7-62.6-113.8c-35-93.8-29.7-192-29.7-192s-69.7-43.5-110.5-100.3c-40.5-56.3-70.1-137.7-70.5-139
		c1,1,136.7,129.5,233.8,147.4l11.8,15.1l-13.7,74.2l25.8,22.1l15.6-16.5l10.3-10.9l-10.3-41.9l-6.6-27l6.6-6.9l9.6-10
		c87.6-21,177.6-114.5,211.9-153.3c2.6-3,4.9-5.6,6.9-7.9c4.7-5.5,7.3-8.7,7.6-9.1c0,0,0,0,0,0c0,0,0,0,0,0.1
		c-0.2,0.7-1.4,4.8-3.3,11.2c-5.4,18-17.1,54.5-31.2,87.4c-5.8,13.6-12.1,26.6-18.6,37.4c0,0.1-0.1,0.1-0.1,0.2
		c-10.5,17.5-28.6,40.2-47.3,61.9c-0.6,0.7-1.2,1.4-1.8,2.1c-24.5,28.3-49.6,54.4-59.2,64.3c-0.3,0.3-0.6,0.6-0.8,0.9
		c-0.3,0.3-0.6,0.6-0.8,0.8c-0.1,0.1-0.3,0.2-0.4,0.4c-0.2,0.2-0.4,0.4-0.6,0.6c-0.1,0.1-0.2,0.2-0.3,0.3c-0.1,0.1-0.2,0.2-0.2,0.3
		c-0.1,0.1-0.2,0.2-0.2,0.2l-0.7,0.7c0,0,0,0,0,0s36.2,58.5,88.2,109C1350.1,892.5,1432.4,941.7,1432.4,941.7z"/>
</g>
<path class="st3" d="M649.7-471.6l-64.1-31.8c-12.3-6.1-27.9,0.3-34.8,14.2l-12.3,24.8l-0.3-0.1c-10.7-5.3-23.9-1.2-31.7,9.2
	c-1.2,1.5-2.2,3.2-3.1,5l-0.6,1.1l-11.4,23l0,0l-3.2,6.5c-4.7,9.5-4.2,20,0.6,27.7c0.2,0.3,0.4,0.6,0.5,0.8c2.2,3.2,5.1,5.9,8.7,7.7
	l0.3,0.1L486-358.4c-6.9,13.9-2.5,30.2,9.8,36.3l64.1,31.8c12.3,6.1,27.9-0.3,34.8-14.2l40.6-81.9l24.2-48.8
	C666.4-449.2,662-465.5,649.7-471.6z M496.4-408L496.4-408c0.1-2.2,0.7-4.5,1.8-6.7l2.7-5.5c0,0,0,0,0,0l12.4-25.1
	c0.9-1.7,2-3.3,3.2-4.5c4.4-4.4,10.7-5.9,16-3.3l0.3,0.1l-4.6,9.4l-24.3,49.1l-0.3-0.1C498.8-397.1,496.1-402.4,496.4-408z
	 M649.5-440.2l-24,48.5l-40.7,82.2c-3.8,7.7-12.4,11.2-19.2,7.8l-64.1-31.8c-6.8-3.4-9.2-12.3-5.4-20l12.3-24.8l29.8-60.1l10.4-21
	l12.3-24.8c3.8-7.7,12.4-11.2,19.2-7.8l64.1,31.8C650.9-456.9,653.3-447.9,649.5-440.2z"/>
<g>
	<path class="st5" d="M466.1,423.7c10.7,13.9,26.7,23,44.1,25.2l0,0c3,0.4,6.1,0.5,9.1,0.5c15.9,1.6,49.6,8.3,78.6,36.5
		c9.7-39.3,34.8-62.8,47.4-72.5c2.7-1.6,5.2-3.3,7.5-5.2l0,0c19.9-16.1,29.3-43,21.8-69.1c-10-34.9-46.3-55.1-81.2-45.1
		c-18.5,5.3-32.9,18-40.8,34c-15.2-9.4-34.1-12.6-52.6-7.3c-34.9,10-55,46.3-45.1,81.2C457.4,409.9,461.2,417.3,466.1,423.7z
		 M475.9,400.8c-8.2-28.7,8.4-58.5,37.1-66.8c15.2-4.4,30.8-1.7,43.3,6c6.5-13.1,18.3-23.6,33.6-28c28.7-8.2,58.5,8.4,66.8,37.1
		c6.1,21.5-1.6,43.6-18,56.8l0,0c0,0,0,0,0,0c-1.9,1.6-4,3-6.2,4.3c-10.4,8-31,27.3-39,59.6c-23.9-23.2-51.6-28.7-64.6-30
		c-2.5,0-5-0.1-7.5-0.4l0,0l0,0C500.4,437,482.1,422.3,475.9,400.8z"/>
	<g>
		<path class="st5" d="M515.1,699.5c2.4-1,4.8-2.2,7.1-3.6c33.9-20.3,37.3-73.6,7.5-119c-29.8-45.4-81.5-65.7-115.4-45.4
			c-18,10.8-27.4,30.8-27.8,54c-0.4,20.6,6.3,43.7,20.3,65C434.6,692.9,481.4,713.4,515.1,699.5z"/>
	</g>
	<path class="st5" d="M491.1,1004.4c0,0,45.8-25.9,73-68c27.1-42.1,37.9-104.9,37.9-104.9s28.3,42.2,44.9,73.8
		c15.1,28.8,40.5,82.4,44.8,91.5c0.4,0.8,0.6,1.2,0.6,1.3c0-0.1,0.1-1.2,0.2-3.2c0.6-8.6,1.9-33.6,0.4-64.1
		c-1.3-28.3-5-61.2-13.8-89.9c-20.6-67-65.4-119.2-65.4-119.2s20.1-53.9,18.6-102.8c-1.6-48.5-19.9-106.3-20.1-107.2
		c-0.2,1-20.6,130.1-66.9,181.5l-0.1,13.4l39.2,35.3l-4.9,23.3l-15.7-2.5l-10.3-1.7l-12.2-27.6l-7.9-17.8l-6.6-1l-9.6-1.4
		c-57.6,25.7-147.4,12.2-183,5.3c-2.7-0.5-5.1-1-7.2-1.5c-4.9-1-7.8-1.7-8.1-1.8c0,0,0,0,0,0c0,0,0,0,0.1,0c0.4,0.3,2.8,2.1,6.6,4.8
		c10.7,7.7,32.7,23,54.6,35.2c9,5.1,18.1,9.6,26.3,12.8c0,0,0.1,0,0.1,0.1c13.3,5.2,33,10.1,52.7,14.2c0.6,0.1,1.2,0.3,1.9,0.4
		c25.7,5.2,50.8,9,60.3,10.4c0.3,0,0.6,0.1,0.8,0.1c0.3,0,0.6,0.1,0.8,0.1c0.1,0,0.2,0,0.4,0c0.2,0,0.4,0.1,0.6,0.1
		c0.1,0,0.2,0,0.3,0c0.1,0,0.2,0,0.2,0c0.1,0,0.2,0,0.2,0l0.7,0.1c0,0,0,0,0,0s4.9,47.9-2.4,98.1
		C515.8,942.1,491.1,1004.4,491.1,1004.4z"/>
</g>
<path class="st8" d="M1149.3,1017.1c-88.5,0-171.2,3.9-241.2,10.6c0.3-0.9,0.4-1.7,0.4-2.6c0-27.3-143.5-49.3-320.5-49.3
	s-320.5,22.1-320.5,49.3s143.5,49.3,320.5,49.3c41,0,80.1-1.2,116.1-3.3c-8.3,5.3-12.7,10.8-12.7,16.5c0,38.9,205,70.5,457.9,70.5
	s457.9-31.6,457.9-70.5C1607.2,1048.7,1402.2,1017.1,1149.3,1017.1z"/>
</svg>
