<?xml version="1.0" encoding="utf-8"?>
<!-- Generator: Adobe Illustrator 24.3.0, SVG Export Plug-In . SVG Version: 6.00 Build 0)  -->
<svg version="1.1" id="Layer_1" xmlns="http://www.w3.org/2000/svg" xmlns:xlink="http://www.w3.org/1999/xlink" x="0px" y="0px"
	 viewBox="0 0 1875.8 1664.7" style="enable-background:new 0 0 1875.8 1664.7;" xml:space="preserve">
<style type="text/css">
	.st0{opacity:4.000000e-02;fill:#1D75BB;}
	.st1{fill:none;stroke:#74AAD5;stroke-miterlimit:10;}
	.st2{fill:none;stroke:#1D75BB;stroke-width:10;stroke-miterlimit:10;}
	.st3{fill:#1D75BB;}
	.st4{fill:#8CC63F;}
	.st5{fill:none;stroke:#8CC63F;stroke-width:4;stroke-miterlimit:10;}
</style>
<path class="st0" d="M1540.7,991.9c-34.4-27.1-49.2-62.6-37.5-90.6c0.1-0.3,0.2-0.5,0.3-0.8c36.1-90.9-212.1-274.8-554.4-410.8
	s-649-172.5-685.1-81.6c-10.2,25.6,2.2,58.6,33,95.9c37.6,45.6,22.1,94.9-33.6,106.7C146.6,635.5,63.6,687.8,32.1,767
	c-85.5,215.1,242,547.1,731.3,741.5s955.3,177.6,1040.8-37.5C1857.7,1336.3,1749.3,1155.8,1540.7,991.9z"/>
<g>
	<circle class="st2" cx="752.8" cy="150.3" r="132.5"/>
	<circle class="st2" cx="1148.3" cy="182.7" r="132.5"/>
	<circle class="st2" cx="1465.9" cy="450.5" r="132.5"/>
	<g>
		
			<ellipse transform="matrix(2.843645e-02 -0.9996 0.9996 2.843645e-02 107.0103 1496.7788)" class="st3" cx="823.5" cy="693.3" rx="140.6" ry="102.2"/>
		<path class="st3" d="M566,678.3c0,0,24.9,88.9,53.1,136.2c28.2,47.3,112.6,132.6,112.6,132.6s-36.2,58.5-88.2,109
			s-134.3,99.7-134.3,99.7s74.4,10.6,141.9-13.5s134.3-85.8,134.3-85.8s-4.6,72.5-13.4,122.7c-8.7,50.2-29.4,144.6-29.4,144.6
			s86.9-95.7,121.9-189.5c35-93.8,29.7-192,29.7-192s69.7-43.5,110.5-100.3s70.5-139,70.5-139S908.7,861.1,812.1,852.1
			C695.1,839.7,566,678.3,566,678.3z"/>
		<path class="st3" d="M566,678.3c0,0,16.7,74.9,49.4,130.1s116.3,138.7,116.3,138.7"/>
	</g>
	<g>
		
			<rect x="1026.9" y="330" transform="matrix(-0.5703 0.8214 -0.8214 -0.5703 1921.12 -331.5221)" class="st3" width="40.8" height="13.4"/>
		
			<rect x="994.6" y="376.4" transform="matrix(-0.5703 0.8214 -0.8214 -0.5703 1908.6196 -232.0266)" class="st3" width="40.8" height="13.4"/>
		
			<rect x="962.3" y="422.9" transform="matrix(-0.5703 0.8214 -0.8214 -0.5703 1896.1193 -132.531)" class="st3" width="40.8" height="13.4"/>
		
			<rect x="930" y="469.4" transform="matrix(-0.5703 0.8214 -0.8214 -0.5703 1883.6189 -33.0355)" class="st3" width="40.8" height="13.4"/>
		
			<rect x="897.8" y="515.9" transform="matrix(-0.5703 0.8214 -0.8214 -0.5703 1871.1185 66.46)" class="st3" width="40.8" height="13.4"/>
	</g>
	<g>
		
			<rect x="762.6" y="317.2" transform="matrix(0.1397 0.9902 -0.9902 0.1397 994.39 -496.6598)" class="st3" width="40.8" height="13.4"/>
		
			<rect x="770.5" y="373.3" transform="matrix(0.1397 0.9902 -0.9902 0.1397 1056.671 -456.2903)" class="st3" width="40.8" height="13.4"/>
		
			<rect x="778.4" y="429.3" transform="matrix(0.1397 0.9902 -0.9902 0.1397 1118.9521 -415.9207)" class="st3" width="40.8" height="13.4"/>
		
			<rect x="786.3" y="485.3" transform="matrix(0.1397 0.9902 -0.9902 0.1397 1181.2332 -375.5511)" class="st3" width="40.8" height="13.4"/>
	</g>
	<g>
		<g>
			
				<rect x="1271.7" y="510.2" transform="matrix(-0.9299 0.3679 -0.3679 -0.9299 2683.8076 522.3033)" class="st3" width="40.8" height="13.4"/>
			
				<rect x="1219.1" y="531" transform="matrix(-0.9299 0.3679 -0.3679 -0.9299 2589.9207 581.8279)" class="st3" width="40.8" height="13.4"/>
			
				<rect x="1166.5" y="551.8" transform="matrix(-0.9299 0.3679 -0.3679 -0.9299 2496.0334 641.3525)" class="st3" width="40.8" height="13.4"/>
			
				<rect x="1113.9" y="572.7" transform="matrix(-0.9299 0.3679 -0.3679 -0.9299 2402.1465 700.8771)" class="st3" width="40.8" height="13.4"/>
		</g>
		<g>
			
				<rect x="1061.5" y="595.6" transform="matrix(-0.9299 0.3679 -0.3679 -0.9299 2309.5811 764.5125)" class="st3" width="40.8" height="13.4"/>
			
				<rect x="1008.9" y="616.5" transform="matrix(-0.9299 0.3679 -0.3679 -0.9299 2215.6938 824.037)" class="st3" width="40.8" height="13.4"/>
			
				<rect x="956.3" y="637.3" transform="matrix(-0.9299 0.3679 -0.3679 -0.9299 2121.8069 883.5616)" class="st3" width="40.8" height="13.4"/>
		</g>
	</g>
	<path class="st4" d="M808,119.6l-20.1-2.9l0-0.3c1.6-11.3-6.3-21.7-17.5-23.3l-24.8-3.5c-11.3-1.6-21.7,6.3-23.3,17.5l0,0.3
		l-20.1-2.9c-11.3-1.6-21.7,6.3-23.3,17.5l-8.4,58.7c-1.6,11.3,6.3,21.7,17.5,23.3l105.8,15.1c11.3,1.6,21.7-6.3,23.3-17.5l8.4-58.7
		C827.1,131.7,819.2,121.2,808,119.6z M731.4,108.4c0.9-6.2,6.7-10.5,12.9-9.7l24.8,3.5c6.2,0.9,10.5,6.7,9.7,12.9l0,0.3l-47.4-6.8
		L731.4,108.4z M808,200.4c-0.9,6.2-6.7,10.5-12.9,9.7l-105.8-15.1c-6.2-0.9-10.5-6.7-9.7-12.9l8.4-58.7c0.9-6.2,6.7-10.5,12.9-9.7
		l20.1,2.9l65.7,9.4l20.1,2.9c6.2,0.9,10.5,6.7,9.7,12.9L808,200.4z"/>
	<g>
		<path class="st4" d="M1223.7,140.1c-10.1-25.6-39.1-38.1-64.7-28c-13.6,5.4-23.5,16.1-28.3,28.7c-12.2-6-26.7-7-40.3-1.6
			c-25.6,10.1-38.1,39.1-28,64.7c7.6,19.2,25.7,31,45.1,31.5l0,0c0,0,0,0,0,0c2.3,0.1,4.6-0.1,6.9-0.3c12.1,0,38.1,2.5,62.1,21.7
			c4.4-30.4,21.6-50,30.4-58.3c1.9-1.4,3.6-2.9,5.3-4.5c0,0,0,0,0,0l0,0C1226.2,180.3,1231.3,159.2,1223.7,140.1z M1201.4,193.4
			L1201.4,193.4C1201.4,193.4,1201.4,193.4,1201.4,193.4c-1.4,1.3-2.8,2.6-4.4,3.7c-7.3,6.8-21.4,22.9-25,47.9
			c-19.8-15.8-41.1-17.8-51-17.9c-1.9,0.2-3.8,0.3-5.7,0.3c0,0,0,0,0,0l0,0c-15.9-0.4-30.9-10.1-37.1-25.9c-8.3-21,2-44.8,23-53.2
			c11.2-4.4,23.1-3.6,33.1,1.3c3.9-10.4,12.1-19.2,23.3-23.6c21-8.3,44.8,2,53.2,23C1217,164.9,1212.8,182.2,1201.4,193.4z"/>
	</g>
	<polygon class="st5" points="1547.6,430.5 1488.8,428.8 1490.5,370 1445.9,368.7 1444.2,427.5 1385.4,425.9 1384.1,470.5 
		1442.9,472.2 1441.2,531 1485.9,532.3 1487.5,473.4 1546.4,475.1 	"/>
</g>
</svg>
