<svg xmlns="http://www.w3.org/2000/svg" xmlns:xlink="http://www.w3.org/1999/xlink" viewBox="0 0 2170.98 1205.81">
  <defs>
    <style>
      .cls-1 {
        fill: url(#linear-gradient);
      }

      .cls-2 {
        fill: #84f7f7;
      }

      .cls-3 {
        fill: #eff784;
      }

      .cls-4 {
        fill: #84f7c0;
      }

      .cls-5, .cls-9 {
        fill: #bf84f7;
      }

      .cls-6 {
        fill: #f88982;
      }

      .cls-7 {
        fill: #f79f84;
      }

      .cls-8 {
        fill: #f7849f;
      }

      .cls-9 {
        font-size: 400px;
        font-family: OCRBStd, OCR B Std;
      }

      .cls-10 {
        fill: #fff;
      }
    </style>
    <linearGradient id="linear-gradient" x1="1010.72" y1="1503.02" x2="1010.72" y2="-737.55" gradientUnits="userSpaceOnUse">
      <stop offset="0" stop-color="aqua"/>
      <stop offset="0.57" stop-color="blue" stop-opacity="0.9"/>
      <stop offset="0.95" stop-color="#ff00f1"/>
    </linearGradient>
  </defs>
  <g id="Background">
    <g id="gradientbg">
      <rect class="cls-1" x="50.72" y="46.38" width="1920" height="1080"/>
    </g>
    <rect id="shape16" class="cls-2" x="705.6" y="499.77" width="76.49" height="366.97" rx="38.24" transform="translate(1632.67 165.97) rotate(103.51)"/>
    <path id="shape15" class="cls-2" d="M1114,131.72l0-.06a11.5,11.5,0,0,0-.87-1l0-.07c-.31-.31-.63-.6-1-.89l-.08-.07c-.32-.27-.66-.53-1-.77l-.12-.09c-.34-.24-.7-.45-1.06-.66l-.16-.09c-.36-.2-.74-.38-1.12-.55l-.16-.07a10.69,10.69,0,0,0-1.23-.46l-.11,0a14.38,14.38,0,0,0-2.83-.59h-.11c-.44,0-.87-.07-1.31-.08h-.18c-.42,0-.83,0-1.25,0l-.18,0q-.62.06-1.23.18l-.15,0c-.41.09-.83.19-1.24.31l-.1,0c-.41.13-.82.27-1.23.43l-.07,0a13,13,0,0,0-1.2.55l-.06,0c-.39.21-.78.43-1.16.68h0a12.4,12.4,0,0,0-1.08.78l-.06.05c-.35.27-.67.57-1,.87l-.06.06c-.31.3-.61.62-.89.95l-.07.08c-.28.32-.53.66-.78,1l-.08.12a11.68,11.68,0,0,0-.66,1.06l-.09.16a11.61,11.61,0,0,0-.55,1.12s-.05.11-.08.16c-.17.4-.32.81-.46,1.23l0,.11a13.74,13.74,0,0,0-.37,1.4l-8,38.2L1059.1,143.3c-.25-.37-.51-.74-.78-1.08l0-.06c-.28-.35-.57-.67-.87-1l-.06-.06c-.3-.31-.62-.61-.95-.89l-.08-.07c-.33-.27-.66-.53-1-.78l-.12-.08c-.35-.24-.7-.46-1.06-.66l-.16-.09a11.61,11.61,0,0,0-1.12-.55l-.16-.08c-.4-.17-.81-.32-1.23-.46l-.11,0a15.16,15.16,0,0,0-2.83-.6h-.12c-.43,0-.87-.06-1.3-.07h-.18c-.42,0-.83,0-1.25.06l-.18,0c-.41,0-.83.1-1.24.18l-.14,0a10.7,10.7,0,0,0-1.24.31l-.1,0a12.77,12.77,0,0,0-1.23.43l-.08,0c-.4.17-.8.35-1.19.56l-.07,0c-.39.2-.77.43-1.15.67h0a12.49,12.49,0,0,0-1.08.79l-.06,0q-.53.42-1,.87l-.06.06c-.32.31-.61.63-.89.95l-.07.08a12.52,12.52,0,0,0-.78,1l-.09.12c-.23.34-.45.69-.66,1.06l-.09.15c-.2.37-.38.74-.55,1.12,0,.06,0,.11-.07.17-.17.4-.33.81-.46,1.22l0,.12c-.14.46-.27.92-.37,1.39l-8,38.21-21.36-32.67c-.25-.38-.51-.74-.79-1.09l0-.05q-.42-.53-.87-1l-.06-.06a11.37,11.37,0,0,0-.95-.89l-.08-.07c-.33-.28-.67-.54-1-.78l-.12-.09c-.35-.23-.7-.45-1.06-.66l-.16-.09c-.37-.2-.74-.38-1.12-.55l-.17-.07c-.4-.17-.81-.33-1.22-.46l-.11,0a14.38,14.38,0,0,0-2.83-.59h-.12c-.43,0-.87-.07-1.31-.07h-.18c-.41,0-.83,0-1.24.06l-.18,0c-.42,0-.83.1-1.24.18l-.14,0c-.42.09-.83.19-1.24.31l-.1,0a12.82,12.82,0,0,0-1.23.44l-.08,0c-.4.17-.8.35-1.19.56l-.07,0a13.35,13.35,0,0,0-1.15.68h0c-.38.25-.74.51-1.09.79l-.06,0c-.34.28-.67.57-1,.87l-.06.06c-.32.3-.61.62-.9.95l-.07.08c-.27.33-.53.67-.77,1l-.09.12c-.24.35-.45.7-.66,1.06l-.09.16c-.2.37-.38.74-.55,1.12L978,156a12.28,12.28,0,0,0-.46,1.23.49.49,0,0,0,0,.11,13.74,13.74,0,0,0-.37,1.4L962,231.21a14.49,14.49,0,0,0,11.21,17.16h0a14.49,14.49,0,0,0,17.16-11.22l8-38.2,21.36,32.67c.25.37.51.74.79,1.08l0,.06c.28.35.57.67.87,1l.06.06c.31.31.63.61,1,.89l.08.07q.49.4,1,.78l.12.08a11.68,11.68,0,0,0,1.06.66l.15.09c.37.2.74.39,1.12.55l.17.08c.4.17.81.32,1.22.46l.12,0a15.06,15.06,0,0,0,2.82.6h.12c.44,0,.87.06,1.31.07h.18c.41,0,.83,0,1.25-.06l.18,0q.62-.06,1.23-.18l.15,0a11.24,11.24,0,0,0,1.24-.31l.1,0c.41-.12.82-.27,1.23-.43l.07,0a13.08,13.08,0,0,0,1.2-.56l.06,0c.39-.21.78-.44,1.16-.68h0c.37-.25.73-.51,1.08-.79l.06,0q.51-.42,1-.87l.06-.06c.31-.31.61-.63.89-.95l.07-.08q.4-.5.78-1l.08-.12a10.44,10.44,0,0,0,.66-1.06l.09-.15c.2-.37.39-.74.55-1.12l.08-.17c.17-.4.32-.81.46-1.22l0-.12a13.56,13.56,0,0,0,.37-1.39l8-38.21,21.36,32.67c.24.38.51.74.78,1.09l0,0a11.84,11.84,0,0,0,.87,1l.06.06a11.37,11.37,0,0,0,1,.89.27.27,0,0,0,.08.07,10.87,10.87,0,0,0,1,.78l.12.09c.34.23.7.45,1.06.66l.16.09c.36.2.74.38,1.12.55l.16.07a12.93,12.93,0,0,0,1.23.46l.11,0a14.38,14.38,0,0,0,2.83.59h.11c.44,0,.88.07,1.31.07h.18c.42,0,.83,0,1.25-.06l.18,0c.41,0,.82-.1,1.24-.18l.14,0c.42-.08.83-.18,1.24-.3l.1,0c.41-.13.82-.27,1.23-.44l.08,0c.4-.17.8-.35,1.19-.56l.06,0c.4-.21.78-.43,1.16-.68h0a12.49,12.49,0,0,0,1.08-.79l.06,0q.53-.42,1-.87l.06-.06c.31-.3.61-.62.89-.95l.07-.08c.28-.33.54-.67.78-1a.83.83,0,0,0,.08-.12c.24-.35.46-.7.66-1.06,0-.06.07-.11.09-.16.21-.37.39-.74.56-1.12l.07-.16c.17-.41.32-.82.46-1.23a.49.49,0,0,1,0-.11,13.69,13.69,0,0,0,.36-1.4l8-38.2L1131,210.62a14.49,14.49,0,0,0,20.06,4.2h0a14.49,14.49,0,0,0,4.2-20.06l-40.51-61.95C1114.53,132.43,1114.26,132.07,1114,131.72Z" transform="translate(50.72 46.38)"/>
    <path id="shape14" class="cls-3" d="M1286.81,592.18l-.08-.11c-.5-.63-1-1.22-1.58-1.79l-.1-.11c-.56-.57-1.14-1.11-1.73-1.62l-.15-.13c-.59-.5-1.21-1-1.84-1.41l-.21-.15c-.63-.43-1.27-.83-1.93-1.2l-.28-.16c-.67-.37-1.35-.7-2-1l-.29-.13c-.73-.31-1.48-.59-2.23-.83l-.2-.07a26.71,26.71,0,0,0-5.14-1.08h-.21c-.79-.08-1.58-.13-2.38-.14h-.32c-.76,0-1.51,0-2.27.1l-.32,0q-1.12.12-2.25.33l-.26.06c-.75.15-1.5.33-2.25.55l-.18.06c-.75.23-1.5.49-2.23.79l-.14.06a22.43,22.43,0,0,0-2.17,1l-.12.06c-.71.38-1.41.78-2.09,1.23h0c-.69.45-1.34.93-2,1.43l-.11.08c-.63.5-1.22,1-1.79,1.58l-.11.1c-.57.56-1.11,1.14-1.62,1.73l-.13.15c-.5.59-1,1.21-1.41,1.84l-.15.21c-.43.63-.83,1.27-1.2,1.93l-.17.28c-.36.67-.69,1.35-1,2,0,.1-.09.19-.13.29-.31.73-.59,1.48-.83,2.23,0,.07,0,.14-.07.2a25.7,25.7,0,0,0-.67,2.54l-14.52,69.36-38.77-59.31c-.45-.68-.93-1.34-1.43-2l-.08-.1c-.5-.63-1-1.23-1.58-1.8a.52.52,0,0,1-.1-.11c-.56-.57-1.14-1.1-1.73-1.61l-.15-.13c-.59-.5-1.21-1-1.84-1.41l-.21-.16c-.63-.43-1.27-.82-1.93-1.2l-.28-.16c-.67-.36-1.35-.7-2-1l-.29-.13c-.74-.32-1.48-.59-2.23-.84l-.21-.07a27.2,27.2,0,0,0-5.13-1.07l-.21,0c-.79-.08-1.58-.12-2.38-.13H1165c-.76,0-1.51,0-2.27.11l-.33,0c-.74.08-1.49.18-2.24.33l-.26,0c-.75.15-1.5.34-2.25.56l-.18.06a22.67,22.67,0,0,0-2.23.78l-.15.06c-.73.31-1.45.64-2.16,1l-.12.07a23.31,23.31,0,0,0-2.09,1.23h0c-.69.45-1.34.92-2,1.42l-.11.09c-.63.5-1.22,1-1.79,1.57l-.11.11c-.57.55-1.11,1.13-1.62,1.73l-.13.14c-.5.6-1,1.21-1.41,1.84l-.15.22c-.43.62-.83,1.27-1.2,1.92l-.17.29c-.36.66-.69,1.34-1,2l-.13.3c-.31.73-.59,1.47-.83,2.23a1.18,1.18,0,0,0-.07.2,25,25,0,0,0-.67,2.54l-14.52,69.36-38.77-59.31c-.45-.69-.93-1.34-1.43-2l-.08-.11c-.5-.62-1-1.22-1.58-1.79l-.11-.11c-.55-.57-1.13-1.11-1.72-1.62l-.15-.12c-.59-.51-1.21-1-1.84-1.42L1079,625c-.63-.43-1.27-.83-1.93-1.2l-.28-.16c-.67-.37-1.35-.7-2-1l-.3-.13c-.73-.31-1.47-.59-2.22-.83l-.21-.07a25.71,25.71,0,0,0-5.13-1.07l-.21,0a23.56,23.56,0,0,0-2.38-.13H1064c-.76,0-1.51,0-2.27.1l-.32,0c-.75.07-1.5.18-2.25.32l-.26.06c-.75.15-1.5.33-2.25.55l-.18.06c-.75.23-1.5.49-2.23.79l-.14.06a22.43,22.43,0,0,0-2.17,1l-.12.06c-.71.38-1.41.79-2.09,1.23h0c-.69.45-1.34.93-2,1.43l-.11.08c-.63.5-1.22,1-1.79,1.58a1.14,1.14,0,0,0-.11.11c-.57.55-1.11,1.13-1.62,1.72l-.13.15c-.5.59-1,1.21-1.41,1.84l-.15.22q-.65.93-1.2,1.92l-.17.28c-.36.67-.69,1.35-1,2l-.13.3c-.31.73-.59,1.47-.83,2.22a1.72,1.72,0,0,0-.07.21,24.31,24.31,0,0,0-.67,2.54L1010.79,772.8a26.31,26.31,0,0,0,20.36,31.14h0a26.3,26.3,0,0,0,31.14-20.36l14.52-69.36,38.78,59.31c.45.69.93,1.34,1.43,2l.08.1c.5.63,1,1.23,1.58,1.8l.1.11c.56.57,1.13,1.1,1.73,1.62l.14.12c.6.5,1.21,1,1.84,1.41l.22.16q.94.64,1.92,1.2l.29.16a22.46,22.46,0,0,0,2,1l.3.14c.73.31,1.47.58,2.23.83l.2.07a27.2,27.2,0,0,0,5.13,1.07l.22,0c.79.08,1.58.12,2.37.13h.33c.75,0,1.51,0,2.26-.1l.33,0c.75-.08,1.5-.18,2.24-.33l.26-.05c.76-.15,1.51-.34,2.26-.56l.18-.05c.75-.23,1.49-.49,2.23-.79l.14-.06c.73-.3,1.46-.64,2.17-1l.11-.06c.71-.38,1.41-.79,2.1-1.24h0c.69-.45,1.34-.92,2-1.42l.1-.08c.63-.51,1.23-1,1.8-1.58a1.14,1.14,0,0,1,.11-.11c.57-.55,1.11-1.13,1.62-1.73l.12-.14c.5-.6,1-1.21,1.41-1.84a1.77,1.77,0,0,0,.16-.22c.43-.62.83-1.27,1.2-1.92l.16-.29a22.46,22.46,0,0,0,1-2l.14-.3c.31-.73.59-1.47.83-2.23,0-.06,0-.13.07-.2.26-.83.49-1.68.67-2.54l14.51-69.35,38.78,59.3c.45.69.93,1.34,1.43,2a.76.76,0,0,0,.08.11c.5.63,1,1.22,1.58,1.79l.1.11c.56.57,1.13,1.11,1.73,1.62a.86.86,0,0,1,.14.13c.6.5,1.21,1,1.84,1.41l.22.15q.95.65,1.92,1.2l.29.16c.66.37,1.34.7,2,1l.3.13c.73.31,1.48.59,2.23.83l.2.07a26.46,26.46,0,0,0,5.13,1.08l.22,0c.79.07,1.58.12,2.37.13h.33c.75,0,1.51,0,2.26-.1l.33,0c.75-.08,1.5-.19,2.24-.33l.27-.06c.75-.15,1.5-.33,2.25-.55l.18-.06c.75-.23,1.49-.49,2.23-.79l.14-.06a23.6,23.6,0,0,0,2.17-1l.11-.06c.71-.38,1.41-.78,2.1-1.23h0c.69-.45,1.34-.93,2-1.43l.1-.08c.63-.5,1.23-1,1.8-1.58a.52.52,0,0,1,.11-.1c.57-.56,1.11-1.14,1.62-1.73l.12-.15c.5-.59,1-1.21,1.41-1.84l.16-.21c.43-.63.83-1.27,1.2-1.93l.16-.28c.37-.67.7-1.35,1-2l.14-.29c.31-.73.59-1.48.83-2.23,0-.07,0-.14.07-.2.26-.84.49-1.69.67-2.54L1279,676.11l38.78,59.31a26.31,26.31,0,0,0,36.42,7.62h0a26.31,26.31,0,0,0,7.62-36.42l-73.53-112.47C1287.79,593.46,1287.31,592.81,1286.81,592.18Z" transform="translate(50.72 46.38)"/>
    <rect id="shape13" class="cls-4" x="323.17" y="38.79" width="51.1" height="366.97" rx="25.55" transform="translate(746.72 44.16) rotate(114.61)"/>
    <path id="shape12" class="cls-3" d="M153.08-38.79C40.53-38.79-50.72,52.45-50.72,165s91.25,203.8,203.8,203.8,203.8-91.24,203.8-203.8S265.63-38.79,153.08-38.79Zm0,330.37A126.58,126.58,0,1,1,279.66,165,126.58,126.58,0,0,1,153.08,291.58Z" transform="translate(50.72 46.38)"/>
    <path id="shape11" class="cls-5" d="M701.48,237.52h0a15.64,15.64,0,0,0-22-2.22A51.37,51.37,0,1,1,614.11,156a16.57,16.57,0,0,0,2.15-22.88h0a15.62,15.62,0,0,0-22-2.22,51.38,51.38,0,1,1-65.39-79.26,15.7,15.7,0,0,0,2.27-22.13v0a15.65,15.65,0,0,0-22-2.18A82.73,82.73,0,0,0,567,173.89c0,.13-.08.25-.11.38a82.71,82.71,0,0,0,132.51,85.25A15.64,15.64,0,0,0,701.48,237.52Z" transform="translate(50.72 46.38)"/>
    <path id="shape10" class="cls-6" d="M833.07,762.4C759.88,673.73,733,550.84,771,434.85c61.46-187.49,269.38-286,453.34-214.73a343.89,343.89,0,0,1,141.8,102.45c37.16,45.23,103.59,52.42,148.82,15.26l.12-.1a105.33,105.33,0,0,0,14.69-148C1459.2,103.41,1361.59,37,1243.46,4.89,982.57-66,707.26,63.22,594.39,308.88,501,512.17,539.9,737.94,670.22,896.22c36.85,44.76,103.17,50.87,148,14.06h0C863,873.48,870,807.12,833.07,762.4Z" transform="translate(50.72 46.38)"/>
    <path id="shape9" class="cls-4" d="M2075,689.46c-13.51-15.67-38.38-17.26-55.47-3.72h0c-17.1,13.55-20.21,37.32-6.68,53,26.85,31,36.06,74.69,20.94,116.46-24.46,67.53-103.27,104.58-171.85,80.74a121.57,121.57,0,0,1-52.52-35.35,36,36,0,0,0-4.46-4.36c-23.37-28-55.58-50-95.1-61.91-95.49-28.9-202.57,13.45-252.46,99.62-41.28,71.31-33.72,152.47,10.16,210.78,12.41,16.49,37,19.58,55,7.06h0c17.92-12.53,22.6-36.13,10.17-52.6-24.65-32.68-30.92-76.93-13.08-117.83,28.83-66.1,109.73-98.44,176.4-70.44a120.13,120.13,0,0,1,49.91,38.54,37,37,0,0,0,8.31,8c25.21,26.24,58.78,46,99,55.5,97.48,23,201.83-25.59,246-114.35C2135.77,825.16,2122.81,744.85,2075,689.46Z" transform="translate(50.72 46.38)"/>
    <path id="shape8" class="cls-4" d="M853.46,547.83A49,49,0,1,1,948,522a15,15,0,0,0,18.35,10.63h0a14.92,14.92,0,0,0,10.51-18.28,78.86,78.86,0,1,0-152.21,41.32,14.92,14.92,0,0,0,18.31,10.43h0A14.91,14.91,0,0,0,853.46,547.83Z" transform="translate(50.72 46.38)"/>
    <path id="shape7" class="cls-7" d="M353.27,433a56.14,56.14,0,1,1,108.31-29.62,17.17,17.17,0,0,0,21,12.18h0a17.12,17.12,0,0,0,12.05-20.95,90.4,90.4,0,1,0-174.48,47.36,17.1,17.1,0,0,0,21,11.95h0A17.08,17.08,0,0,0,353.27,433Z" transform="translate(50.72 46.38)"/>
    <rect id="shape6" class="cls-8" x="1560" y="548.21" width="164.62" height="414.91" rx="82.31" transform="translate(2565.04 2385.65) rotate(-143.55)"/>
    <path id="shape5" class="cls-5" d="M335.09,566.49a.49.49,0,0,0,0-.12c-.07-.73-.18-1.45-.31-2.17l0-.14c-.14-.71-.31-1.42-.51-2.11,0-.05,0-.11-.05-.17-.2-.68-.44-1.35-.7-2l-.09-.23c-.27-.64-.56-1.27-.88-1.88,0-.09-.09-.18-.14-.27-.32-.62-.68-1.21-1.06-1.8l-.16-.25c-.4-.6-.83-1.19-1.29-1.76l-.12-.15a23.89,23.89,0,0,0-3.41-3.41l-.15-.12c-.57-.45-1.15-.89-1.76-1.29l-.25-.16c-.58-.38-1.18-.73-1.79-1.06l-.27-.14c-.62-.32-1.25-.61-1.89-.88l-.23-.09c-.66-.26-1.33-.49-2-.7l-.17-.05c-.69-.2-1.4-.37-2.11-.51l-.14,0c-.71-.13-1.44-.24-2.17-.31h-.12c-.74-.07-1.48-.11-2.23-.11h0c-.76,0-1.5,0-2.23.11h-.12c-.74.07-1.46.18-2.18.31l-.13,0c-.72.14-1.42.31-2.12.51l-.17.05c-.68.21-1.35.44-2,.7l-.22.09c-.65.27-1.28.56-1.89.88l-.27.14c-.62.33-1.21.68-1.79,1.06l-.26.16c-.6.4-1.19.84-1.75,1.29l-.16.12c-.62.51-1.22,1.05-1.79,1.62l-46,46V532.58c0-.75,0-1.49-.11-2.23v-.12c-.08-.73-.18-1.46-.32-2.17,0,0,0-.09,0-.14-.14-.72-.32-1.42-.52-2.11a1.09,1.09,0,0,0-.05-.17c-.2-.68-.44-1.35-.7-2l-.09-.23c-.26-.64-.56-1.27-.88-1.89l-.13-.27c-.33-.61-.69-1.21-1.06-1.79-.06-.08-.11-.17-.16-.25-.41-.61-.84-1.19-1.3-1.76l-.12-.15a24.35,24.35,0,0,0-3.4-3.41l-.16-.12c-.57-.46-1.15-.89-1.76-1.29l-.25-.17c-.58-.37-1.18-.73-1.79-1l-.27-.14c-.62-.32-1.25-.61-1.89-.88l-.23-.09c-.66-.26-1.32-.5-2-.7l-.17-.05c-.69-.2-1.39-.38-2.11-.52l-.14,0a21.79,21.79,0,0,0-2.17-.31H226c-.74-.07-1.48-.11-2.23-.11h0c-.75,0-1.5,0-2.23.11h-.12a21.79,21.79,0,0,0-2.17.31l-.14,0c-.72.14-1.42.32-2.11.52l-.17.05c-.69.2-1.36.44-2,.7l-.23.09c-.65.27-1.27.56-1.89.88l-.27.14c-.61.32-1.21.68-1.79,1l-.25.17c-.61.4-1.19.83-1.76,1.29l-.16.12c-.62.51-1.22,1-1.79,1.62l-46,46V496.44c0-.75,0-1.5-.1-2.23a.49.49,0,0,1,0-.12c-.07-.74-.18-1.46-.32-2.18a.59.59,0,0,0,0-.13,21,21,0,0,0-.52-2.11c0-.06,0-.12,0-.17-.21-.69-.44-1.36-.71-2l-.09-.23c-.26-.65-.56-1.28-.87-1.89l-.14-.27c-.33-.61-.68-1.21-1.06-1.79-.05-.09-.11-.17-.16-.25-.41-.61-.84-1.2-1.29-1.76,0-.05-.08-.11-.13-.16a24.83,24.83,0,0,0-3.4-3.4l-.16-.12c-.56-.46-1.15-.89-1.76-1.3l-.25-.16c-.58-.38-1.18-.73-1.79-1.06l-.27-.14c-.61-.31-1.24-.61-1.89-.87l-.23-.09c-.65-.26-1.32-.5-2-.71l-.17,0a21,21,0,0,0-2.11-.52l-.13,0c-.72-.14-1.44-.25-2.18-.32h-.12c-.73-.06-1.48-.1-2.23-.1h0c-.75,0-1.49,0-2.23.1h-.12c-.73.07-1.46.18-2.17.32l-.14,0a21,21,0,0,0-2.11.52l-.17,0c-.69.21-1.35.45-2,.71l-.23.09c-.64.26-1.27.56-1.89.87l-.27.14c-.61.33-1.21.68-1.79,1.06l-.25.16c-.61.41-1.19.84-1.76,1.3l-.16.12c-.62.51-1.22,1.05-1.78,1.61L32.18,566.61a24.15,24.15,0,0,0,0,34.17h0a24.15,24.15,0,0,0,34.17,0l46-46v65.07c0,.75,0,1.5.11,2.23a.49.49,0,0,0,0,.12,21.79,21.79,0,0,0,.31,2.17s0,.1,0,.14c.14.72.32,1.42.52,2.11,0,.06,0,.12,0,.17.2.69.44,1.36.7,2l.09.23c.27.65.56,1.27.88,1.89l.13.27c.33.61.69,1.21,1.06,1.79l.17.25c.4.61.83,1.19,1.29,1.76l.12.16a24.83,24.83,0,0,0,3.4,3.4l.16.12c.57.46,1.15.89,1.76,1.3l.25.16c.58.38,1.18.73,1.79,1.06l.27.13c.62.32,1.25.62,1.89.88l.23.09c.66.26,1.32.5,2,.7l.17,0c.69.2,1.39.38,2.11.52l.14,0c.71.14,1.44.24,2.17.32h.12c.74.06,1.48.1,2.23.1h0c.75,0,1.5,0,2.23-.1h.12c.74-.08,1.46-.18,2.18-.32l.13,0c.72-.14,1.42-.32,2.11-.52l.17,0c.69-.2,1.36-.44,2-.7l.23-.09a20.34,20.34,0,0,0,1.89-.88l.27-.13c.61-.33,1.21-.68,1.79-1.06l.25-.16c.61-.41,1.2-.84,1.76-1.3l.16-.12c.62-.51,1.22-1,1.79-1.62l46-46V656c0,.76,0,1.5.1,2.23a.49.49,0,0,1,0,.12c.07.74.18,1.46.32,2.18,0,0,0,.09,0,.13.14.72.31,1.42.52,2.12a1.54,1.54,0,0,0,0,.17c.2.68.44,1.35.7,2l.09.22c.26.65.56,1.28.87,1.89l.14.27c.33.62.68,1.21,1.06,1.79l.16.26c.41.6.84,1.19,1.3,1.76l.12.15a24.28,24.28,0,0,0,3.4,3.4l.16.13c.56.45,1.15.89,1.76,1.29l.25.16c.58.38,1.18.73,1.79,1.06l.27.14c.62.32,1.24.61,1.89.87a1.57,1.57,0,0,0,.23.09c.65.27,1.32.5,2,.71l.17,0c.69.2,1.39.37,2.11.51l.13,0c.72.13,1.44.24,2.18.31h.12c.73.07,1.48.11,2.23.11h0c.75,0,1.5,0,2.23-.11h.12c.74-.07,1.46-.18,2.17-.31l.14,0c.72-.14,1.42-.31,2.11-.51l.17,0c.69-.21,1.36-.44,2-.71l.23-.09q1-.39,1.89-.87l.27-.14c.61-.33,1.21-.68,1.79-1.06l.25-.16c.61-.4,1.19-.84,1.76-1.29l.16-.13a20.85,20.85,0,0,0,1.78-1.61l46-46v65.07A24.16,24.16,0,0,0,311,716.29h0a24.16,24.16,0,0,0,24.16-24.16V568.73C335.2,568,335.16,567.23,335.09,566.49Z" transform="translate(50.72 46.38)"/>
    <g id="shape4">
      <path class="cls-6" d="M-2.53,867.33A7.43,7.43,0,0,0-10,874.76v38a7.43,7.43,0,0,0,7.43,7.43,7.43,7.43,0,0,0,7.43-7.43v-38A7.42,7.42,0,0,0-2.53,867.33Z" transform="translate(50.72 46.38)"/>
      <path class="cls-6" d="M587.29,623.63c0-.11,0-.21,0-.32l-.06-.4-.09-.36a3.37,3.37,0,0,0-.09-.34,3.59,3.59,0,0,0-.12-.35l-.12-.34-.15-.32c-.06-.11-.11-.23-.17-.34s-.11-.2-.17-.3-.13-.21-.2-.32-.16-.21-.23-.32-.13-.18-.2-.26a7.3,7.3,0,0,0-1-1l-.26-.2-.32-.23-.32-.2-.31-.18-.33-.16-.33-.15-.32-.12-.36-.12-.33-.09c-.13,0-.25-.07-.38-.09L581,617l-.34,0c-.23,0-.47,0-.71,0h0c-.24,0-.48,0-.71,0l-.33,0c-.13,0-.26,0-.39.06s-.25.06-.37.09a3.37,3.37,0,0,0-.34.09,3.59,3.59,0,0,0-.35.12l-.33.12-.33.15-.33.16-.3.18-.33.2-.32.23-.26.2a6.28,6.28,0,0,0-.54.49l-14.16,14.15v-20c0-.25,0-.49,0-.73s0-.22-.05-.33l-.06-.39-.09-.37c0-.11,0-.23-.09-.34s-.08-.23-.12-.35l-.12-.33-.15-.33c-.06-.11-.11-.22-.16-.33l-.18-.3-.2-.33c-.07-.11-.16-.21-.24-.32a2.48,2.48,0,0,0-.19-.26,7.3,7.3,0,0,0-1-1l-.26-.2-.32-.23-.33-.2a2.91,2.91,0,0,0-.3-.17l-.33-.17-.33-.15-.33-.12a3.59,3.59,0,0,0-.35-.12c-.11,0-.23-.06-.34-.09l-.37-.09-.39-.06-.33,0a8.9,8.9,0,0,0-1.46,0l-.33,0-.39.06-.37.09-.34.09c-.12,0-.23.08-.35.12l-.33.12-.32.15-.34.17-.3.17-.33.2-.31.23-.27.2c-.19.16-.37.32-.54.49L521,634.83a7.43,7.43,0,0,0,10.51,10.51l14.15-14.15v20a5.63,5.63,0,0,0,0,.71c0,.11,0,.22,0,.33l.06.39.09.37.09.33c0,.12.08.24.13.36a2.19,2.19,0,0,0,.12.33c0,.11.1.22.15.33s.1.22.16.33.12.2.18.3a3.37,3.37,0,0,0,.19.32l.24.33.19.26a7.23,7.23,0,0,0,1,1l.27.2.31.24.33.19.3.18.34.16a3.13,3.13,0,0,0,.32.15l.33.12.35.13.34.08c.12,0,.24.07.37.09l.39.06.33.05a7.12,7.12,0,0,0,1.46,0l.33-.05.39-.06c.13,0,.25-.06.37-.09l.34-.08.35-.13a3.21,3.21,0,0,0,.33-.12l.33-.15.33-.16.31-.18.32-.19.32-.24.26-.2c.19-.15.37-.32.55-.49l14.15-14.15v20a7.43,7.43,0,1,0,14.86,0v-38C587.32,624.12,587.31,623.88,587.29,623.63Z" transform="translate(50.72 46.38)"/>
      <path class="cls-6" d="M531.47,596.88h0a7.44,7.44,0,0,0-10.51,0l-26.84,26.84a7.43,7.43,0,0,0,10.51,10.51l26.84-26.84A7.44,7.44,0,0,0,531.47,596.88Z" transform="translate(50.72 46.38)"/>
    </g>
    <g id="shape3">
      <path class="cls-7" d="M1266.39,864.1c.08-.25.16-.5.23-.75,7.42-25,5.75-49.18-2.89-64.14A113.85,113.85,0,0,0,1274,775c11-37.16,2.18-72.55-19.74-79.06-12.54-3.72-26.64,2.83-38.48,16.06-4.07-11.07-11-19-20.29-21.78-14.57-4.32-31.24,5.21-44,23-2.75-17.44-11-30.53-23.47-34.23-14.11-4.19-30.19,4.62-42.81,21.34-3.06-16.38-11.12-28.56-23.1-32.11-9.62-2.86-20.15.33-29.88,7.93-3.76-13.35-11.24-23.06-21.72-26.17-21.92-6.51-48.63,18.34-59.66,55.5-8.26,27.86-5.36,54.73,5.85,69.18a106.93,106.93,0,0,0-17.92,35.58c-11,37.16-2.19,72.55,19.73,79.06,17.09,5.06,37.07-8.9,50.28-32.89,1,21.89,9.79,39,24.37,43.32,12,3.57,25.53-2.33,37.07-14.52,3.76,13.31,11.23,23,21.69,26.1,14.48,4.29,31-5.09,43.8-22.66-.29,24.47,8.71,44.09,24.47,48.77,7.66,2.27,15.9.71,23.85-3.86.33,23.07,9.14,41.35,24.22,45.83,21.71,6.44,48.15-18.17,59.07-55C1274.13,901.46,1273.28,879.17,1266.39,864.1Zm-137.94,6.81c-9.92-2.95-17-12-20.68-24.49-9.25,7.18-19.3,10.18-28.49,7.45a26.36,26.36,0,0,1-13.32-9.45,26.44,26.44,0,0,1-16.32.66c-8-2.38-14.2-8.77-18.2-17.7-8.22,5.3-16.89,7.29-24.91,4.91-20.83-6.18-29.35-39.38-19-74.15s35.57-57.94,56.4-51.76c8,2.38,14.2,8.77,18.2,17.7,8.22-5.31,16.89-7.29,24.9-4.91a26.4,26.4,0,0,1,13.32,9.44,26.51,26.51,0,0,1,16.32-.65c9.92,2.94,17,12,20.68,24.49,9.25-7.19,19.3-10.18,28.5-7.45,20.83,6.18,29.35,39.37,19,74.14S1149.28,877.09,1128.45,870.91Z" transform="translate(50.72 46.38)"/>
      <path class="cls-7" d="M540.35,513.93c.11-.15.22-.31.34-.46l-.34-.08C540.35,513.57,540.36,513.75,540.35,513.93Z" transform="translate(50.72 46.38)"/>
    </g>
    <text id="shape2" class="cls-9" transform="matrix(0.97, 0.25, -0.25, 0.97, 1638.04, 321.39)">B</text>
    <path id="shape1" class="cls-4" d="M1440.26,449.7a124.43,124.43,0,0,1,28-116.79c47.91-52.51,130.79-54.14,180.68-3.51A124,124,0,0,1,1680.42,384a38.06,38.06,0,0,0,46.63,27h.06a38,38,0,0,0,26.71-46.47,200.14,200.14,0,0,0-66.73-103c-75.23-61.86-184.78-60.12-258.18,3.89A200.34,200.34,0,0,0,1367,469.58a37.9,37.9,0,0,0,46.53,26.5h0A37.86,37.86,0,0,0,1440.26,449.7Z" transform="translate(50.72 46.38)"/>
  </g>
  <g id="whitebottom">
    <path class="cls-10" d="M1920,699.33s-230.12,49.58-489.79,49.58S777.41,615.55,478.78,615.55,0,699.33,0,699.33V1080H1920Z" transform="translate(50.72 46.38)"/>
  </g>
</svg>
