<?xml version="1.0" encoding="utf-8"?>
<!-- Generator: Adobe Illustrator 24.3.0, SVG Export Plug-In . SVG Version: 6.00 Build 0)  -->
<svg version="1.1" id="Layer_1" xmlns="http://www.w3.org/2000/svg" xmlns:xlink="http://www.w3.org/1999/xlink" x="0px" y="0px"
	 viewBox="0 0 1920 828" style="enable-background:new 0 0 1920 828;" xml:space="preserve">
<style type="text/css">
	.st0{fill:url(#SVGID_1_);}
	.st1{fill:#FFFFFF;}
	.st2{fill:#8CC63F;}
</style>
<g id="Background">
	<g id="gradientbg">
		
			<linearGradient id="SVGID_1_" gradientUnits="userSpaceOnUse" x1="732.3406" y1="-471.5143" x2="1187.6593" y2="1047.5143" gradientTransform="matrix(1 0 0 -1 0 828)">
			<stop  offset="0.2624" style="stop-color:#00FFFF"/>
			<stop  offset="0.4578" style="stop-color:#0064FF;stop-opacity:0.9"/>
			<stop  offset="0.9537" style="stop-color:#FF00F1"/>
		</linearGradient>
		<rect class="st0" width="1920" height="1080"/>
	</g>
</g>
<g id="whitebottom">
	<path class="st1" d="M-12.4-434.1c0,0,230.1,49.6,489.8,49.6s652.8-133.4,951.4-133.4s478.8,83.8,478.8,83.8v380.7h-1920V-434.1z"
		/>
	<g>
		
			<ellipse transform="matrix(0.1587 -0.9873 0.9873 0.1587 762.07 357.3498)" class="st2" cx="590.7" cy="-268.5" rx="8.6" ry="6.3"/>
		<path class="st2" d="M575.2-271.5c0,0,0.8,5.6,2.1,8.7s5.8,9,5.8,9s-2.7,3.3-6.2,5.9c-3.6,2.7-9,5-9,5s4.4,1.2,8.7,0.3
			s8.9-4.1,8.9-4.1s-0.9,4.4-1.8,7.4s-2.9,8.6-2.9,8.6s6.1-5.1,8.9-10.5c2.9-5.4,3.3-11.4,3.3-11.4s4.6-2.1,7.5-5.2
			c2.9-3.1,5.4-7.9,5.4-7.9s-11.4,8.3-17.2,7C581.7-260.6,575.2-271.5,575.2-271.5z"/>
		<path class="st2" d="M575.2-271.5c0,0,0.4,4.7,2,8.3c1.5,3.6,6,9.4,6,9.4"/>
	</g>
	<g>
		<path class="st1" d="M1335.3-74.5c-15.4,0-27.9-12.5-27.9-27.9v-160.5h-7.5v160.5c0,19.5,15.9,35.4,35.4,35.4h160.5v-7.5H1335.3z"
			/>
		<path class="st1" d="M1572.6-304.1v95.7h-7.5v-95.7c0-15.4-12.5-27.9-27.9-27.9h-160.5v-7.5h160.5
			C1556.7-339.5,1572.6-323.6,1572.6-304.1z"/>
		<rect x="1565.1" y="-172.4" class="st1" width="7.5" height="21.3"/>
		<g>
			<path class="st1" d="M1312.2-322.4v13.1h-12.1v-10.4c0-5.6,0.7-9.7,2-12.2c1.8-3.4,4.5-5.9,8.4-7.6l2.8,4.4c-2.3,1-4,2.4-5.1,4.3
				s-1.7,4.7-1.8,8.3L1312.2-322.4L1312.2-322.4z M1331.7-322.4v13.1h-12.1v-10.4c0-5.6,0.7-9.7,2-12.2c1.8-3.4,4.5-5.9,8.4-7.6
				l2.8,4.4c-2.3,1-4,2.4-5.1,4.3s-1.7,4.7-1.8,8.3L1331.7-322.4L1331.7-322.4z"/>
		</g>
		<g>
			<path class="st1" d="M1540.8-84v-13.1h12.1v10.4c0,5.6-0.7,9.7-2,12.2c-1.8,3.4-4.5,5.9-8.4,7.6l-2.8-4.4c2.3-1,4-2.4,5.1-4.3
				s1.7-4.7,1.8-8.3h-5.8V-84z M1560.3-84v-13.1h12.1v10.4c0,5.6-0.7,9.7-2,12.2c-1.8,3.4-4.5,5.9-8.4,7.6l-2.8-4.4
				c2.3-1,4-2.4,5.1-4.3s1.7-4.7,1.8-8.3h-5.8V-84z"/>
		</g>
		<g>
			<path class="st1" d="M1344.9-258.1l2.1,0.5c-0.4,1.8-1.3,3.1-2.4,4c-1.2,0.9-2.6,1.4-4.3,1.4c-1.7,0-3.2-0.4-4.2-1.1
				c-1.1-0.7-1.9-1.7-2.5-3.1c-0.6-1.3-0.9-2.8-0.9-4.3c0-1.7,0.3-3.1,1-4.4c0.6-1.3,1.6-2.2,2.7-2.9c1.2-0.6,2.5-1,3.9-1
				c1.6,0,3,0.4,4.1,1.2c1.1,0.8,1.9,2,2.3,3.5l-2.1,0.5c-0.4-1.2-0.9-2-1.6-2.6c-0.7-0.5-1.6-0.8-2.7-0.8c-1.2,0-2.3,0.3-3.1,0.9
				c-0.8,0.6-1.4,1.4-1.8,2.4c-0.3,1-0.5,2-0.5,3.1c0,1.4,0.2,2.6,0.6,3.6s1,1.8,1.9,2.3s1.8,0.8,2.7,0.8c1.2,0,2.2-0.3,3-1
				C1344.2-255.7,1344.7-256.7,1344.9-258.1z"/>
			<path class="st1" d="M1349.8-252.4v-16.1h2.1v6.6h8.4v-6.6h2.1v16.1h-2.1v-7.6h-8.4v7.6H1349.8z"/>
			<path class="st1" d="M1366.3-252.4v-16.1h2.1v16.1H1366.3z"/>
			<path class="st1" d="M1372.2-252.4v-16.1h2.1v14.2h7.9v1.9H1372.2z"/>
			<path class="st1" d="M1384.8-252.4v-16.1h5.6c1.3,0,2.2,0.1,2.9,0.2c0.9,0.2,1.7,0.6,2.4,1.2c0.9,0.7,1.5,1.6,1.9,2.8
				s0.6,2.4,0.6,3.8c0,1.2-0.1,2.3-0.4,3.3s-0.7,1.7-1.1,2.4c-0.4,0.6-0.9,1.1-1.5,1.5c-0.5,0.4-1.2,0.6-1.9,0.8
				c-0.8,0.2-1.6,0.3-2.6,0.3h-5.9V-252.4z M1386.9-254.3h3.4c1.1,0,1.9-0.1,2.5-0.3c0.6-0.2,1.1-0.5,1.4-0.8c0.5-0.5,0.9-1.2,1.2-2
				s0.4-1.9,0.4-3.1c0-1.7-0.3-3-0.8-3.9c-0.6-0.9-1.2-1.5-2-1.8c-0.6-0.2-1.5-0.3-2.8-0.3h-3.4v12.2H1386.9z"/>
			<path class="st1" d="M1401.2-252.4v-16.1h7.2c1.4,0,2.5,0.1,3.3,0.4c0.7,0.3,1.3,0.8,1.8,1.5c0.4,0.7,0.7,1.5,0.7,2.4
				c0,1.1-0.4,2.1-1.1,2.9s-1.9,1.3-3.4,1.5c0.6,0.3,1,0.5,1.3,0.8c0.6,0.6,1.2,1.3,1.8,2.1l2.8,4.4h-2.7l-2.1-3.4
				c-0.6-1-1.1-1.7-1.5-2.2s-0.8-0.9-1.1-1.1c-0.3-0.2-0.6-0.3-1-0.4c-0.2-0.1-0.6-0.1-1.2-0.1h-2.5v7.2h-2.3V-252.4z M1403.3-261.4
				h4.6c1,0,1.7-0.1,2.3-0.3c0.5-0.2,1-0.5,1.3-1c0.3-0.4,0.4-0.9,0.4-1.4c0-0.8-0.3-1.4-0.8-1.9s-1.4-0.7-2.6-0.7h-5.1v5.3H1403.3z
				"/>
			<path class="st1" d="M1417.4-252.4v-16.1h11.7v1.9h-9.5v4.9h8.9v1.9h-8.9v5.5h9.9v1.9L1417.4-252.4L1417.4-252.4z"/>
			<path class="st1" d="M1432.3-252.4v-16.1h2.2l8.5,12.7v-12.7h2v16.1h-2.2l-8.5-12.7v12.7H1432.3z"/>
			<path class="st1" d="M1451.9-252.4l6.2-16.1h2.3l6.6,16.1h-2.4l-1.9-4.9h-6.7l-1.8,4.9H1451.9z M1456.6-259h5.5l-1.7-4.5
				c-0.5-1.4-0.9-2.5-1.1-3.3c-0.2,1-0.5,2.1-0.9,3.1L1456.6-259z"/>
			<path class="st1" d="M1468.8-252.4v-16.1h7.2c1.4,0,2.5,0.1,3.3,0.4c0.7,0.3,1.3,0.8,1.8,1.5c0.4,0.7,0.7,1.5,0.7,2.4
				c0,1.1-0.4,2.1-1.1,2.9s-1.9,1.3-3.4,1.5c0.6,0.3,1,0.5,1.3,0.8c0.6,0.6,1.2,1.3,1.8,2.1l2.8,4.4h-2.7l-2.1-3.4
				c-0.6-1-1.1-1.7-1.5-2.2s-0.8-0.9-1.1-1.1c-0.3-0.2-0.6-0.3-1-0.4c-0.2-0.1-0.6-0.1-1.2-0.1h-2.5v7.2h-2.3V-252.4z M1470.9-261.4
				h4.6c1,0,1.7-0.1,2.3-0.3c0.6-0.2,1-0.5,1.3-1c0.3-0.4,0.4-0.9,0.4-1.4c0-0.8-0.3-1.4-0.8-1.9c-0.6-0.5-1.4-0.7-2.6-0.7h-5.1v5.3
				H1470.9z"/>
			<path class="st1" d="M1485.1-252.4v-16.1h11.7v1.9h-9.5v4.9h8.9v1.9h-8.9v5.5h9.9v1.9L1485.1-252.4L1485.1-252.4z"/>
			<path class="st1" d="M1340.9-224v-1.9h6.8v6c-1,0.8-2.1,1.5-3.2,1.9s-2.3,0.6-3.4,0.6c-1.6,0-3-0.3-4.3-1s-2.3-1.7-2.9-2.9
				c-0.7-1.3-1-2.7-1-4.3c0-1.6,0.3-3,1-4.4s1.6-2.4,2.8-3c1.2-0.7,2.7-1,4.3-1c1.2,0,2.2,0.2,3.2,0.6s1.7,0.9,2.2,1.6
				s0.9,1.6,1.2,2.6l-1.9,0.5c-0.2-0.8-0.5-1.5-0.9-1.9c-0.4-0.5-0.9-0.8-1.5-1.1c-0.7-0.3-1.4-0.4-2.2-0.4c-1,0-1.8,0.1-2.5,0.4
				s-1.3,0.7-1.7,1.2s-0.8,1-1,1.6c-0.4,1-0.6,2.1-0.6,3.2c0,1.4,0.2,2.6,0.7,3.6s1.2,1.7,2.2,2.2s2,0.7,3,0.7
				c0.9,0,1.8-0.2,2.7-0.5c0.9-0.4,1.5-0.7,2-1.1v-3h-5V-224z"/>
			<path class="st1" d="M1351.1-217.6v-16.1h7.2c1.4,0,2.5,0.1,3.3,0.4c0.7,0.3,1.3,0.8,1.8,1.5c0.4,0.7,0.7,1.5,0.7,2.4
				c0,1.1-0.4,2.1-1.1,2.9s-1.9,1.3-3.4,1.5c0.6,0.3,1,0.5,1.3,0.8c0.6,0.6,1.2,1.3,1.8,2.1l2.8,4.4h-2.7l-2.1-3.4
				c-0.6-1-1.1-1.7-1.5-2.2s-0.8-0.9-1.1-1.1c-0.3-0.2-0.6-0.3-1-0.4c-0.2-0.1-0.6-0.1-1.2-0.1h-2.5v7.2h-2.3V-217.6z M1353.2-226.6
				h4.6c1,0,1.7-0.1,2.3-0.3c0.5-0.2,1-0.5,1.3-1c0.3-0.4,0.4-0.9,0.4-1.4c0-0.8-0.3-1.4-0.8-1.9s-1.4-0.7-2.6-0.7h-5.1v5.3H1353.2z
				"/>
			<path class="st1" d="M1367.3-217.6v-16.1h11.7v1.9h-9.5v4.9h8.9v1.9h-8.9v5.5h9.9v1.9L1367.3-217.6L1367.3-217.6z"/>
			<path class="st1" d="M1380.6-217.6l6.2-16.1h2.3l6.6,16.1h-2.4l-1.9-4.9h-6.7l-1.8,4.9H1380.6z M1385.2-224.2h5.5l-1.7-4.5
				c-0.5-1.4-0.9-2.5-1.1-3.3c-0.2,1-0.5,2.1-0.9,3.1L1385.2-224.2z"/>
			<path class="st1" d="M1399.8-217.6v-14.2h-5.3v-1.9h12.8v1.9h-5.3v14.2H1399.8z"/>
			<path class="st1" d="M1415.7-217.6v-16.1h2.1v16.1H1415.7z"/>
			<path class="st1" d="M1421.4-217.6v-16.1h3.2l3.8,11.4c0.4,1.1,0.6,1.9,0.8,2.4c0.2-0.6,0.5-1.4,0.9-2.6l3.9-11.2h2.9v16.1h-2.1
				v-13.5l-4.7,13.5h-1.9l-4.7-13.7v13.7L1421.4-217.6L1421.4-217.6z"/>
			<path class="st1" d="M1440.7-217.6v-16.1h2.1v16.1H1440.7z"/>
			<path class="st1" d="M1450.7-217.6v-14.2h-5.3v-1.9h12.8v1.9h-5.3v14.2H1450.7z"/>
			<path class="st1" d="M1456.9-217.6l6.2-16.1h2.3l6.6,16.1h-2.4l-1.9-4.9h-6.7l-1.8,4.9H1456.9z M1461.6-224.2h5.5l-1.7-4.5
				c-0.5-1.4-0.9-2.5-1.1-3.3c-0.2,1-0.5,2.1-0.9,3.1L1461.6-224.2z"/>
			<path class="st1" d="M1476.2-217.6v-14.2h-5.3v-1.9h12.8v1.9h-5.3v14.2H1476.2z"/>
			<path class="st1" d="M1484.8-225.5c0-2.7,0.7-4.8,2.2-6.3c1.4-1.5,3.3-2.3,5.6-2.3c1.5,0,2.8,0.4,4,1.1s2.1,1.7,2.7,3
				s0.9,2.7,0.9,4.3c0,1.6-0.3,3.1-1,4.4s-1.6,2.3-2.8,2.9c-1.2,0.7-2.5,1-3.9,1c-1.5,0-2.9-0.4-4.1-1.1s-2.1-1.7-2.7-3
				C1485.1-222.7,1484.8-224.1,1484.8-225.5z M1486.9-225.4c0,1.9,0.5,3.5,1.6,4.6c1,1.1,2.4,1.7,3.9,1.7c1.6,0,2.9-0.6,4-1.7
				c1-1.1,1.6-2.7,1.6-4.8c0-1.3-0.2-2.5-0.7-3.4c-0.4-1-1.1-1.7-1.9-2.3c-0.9-0.5-1.8-0.8-2.9-0.8c-1.5,0-2.8,0.5-3.9,1.6
				S1486.9-227.9,1486.9-225.4z"/>
			<path class="st1" d="M1502.9-217.6v-16.1h7.2c1.4,0,2.5,0.1,3.3,0.4c0.7,0.3,1.3,0.8,1.8,1.5c0.4,0.7,0.7,1.5,0.7,2.4
				c0,1.1-0.4,2.1-1.1,2.9s-1.9,1.3-3.4,1.5c0.6,0.3,1,0.5,1.3,0.8c0.6,0.6,1.2,1.3,1.8,2.1l2.8,4.4h-2.7l-2.1-3.4
				c-0.6-1-1.1-1.7-1.5-2.2s-0.8-0.9-1.1-1.1c-0.3-0.2-0.6-0.3-1-0.4c-0.2-0.1-0.6-0.1-1.2-0.1h-2.5v7.2h-2.3V-217.6z M1505.2-226.6
				h4.6c1,0,1.7-0.1,2.3-0.3c0.5-0.2,1-0.5,1.3-1c0.3-0.4,0.4-0.9,0.4-1.4c0-0.8-0.3-1.4-0.8-1.9s-1.4-0.7-2.6-0.7h-5.1v5.3H1505.2z
				"/>
			<path class="st1" d="M1518.6-222.8l2-0.2c0.1,0.8,0.3,1.5,0.7,2c0.3,0.5,0.9,0.9,1.6,1.3c0.7,0.3,1.6,0.5,2.5,0.5
				c0.8,0,1.5-0.1,2.2-0.4s1.1-0.6,1.4-1s0.5-0.9,0.5-1.4s-0.1-0.9-0.4-1.3s-0.8-0.7-1.5-1c-0.4-0.2-1.4-0.4-2.9-0.8s-2.5-0.7-3.1-1
				c-0.8-0.4-1.3-0.9-1.7-1.5c-0.4-0.6-0.6-1.3-0.6-2c0-0.8,0.2-1.6,0.7-2.3c0.5-0.7,1.1-1.2,2-1.6s1.9-0.6,3-0.6
				c1.2,0,2.3,0.2,3.2,0.6c0.9,0.4,1.6,1,2.1,1.7s0.8,1.6,0.8,2.5l-2,0.2c-0.1-1-0.5-1.8-1.1-2.3s-1.6-0.8-2.8-0.8
				c-1.3,0-2.2,0.2-2.8,0.7c-0.6,0.5-0.9,1-0.9,1.7c0,0.6,0.2,1.1,0.6,1.4c0.4,0.4,1.5,0.8,3.2,1.2s2.9,0.7,3.6,1
				c0.9,0.4,1.6,1,2.1,1.6c0.4,0.7,0.7,1.4,0.7,2.3s-0.2,1.7-0.7,2.4c-0.5,0.8-1.2,1.4-2.1,1.8s-2,0.6-3.1,0.6
				c-1.5,0-2.7-0.2-3.7-0.6s-1.8-1.1-2.3-1.9C1518.8-220.8,1518.6-221.7,1518.6-222.8z"/>
			<path class="st1" d="M1534.6-217.6v-2.3h2.3v2.3c0,0.8-0.1,1.5-0.4,2s-0.8,0.9-1.4,1.2l-0.6-0.8c0.4-0.2,0.7-0.5,0.9-0.8
				s0.3-0.9,0.3-1.5h-1.1V-217.6z"/>
			<path class="st1" d="M1340.8-188.8v-2.7h7v6.4c-0.7,0.7-1.7,1.2-3,1.7s-2.6,0.8-3.9,0.8c-1.7,0-3.2-0.4-4.4-1.1
				c-1.3-0.7-2.2-1.7-2.8-3c-0.6-1.3-0.9-2.8-0.9-4.3c0-1.7,0.4-3.2,1.1-4.5s1.7-2.3,3.1-3c1-0.5,2.3-0.8,3.9-0.8
				c2,0,3.6,0.4,4.7,1.3c1.1,0.8,1.9,2,2.2,3.5l-3.2,0.6c-0.2-0.8-0.7-1.4-1.3-1.9c-0.6-0.5-1.4-0.7-2.3-0.7c-1.4,0-2.6,0.5-3.4,1.4
				s-1.3,2.2-1.3,4c0,1.9,0.4,3.4,1.3,4.3c0.9,1,2,1.4,3.3,1.4c0.7,0,1.4-0.1,2.1-0.4s1.3-0.6,1.8-1v-2L1340.8-188.8L1340.8-188.8z"
				/>
			<path class="st1" d="M1350.8-182.8v-16.1h3.3v16.1H1350.8z"/>
			<path class="st1" d="M1361.3-182.8l-5.8-16.1h3.5l4.1,11.9l4-11.9h3.5l-5.8,16.1H1361.3z"/>
			<path class="st1" d="M1372.2-182.8v-16.1h12v2.7h-8.7v3.6h8.1v2.7h-8.1v4.4h9v2.7L1372.2-182.8L1372.2-182.8z"/>
			<path class="st1" d="M1397.2-182.8v-13.4h-4.8v-2.7h12.8v2.7h-4.8v13.4H1397.2z"/>
			<path class="st1" d="M1407.3-182.8v-16.1h3.3v6.4h6.4v-6.4h3.3v16.1h-3.3v-7.1h-6.4v7.1H1407.3z"/>
			<path class="st1" d="M1423.6-182.8v-16.1h12v2.7h-8.7v3.6h8.1v2.7h-8.1v4.4h9v2.7L1423.6-182.8L1423.6-182.8z"/>
			<path class="st1" d="M1438.6-182.8v-16.1h4.9l2.9,11l2.9-11h4.9v16.1h-3v-12.7l-3.2,12.7h-3.1l-3.2-12.7v12.7H1438.6z"/>
			<path class="st1" d="M1462.8-188.1l3.2-0.3c0.2,1.1,0.6,1.8,1.2,2.3s1.4,0.7,2.4,0.7s1.8-0.2,2.4-0.7c0.5-0.4,0.8-1,0.8-1.6
				c0-0.4-0.1-0.7-0.3-1c-0.2-0.3-0.6-0.5-1.2-0.7c-0.4-0.1-1.3-0.4-2.6-0.7c-1.7-0.4-3-1-3.7-1.6c-1-0.9-1.5-2-1.5-3.2
				c0-0.8,0.2-1.6,0.7-2.3s1.1-1.3,2-1.6c0.9-0.4,1.9-0.6,3.2-0.6c2,0,3.5,0.4,4.6,1.3c1,0.9,1.6,2.1,1.6,3.6l-3.3,0.1
				c-0.1-0.8-0.4-1.4-0.9-1.8s-1.1-0.5-2.1-0.5c-0.9,0-1.7,0.2-2.2,0.6c-0.3,0.2-0.5,0.6-0.5,1s0.2,0.7,0.5,1c0.4,0.3,1.4,0.7,3,1.1
				s2.8,0.8,3.5,1.2c0.8,0.4,1.4,0.9,1.8,1.6s0.6,1.6,0.6,2.6c0,0.9-0.3,1.8-0.8,2.6c-0.5,0.8-1.2,1.4-2.2,1.8s-2.1,0.6-3.5,0.6
				c-2,0-3.6-0.5-4.7-1.4S1462.9-186.3,1462.8-188.1z"/>
			<path class="st1" d="M1477.9-190.8c0-1.6,0.2-3,0.7-4.1c0.4-0.8,0.9-1.6,1.5-2.2s1.3-1.1,2.1-1.5c1-0.4,2.2-0.6,3.5-0.6
				c2.4,0,4.3,0.7,5.7,2.2s2.1,3.5,2.1,6.2c0,2.6-0.7,4.6-2.1,6.1s-3.3,2.2-5.7,2.2c-2.4,0-4.3-0.7-5.7-2.2
				C1478.7-186.2,1477.9-188.2,1477.9-190.8z M1481.3-190.9c0,1.8,0.4,3.2,1.3,4.2c0.8,0.9,1.9,1.4,3.2,1.4c1.3,0,2.4-0.5,3.2-1.4
				s1.2-2.3,1.2-4.2c0-1.8-0.4-3.2-1.2-4.1c-0.8-0.9-1.9-1.4-3.2-1.4c-1.3,0-2.4,0.5-3.2,1.4
				C1481.8-194.2,1481.3-192.8,1481.3-190.9z"/>
			<path class="st1" d="M1496.2-182.8v-16.1h4.9l2.9,11l2.9-11h4.9v16.1h-3v-12.7l-3.2,12.7h-3.1l-3.2-12.7v12.7H1496.2z"/>
			<path class="st1" d="M1514.9-182.8v-16.1h12v2.7h-8.7v3.6h8.1v2.7h-8.1v4.4h9v2.7L1514.9-182.8L1514.9-182.8z"/>
			<path class="st1" d="M1533.7-182.8v-13.4h-4.8v-2.7h12.8v2.7h-4.8v13.4H1533.7z"/>
			<path class="st1" d="M1543.8-182.8v-16.1h3.3v6.4h6.4v-6.4h3.3v16.1h-3.3v-7.1h-6.4v7.1H1543.8z"/>
			<path class="st1" d="M1559.9-182.8v-16.1h3.3v16.1H1559.9z"/>
			<path class="st1" d="M1566.3-182.8v-16.1h3.2l6.6,10.8v-10.8h3v16.1h-3.3l-6.5-10.5v10.5H1566.3z"/>
			<path class="st1" d="M1590.1-188.8v-2.7h7v6.4c-0.7,0.7-1.7,1.2-3,1.7s-2.6,0.8-3.9,0.8c-1.7,0-3.2-0.4-4.4-1.1
				c-1.3-0.7-2.2-1.7-2.8-3c-0.6-1.3-0.9-2.8-0.9-4.3c0-1.7,0.4-3.2,1.1-4.5s1.7-2.3,3.1-3c1-0.5,2.3-0.8,3.9-0.8
				c2,0,3.6,0.4,4.7,1.3c1.1,0.8,1.9,2,2.2,3.5l-3.2,0.6c-0.2-0.8-0.7-1.4-1.3-1.9c-0.6-0.5-1.4-0.7-2.3-0.7c-1.4,0-2.6,0.5-3.4,1.4
				s-1.3,2.2-1.3,4c0,1.9,0.4,3.4,1.3,4.3c0.9,1,2,1.4,3.3,1.4c0.7,0,1.4-0.1,2.1-0.4s1.3-0.6,1.8-1v-2L1590.1-188.8L1590.1-188.8z"
				/>
			<path class="st1" d="M1340.8-154v-2.7h7v6.4c-0.7,0.7-1.7,1.2-3,1.7s-2.6,0.8-3.9,0.8c-1.7,0-3.2-0.4-4.4-1.1
				c-1.3-0.7-2.2-1.7-2.8-3c-0.6-1.3-0.9-2.8-0.9-4.3c0-1.7,0.4-3.2,1.1-4.5s1.7-2.3,3.1-3c1-0.5,2.3-0.8,3.9-0.8
				c2,0,3.6,0.4,4.7,1.3c1.1,0.8,1.9,2,2.2,3.5l-3.2,0.6c-0.2-0.8-0.7-1.4-1.3-1.9c-0.6-0.5-1.4-0.7-2.3-0.7c-1.4,0-2.6,0.5-3.4,1.4
				s-1.3,2.2-1.3,4c0,1.9,0.4,3.4,1.3,4.3c0.9,1,2,1.4,3.3,1.4c0.7,0,1.4-0.1,2.1-0.4s1.3-0.6,1.8-1v-2L1340.8-154L1340.8-154z"/>
			<path class="st1" d="M1350.8-148.1v-16.1h6.9c1.7,0,3,0.1,3.8,0.4s1.4,0.8,1.9,1.5s0.7,1.6,0.7,2.5c0,1.2-0.4,2.2-1.1,3
				s-1.8,1.3-3.2,1.5c0.7,0.4,1.3,0.9,1.7,1.4c0.5,0.5,1.1,1.4,1.9,2.6l2,3.1h-3.9l-2.4-3.5c-0.8-1.3-1.4-2-1.7-2.4
				c-0.3-0.3-0.6-0.6-1-0.7s-0.9-0.2-1.6-0.2h-0.7v6.7h-3.3V-148.1z M1354.2-157.4h2.4c1.6,0,2.5-0.1,2.9-0.2s0.7-0.4,0.9-0.7
				c0.2-0.3,0.3-0.7,0.3-1.2s-0.1-1-0.4-1.3s-0.7-0.5-1.2-0.6c-0.3,0-1.1-0.1-2.4-0.1h-2.5L1354.2-157.4L1354.2-157.4z"/>
			<path class="st1" d="M1367.2-148.1v-16.1h12v2.7h-8.7v3.6h8.1v2.7h-8.1v4.4h9v2.7L1367.2-148.1L1367.2-148.1z"/>
			<path class="st1" d="M1396.8-148.1h-3.5l-1.4-3.7h-6.5l-1.3,3.7h-3.5l6.3-16.1h3.4L1396.8-148.1z M1390.8-154.4l-2.2-6l-2.2,6
				H1390.8z"/>
			<path class="st1" d="M1400.4-148.1v-13.4h-4.8v-2.7h12.8v2.7h-4.8v13.4H1400.4z"/>
			<path class="st1" d="M1420.4-148.1v-13.4h-4.8v-2.7h12.8v2.7h-4.8v13.4H1420.4z"/>
			<path class="st1" d="M1429.6-156c0-1.6,0.2-3,0.7-4.1c0.4-0.8,0.9-1.6,1.5-2.2s1.3-1.1,2.1-1.5c1-0.4,2.2-0.6,3.5-0.6
				c2.4,0,4.3,0.7,5.7,2.2s2.1,3.5,2.1,6.2c0,2.6-0.7,4.6-2.1,6.1s-3.3,2.2-5.7,2.2c-2.4,0-4.3-0.7-5.7-2.2
				C1430.3-151.4,1429.6-153.5,1429.6-156z M1432.8-156.1c0,1.8,0.4,3.2,1.3,4.2c0.8,0.9,1.9,1.4,3.2,1.4c1.3,0,2.4-0.5,3.2-1.4
				s1.2-2.3,1.2-4.2c0-1.8-0.4-3.2-1.2-4.1c-0.8-0.9-1.9-1.4-3.2-1.4c-1.3,0-2.4,0.5-3.2,1.4C1433.3-159.4,1432.8-158,1432.8-156.1z
				"/>
			<path class="st1" d="M1453.8-148.1v-16.1h3.3v16.1H1453.8z"/>
			<path class="st1" d="M1460.3-148.1v-16.1h4.9l2.9,11l2.9-11h4.9v16.1h-3v-12.7l-3.2,12.7h-3.1l-3.2-12.7v12.7H1460.3z"/>
			<path class="st1" d="M1478.9-148.1v-16.1h3.3v16.1H1478.9z"/>
			<path class="st1" d="M1488.9-148.1v-13.4h-4.8v-2.7h12.8v2.7h-4.8v13.4H1488.9z"/>
			<path class="st1" d="M1511.9-148.1h-3.5l-1.4-3.7h-6.5l-1.3,3.7h-3.5l6.3-16.1h3.4L1511.9-148.1z M1505.9-154.4l-2.2-6l-2.2,6
				H1505.9z"/>
			<path class="st1" d="M1515.7-148.1v-13.4h-4.8v-2.7h12.8v2.7h-4.8v13.4H1515.7z"/>
			<path class="st1" d="M1525.8-148.1v-16.1h12v2.7h-8.7v3.6h8.1v2.7h-8.1v4.4h9v2.7L1525.8-148.1L1525.8-148.1z"/>
			<path class="st1" d="M1540.8-148.1v-3.1h3.1v3.1H1540.8z"/>
		</g>
	</g>
</g>
</svg>
