<?xml version="1.0" encoding="utf-8"?>
<!-- Generator: Adobe Illustrator 24.3.0, SVG Export Plug-In . SVG Version: 6.00 Build 0)  -->
<svg version="1.1" id="Layer_1" xmlns="http://www.w3.org/2000/svg" xmlns:xlink="http://www.w3.org/1999/xlink" x="0px" y="0px"
	 viewBox="0 0 40 40" style="enable-background:new 0 0 40 40;" xml:space="preserve">
<style type="text/css">
	.st0{fill:#0071BC;}
</style>
<polygon class="st0" points="0,0 0,40 40,0 "/>
<path class="st0" d="M-25-32.5c0-14.4-11.7-26-26-26c-7.6,0-14.5,3.3-19.3,8.5c-4.8-5.2-11.6-8.5-19.3-8.5c-14.4,0-26,11.7-26,26
	c0,10.8,6.5,20,15.9,24l0,0c0,0,0,0,0,0c1.1,0.5,2.3,0.9,3.4,1.2c5.9,2.3,18,8.6,26,22.5c8-13.9,20.1-20.1,26-22.5
	c1.2-0.3,2.3-0.7,3.4-1.2c0,0,0,0,0,0l0,0C-31.5-12.5-25-21.7-25-32.5z M-53.7-19.4h-11.9v11.9h-9.2v-11.9h-11.9v-9.2h11.9v-11.9
	h9.2v11.9h11.9V-19.4z"/>
</svg>
